<?xml version="1.0" encoding="UTF-8"?>
<svg version="1.1" xmlns="http://www.w3.org/2000/svg" xmlns:xlink="http://www.w3.org/1999/xlink" viewBox="0 0 500 500">
    <symbol id="League_x5F_Gold" viewBox="-250.5 -250.36 501 501">
        <g>
            <path fill="none" stroke="#C8C8C8" stroke-width="10" stroke-linecap="round" stroke-linejoin="round" stroke-miterlimit="10" d="    M141.83,99.57c5.5,0,10,4.5,10,10v22.81c0,5.5-4.5,10-10,10H-141.4c-5.5,0-10-4.5-10-10v-22.81c0-5.5,4.5-10,10-10H141.83z" />
        </g>
        <polygon fill="#CC932F" points="-135,-200.64 0,-170.64 135,-200.64 135,107.84 -135,107.84  " />
        <polyline fill="#CC932F" points="122.53,107.84 122.53,70.38 -122.53,70.38 -122.53,108.9  " />
        <polygon fill="#EDAF35" points="135.04,-200.64 135.04,-185.45 0,-155.45 -135.04,-185.45 -135.04,-200.64 0,-170.64  " />
        <polygon fill="#EDAF35" points="-122.53,-129.9 0,-200.64 122.53,-129.9 122.53,70.38 -122.53,70.38  " />
        <polygon opacity="0.25" fill="#231F20" points="-122.53,39.7 -135,39.7 -135,50.45 -122.53,50.45  " />
        <polygon opacity="0.25" fill="#231F20" points="135,39.7 122.53,39.7 122.53,50.45 135,50.45  " />
        <path opacity="0.25" fill="#231F20" d="M-122.53-149.84l60.07-34.68l24.94,5.54l-85.01,49.08V-149.84z M37.52-178.98l24.94-5.54   l60.07,34.68v19.94L37.52-178.98z" />
        <polygon fill="#FFC364" points="124.41,-128.82 0,-200.64 -124.41,-128.82 0,-204.74  " />
        <g>
            <polygon fill="#CC932F" points="124.41,-129.9 124.41,-95.9 0,-24.08 -124.41,-95.9 -124.41,-129.9 0,-58.08   " />
            <polygon opacity="0.25" fill="#231F20" points="-124.41,-129.9 0,-58.08 124.41,-129.9 0,-66.34   " />
            <polygon fill="#FFFFFF" points="-124.41,-129.9 0,-58.08 124.41,-129.9 0,-53.98   " />
        </g>
        <path fill="#EDAF35" d="M-106-119.28v34l-8.5-4.91v-34.31 M115-124.16v33.69l-9,5.2v-34" />
        <g>
            <g opacity="0.25">
                <path fill="none" stroke="#231F20" stroke-width="10" stroke-linejoin="round" stroke-miterlimit="10" d="M74.36,56.76     c0,0,2.84,0,6.32,0s6.32,4.5,6.32,10l0,22.81c0,5.5-4.5,10-10,10H-76.57c-5.5,0-10-4.5-10-10l0-22.81c0-5.5,2.79-10,6.19-10     s6.19,0,6.19,0" />
            </g>
            <g>
                <g opacity="0.25">
                    <line fill="none" stroke="#231F20" stroke-width="10" stroke-linejoin="round" stroke-miterlimit="10" x1="75.56" y1="142.38" x2="42.99" y2="142.38" />
                </g>
                <line fill="none" stroke="#C8C8C8" stroke-width="10" stroke-linecap="round" stroke-linejoin="round" stroke-miterlimit="10" x1="59.44" y1="142.38" x2="59.44" y2="119.57" />
                <polygon fill="none" stroke="#C8C8C8" stroke-width="10" stroke-linecap="round" stroke-linejoin="round" stroke-miterlimit="10" points="     59.44,142.38 39.72,170.44 44.91,173.43 70.77,158.5    " />
            </g>
            <g>
                <g opacity="0.25">
                    <line fill="none" stroke="#231F20" stroke-width="10" stroke-linejoin="round" stroke-miterlimit="10" x1="16.12" y1="142.38" x2="-16.45" y2="142.38" />
                </g>
                <line fill="none" stroke="#FFFFFF" stroke-width="10" stroke-linecap="round" stroke-linejoin="round" stroke-miterlimit="10" x1="0" y1="142.38" x2="0" y2="119.57" />
                <polygon fill="none" stroke="#FFFFFF" stroke-width="10" stroke-linecap="round" stroke-linejoin="round" stroke-miterlimit="10" points="     0,142.38 -28.28,182.62 0,198.96 28.29,182.62    " />
            </g>
            <g>
                <g opacity="0.25">
                    <line fill="none" stroke="#231F20" stroke-width="10" stroke-linejoin="round" stroke-miterlimit="10" x1="-43.32" y1="142.38" x2="-75.89" y2="142.38" />
                </g>
                <line fill="none" stroke="#C8C8C8" stroke-width="10" stroke-linecap="round" stroke-linejoin="round" stroke-miterlimit="10" x1="-59.44" y1="142.38" x2="-59.44" y2="119.57" />
                <polygon fill="none" stroke="#C8C8C8" stroke-width="10" stroke-linecap="round" stroke-linejoin="round" stroke-miterlimit="10" points="     -59.44,142.38 -70.77,158.5 -44.91,173.43 -39.72,170.44    " />
            </g>
            <g>
                <path fill="none" stroke="#C8C8C8" stroke-width="10" stroke-linejoin="round" stroke-miterlimit="10" d="M74.36,76.76     c0,0,2.84,0,6.32,0s6.32,4.5,6.32,10l0,22.81c0,5.5-4.5,10-10,10H-76.57c-5.5,0-10-4.5-10-10l0-22.81c0-5.5,2.79-10,6.19-10     s6.19,0,6.19,0" />
            </g>
        </g>
        <path opacity="0.25" fill="#EDAF35" d="M-106,68.4v39.44h-16.53v-39.5 M122.53,68.34v39.5H106V68.05" />
    </symbol>
    <symbol id="Position_x5F_1_3_" viewBox="-250.5 -250.5 501 501">
        <g>
            <polygon opacity="0.25" points="67.5,-161.81 67.5,36.36 0,36.36 -67.5,36.36 -67.5,-161.81 0,-200.78   " />
            <polygon points="73.62,-139.89 73.62,107.9 0,107.9 -73.62,107.9 -73.62,-139.89 0,-182.39   " />
            <polygon fill="#FFFFFF" points="-0.92,64.7 12.81,22.45 57.23,22.45 21.29,-3.66 35.02,-45.91 -0.92,-19.8 -36.86,-45.91     -23.13,-3.66 -59.07,22.45 -14.65,22.45   " />
        </g>
        <polygon fill="#FFFFFF" points="-73.62,-102.28 0,-144.78 73.62,-102.28 73.62,-112.28 0,-154.78 -73.62,-112.28  " />
        <polygon fill="#FFFFFF" points="-73.62,-82.28 0,-124.78 73.62,-82.28 73.62,-92.28 0,-134.78 -73.62,-92.28  " />
        <polygon fill="#FFFFFF" points="-73.62,-62.28 0,-104.78 73.62,-62.28 73.62,-72.28 0,-114.78 -73.62,-72.28  " />
        <polygon fill="#FFFFFF" points="38.98,-92.28 0,-69.78 -38.98,-92.28 -38.98,-82.28 0,-59.78 38.98,-82.28  " />
    </symbol>
    <g id="Compound">
        <g id="Rank_x5F_Gold_x5F_1">
            <use xlink:href="#League_x5F_Gold" width="501" height="501" id="XMLID_53_" x="-250.5" y="-250.36" transform="matrix(1 0 0 -1 256.5 252.334)" overflow="visible" />
            <use xlink:href="#Position_x5F_1_3_" width="501" height="501" id="XMLID_41_" x="-250.5" y="-250.5" transform="matrix(1 0 0 -1 256.5 251.334)" overflow="visible" />
        </g>
    </g>
</svg>
