<?xml version="1.0" standalone="no"?>
<!DOCTYPE svg PUBLIC "-//W3C//DTD SVG 1.1//EN" "http://www.w3.org/Graphics/SVG/1.1/DTD/svg11.dtd">
<svg xmlns="http://www.w3.org/2000/svg" version="1.1">
    <symbol id="homeIcon" viewBox="0 0 1000 1000">
        <g>
            <path
                d="M500,10C229.4,10,10,229.4,10,500c0,270.6,219.4,490,490,490s490-219.4,490-490C990,229.4,770.6,10,500,10z M500,941C256.8,941,59,743.2,59,500C59,256.9,256.8,59,500,59c243.2,0,441,197.9,441,441C941,743.2,743.2,941,500,941z" />
            <path
                d="M517.2,212.5c-4.6-4.2-10.6-6.5-17-6.5c-6.4,0-12.5,2.3-17.1,6.5L213.1,462.2c-4.6,4.3-7.2,9.9-7.2,16c0,6.1,2.5,11.7,7.2,16c4.6,4.2,10.6,6.5,17,6.5c6.4,0,12.5-2.3,17-6.5l57.3-53v279.7c0,13.3,10.9,24.2,24.2,24.2h342.4c13.4,0,24.2-10.9,24.2-24.2c0,0-0.7-333.4-0.2-280.1l60.5,55.9c4.6,4.2,10.6,6.6,17,6.6c6.4,0,12.5-2.3,17-6.6c4.6-4.3,7.2-9.9,7.2-16c0-6.1-2.6-11.8-7.2-16L517.2,212.5z" />
        </g>
    </symbol>
</svg>