<svg version="1.1" xmlns="http://www.w3.org/2000/svg" xmlns:xlink="http://www.w3.org/1999/xlink" viewBox="0 0 500 500">
    <defs>
        <linearGradient gradientTransform="translate(1)" gradientUnits="userSpaceOnUse" y2="393.94" x2="405.72" y1="212.95" x1="92.23" id="a">
            <stop stop-color="#e2108a" offset="0" />
            <stop stop-color="#e2107f" offset=".25" />
            <stop stop-color="#e11062" offset=".69" />
            <stop stop-color="#e1104a" offset="1" />
        </linearGradient>
    </defs>
    <path d="M303.565 464.43a4.51 4.51 0 0 1-2.81-1l-107.13-85.71a4.51 4.51 0 0 1-1.69-3.52V195.67a4.49 4.49 0 0 1 1.33-3.19 4.43 4.43 0 0 1 3.21-1.31c19.43.14 51 .28 54.41.06a4.62 4.62 0 0 1 .74-.06h51.94a4.5 4.5 0 0 1 4.5 4.5v264.26a4.5 4.5 0 0 1-2.55 4.06 4.44 4.44 0 0 1-1.95.44zM200.935 372l98.09 78.53V200.17h-47.4c-3.5.28-14.07.33-50.69.07zm48.69-180.4zm0 0zm0 0z" fill="#ed9cd4" />
    <path d="M196.505 464.43a4.44 4.44 0 0 1-2-.44 4.5 4.5 0 0 1-2.55-4.06V195.67a4.5 4.5 0 0 1 4.5-4.5h51.9a4.62 4.62 0 0 1 .74.06c3.37.22 35 .08 54.41-.06a4.51 4.51 0 0 1 4.54 4.5V374.2a4.51 4.51 0 0 1-1.69 3.52l-107 85.73a4.51 4.51 0 0 1-2.85.98zm4.5-264.26v250.4l98.13-78.57V200.2c-36.62.26-47.18.21-50.69-.07zm49.5-8.52zm0 0zm0 0zm0 0z" fill="#ed9cc9" />
    <path d="M370.219 181.68a4.5 4.5 0 0 1-3.2-7.68l22.57-22.46-19.46-18.54h-240.27l-19.48 18.58 22.57 22.42a4.5 4.5 0 0 1-6.35 6.38l-25.85-25.73a4.52 4.52 0 0 1 .07-6.45l24.13-23a4.54 4.54 0 0 1 3.07-1.2h243.91a4.54 4.54 0 0 1 3.11 1.24l24.13 23a4.49 4.49 0 0 1 .07 6.45l-25.85 25.72a4.47 4.47 0 0 1-3.17 1.27z" fill="#e0c5d8" />
    <path d="M375 158H125v291l124.55-63.57L375 448.93z" fill="url(#a)" />
    <path d="M125 157.97h250v30H125z" fill="#c86aab" />
    <path d="M351.93 191l-14.84-15.16q0-8.92.05-17.85H166.43v14.24L148.06 191a4.51 4.51 0 0 0 0 6.28l18.39 19v202.06l7.76 6.43 77.22-39.41 77.88 39.46 7.8-6.48V212.63l14.86-15.37a4.51 4.51 0 0 0-.04-6.26zm-194.38 3.17l8.88-9.07v18.25zm179.54 5.53v-11l5.35 5.46z" opacity=".4" />
    <path d="M322.5 404.57l-72 57.5-73-57.5v-216h145z" fill="#f02166" />
    <path d="M190.5 174.36v226.22l60 47.28 59-47.12V174.36z" fill="#b31d51" />
    <path d="M315.768 198.67a4.5 4.5 0 0 1-1.39-8.78l7.63-2.48 18.41-19-17.87-18.31-72.56.19-72.56-.19-17.87 18.26 18.42 19 7.62 2.48a4.5 4.5 0 1 1-2.78 8.56l-8.69-2.83a4.48 4.48 0 0 1-1.85-1.15l-22.23-23a4.51 4.51 0 0 1 0-6.28l22.25-22.74a4.5 4.5 0 0 1 3.22-1.36l70 .19v-23.4l-38.52-.18a4.49 4.49 0 0 1-4.24-3l-17.26-50.27a4.5 4.5 0 0 1 6.33-5.46l28.39 14.81 26.1-36.29a4.51 4.51 0 0 1 7.31 0l26.1 36.29 28.39-14.81a4.5 4.5 0 0 1 6.34 5.46l-17.28 50.24a4.49 4.49 0 0 1-4.23 3l-38.47.18v23.45l70-.19a4.5 4.5 0 0 1 3.22 1.36l22.25 22.74a4.5 4.5 0 0 1 0 6.28l-22.23 23a4.42 4.42 0 0 1-1.85 1.15l-8.69 2.83a4.48 4.48 0 0 1-1.41.25zm-105.53-90l39.74.18 39.73-.18 12.57-36.55-21.84 11.4a4.51 4.51 0 0 1-5.74-1.37l-24.7-34.38-24.75 34.39a4.51 4.51 0 0 1-5.73 1.36l-21.84-11.4z" fill="#fff" />
    <path d="M322.555 374l-72 57.5q-36.51-28.74-73-57.5V158h145z" />
    <path d="M177.445 349.47l73 58v-9l-73-58zm0-18l73 58v-9l-73-58zm101.55 8.33l-28.55 22.67v9l72-57.19v-9l-36.9 29.32-.9.71-33.69-27.13v-.82l-.5.41-.51-.41v.82l-33.69 27.13-.9-.71-37.91-30.13v9l73 58v-9l-28.54-22.67 28.55-23zm-28.55 58.67v9l72-57.21v-9zm0-9l72-57.23v-9l-72 57.21zm-.49-195.3l12.68 39.02h41.02l-33.19 24.11 12.68 39.02-33.19-24.12-33.19 24.12 12.68-39.02-33.19-24.11h41.02z" fill="#fff" />
</svg>
