<svg id="layer1" xmlns="http://www.w3.org/2000/svg" width="418.769" height="196.097" viewBox="0 0 418.769 196.097">
  <path id="path1780" d="M38.33,272.944a19.663,19.663,0,0,0-4.877.574,14.776,14.776,0,0,0-3.928,1.612,13.988,13.988,0,0,0-3.071,2.48,16.461,16.461,0,0,0-2.31,3.183,21.918,21.918,0,0,0-1.637,3.72,30.392,30.392,0,0,0-1.056,4.086,47.116,47.116,0,0,0-.745,8.611v17.912a42.789,42.789,0,0,0,1.174,10.617,24.325,24.325,0,0,0,1.467,4.171,17.783,17.783,0,0,0,2.053,3.413,14.656,14.656,0,0,0,5.868,4.549,17.731,17.731,0,0,0,3.816,1.138,24.19,24.19,0,0,0,4.4.378,20.991,20.991,0,0,0,4.13-.378,15.954,15.954,0,0,0,3.577-1.138,13.726,13.726,0,0,0,3.03-1.9,14.382,14.382,0,0,0,2.477-2.652,18.07,18.07,0,0,0,1.93-3.413,25.39,25.39,0,0,0,1.377-4.171,45.466,45.466,0,0,0,1.1-10.617V297.21A42.767,42.767,0,0,0,55.933,286.6a24.322,24.322,0,0,0-1.467-4.172,17.779,17.779,0,0,0-2.053-3.413,14.585,14.585,0,0,0-5.868-4.549,17.684,17.684,0,0,0-3.813-1.138,24.274,24.274,0,0,0-4.4-.381Z" transform="translate(134.154 -170.627)" fill="#101010" fill-rule="evenodd"/>
  <path id="path1782" d="M137.324,266.848l-86.465.06c.152.03.32.014.472.045a40.272,40.272,0,0,1,15.312,6.356,47.717,47.717,0,0,1,12.244,12.239,40.476,40.476,0,0,1,6.356,15.312,45.822,45.822,0,0,1,.792,8.629v9.247H57.146a50.468,50.468,0,0,0-.955-11.757,27.709,27.709,0,0,0-1.417-4.616,19.5,19.5,0,0,0-2.032-3.777,15.414,15.414,0,0,0-2.66-2.94,14.612,14.612,0,0,0-3.282-2.1,17.093,17.093,0,0,0-3.9-1.26,23.262,23.262,0,0,0-4.527-.418,24.234,24.234,0,0,0-4.931.468,16.338,16.338,0,0,0-4.1,1.41,13.022,13.022,0,0,0-3.268,2.345,13.723,13.723,0,0,0-2.436,3.287,21.644,21.644,0,0,0-2.168,6.789,59.538,59.538,0,0,0-.723,9.967l.291,21.668a14.416,14.416,0,0,1,2.977-2.273,18.554,18.554,0,0,1,3.74-1.626,26.655,26.655,0,0,1,4.493-.975A39.951,39.951,0,0,1,37.5,332.6a64.655,64.655,0,0,1,9.825.723,52.893,52.893,0,0,1,8.951,2.166,47.045,47.045,0,0,1,8.09,3.612,46.36,46.36,0,0,1,7.222,5.056,38.5,38.5,0,0,1,6.068,6.322,36.123,36.123,0,0,1,4.333,7.4,40.015,40.015,0,0,1,2.6,8.486,50.7,50.7,0,0,1,.869,9.569v32.356a45.873,45.873,0,0,1-.8,8.629,40.374,40.374,0,0,1-6.356,15.312,47.674,47.674,0,0,1-12.241,12.243,40.81,40.81,0,0,1-7.33,3.971,40.7,40.7,0,0,1-6.936,2.072l90.884,0q17.487,0,27.076-11,9.872-11,9.872-28.485v-102.1a40.751,40.751,0,0,0-12.408-29.9c-8.273-8.273-18.24-12.206-29.9-12.192Zm-21.434,24.6h13.818q13.82,0,18.333,5.639,3.385,4.513,3.386,18.333v88q0,11.281-2.822,16.64-3.949,7.051-14.384,7.052-.564,0-18.331-.284Z" transform="translate(134.692 -256.004)" fill="#101010" fill-rule="evenodd"/>
  <path id="path1797" d="M32.189,382.221c8.171.194,14.6,1.107,18.24,3.164q9.6,5.363,9.6,20.319,0,.282-.283,44.875H88.247V399.213q0-8.185-5.927-16.087a35.724,35.724,0,0,0-13.828-11.855q7.62-3.1,12.7-12.982a36.092,36.092,0,0,0,5.079-17.779V308.9a40.779,40.779,0,0,0-12.418-29.917C65.574,270.7,55.6,266.844,43.938,266.844H14.025c.111.217.245.414.354.633q2.247,4.495,4.116,9.266t3.364,9.785c.474,1.589.825,3.249,1.243,4.872h12.65q14.394-.281,18.629,5.645,3.669,4.515,3.669,18.346v17.5q0,11.29-3.105,16.653-3.669,7.056-14.111,7.054c-.274,0-5.837-.09-8.649-.135Z" transform="translate(40.636 -255.998)" fill="#101010"/>
  <path id="path1786" d="M125.856,413.6q0,17.786-10.041,28.974t-27.54,11.188H32.048V267.011q50.49-.286,50.777-.286a41.449,41.449,0,0,1,30.409,12.622,41.448,41.448,0,0,1,12.622,30.408v23.524q0,7.459-4.877,16.925-4.59,9.467-10.9,12.335,6.6,3.156,11.188,11.475a33.233,33.233,0,0,1,4.59,16.065ZM97.169,325.536v-9.18q0-14.057-3.442-18.647-4.59-5.738-18.934-5.737H61.023V349.92l12.909.286q14.057.287,18.647-4.877,4.59-5.451,4.59-19.794Zm0,80.325V394.672q0-21.229-10.041-21.229H61.023v56.227q17.786.287,18.647.287,10.614,0,14.631-7.172Q97.169,417.622,97.169,405.86Z" transform="translate(292.914 -257.67)" fill="#101010"/>
  <path id="path1790" d="M38.887,266.121l-3.511,4.457-.008.015c-13.184,16.912-20.6,41.724-20.6,69.119v.06a71.4,71.4,0,0,1-.232,8.766,13.62,13.62,0,0,1-1.449,4.387L10.4,358.869,10.4,408l-.015,52.71,28.506-.03,28.514.03L67.386,408l-.008-49.13L64.7,352.924a13.669,13.669,0,0,1-1.457-4.387,71.923,71.923,0,0,1-.225-8.766v-.06c0-27.394-7.424-52.207-20.608-69.119l-.008-.015Zm0,29.77A42.32,42.32,0,0,1,44,305.462a76.9,76.9,0,0,1,4.185,19.244H29.594a76.891,76.891,0,0,1,4.185-19.244,42.342,42.342,0,0,1,5.108-9.572Zm-9.859,44.953H48.753A46.123,46.123,0,0,0,51.094,356.6l.5,48.239H46.2v17.322h5.573l.061,6.092H25.951l.061-6.092h5.549V404.839H26.191l.5-48.239a94.452,94.452,0,0,0,2.333-15.756ZM25.835,443H51.954l.061,5.945H25.765Z" transform="translate(-10.381 -266.121)" fill="#006cf9"/>
  <path id="path1857" d="M36.813,277.472l.03-.12-.224.569c.078-.135.12-.3.194-.446Z" transform="translate(356.899 -108.909)" fill="#0e0e0f" fill-rule="evenodd" opacity="0.1"/>
</svg>
