<svg xmlns="http://www.w3.org/2000/svg" width="402" height="111" viewBox="0 0 402 111">
  <g id="Gruppe_130" data-name="Gruppe 130" transform="translate(-83 -556)">
    <rect id="Rechteck_120" data-name="Rechteck 120" width="402" height="111" transform="translate(83 556)" fill="#9f0000" opacity="0"/>
    <g id="Head" transform="translate(-600.951 488.341)">
      <path id="Pfad_89" data-name="Pfad 89" d="M47.61-17.91A17.522,17.522,0,0,1,45.99-10.4,17.44,17.44,0,0,1,41.22-4.32Q35.01.9,25.29.9A30.053,30.053,0,0,1,11.61-2.173a20.336,20.336,0,0,1-9-8.267l8.01-4.14a11.772,11.772,0,0,0,5.715,4.995A21.683,21.683,0,0,0,25.29-7.83q13.05,0,13.05-10.005a7.2,7.2,0,0,0-.675-3.245,8.265,8.265,0,0,0-2.025-2.525q-3.24-2.7-11.61-4.867a55.089,55.089,0,0,1-8.55-2.795,22.056,22.056,0,0,1-5.85-3.6,14.891,14.891,0,0,1-5.67-12.17,17,17,0,0,1,1.485-7.076A17.1,17.1,0,0,1,9.63-59.843a18.545,18.545,0,0,1,6.525-3.65A26.464,26.464,0,0,1,24.39-64.71a28.867,28.867,0,0,1,12.1,2.52,18.813,18.813,0,0,1,8.415,7.11l-7.29,4.5a14.534,14.534,0,0,0-6.03-4.455,20.023,20.023,0,0,0-7.2-1.305,13.213,13.213,0,0,0-4.95.9,14.2,14.2,0,0,0-3.78,2.16,6.351,6.351,0,0,0-1.845,2.655,9.615,9.615,0,0,0-.585,3.375,8.369,8.369,0,0,0,.36,2.385,6.066,6.066,0,0,0,1.71,2.52,14.567,14.567,0,0,0,3.96,2.52,43.151,43.151,0,0,0,7.11,2.385,61.461,61.461,0,0,1,9.09,2.925,23.859,23.859,0,0,1,6.21,3.735A15.8,15.8,0,0,1,47.61-17.91ZM69.93-55.35H52.65v-8.46h44.1v8.46H79.38V0H69.93Z" transform="translate(683.951 152.659)" fill="#fff"/>
      <path id="Pfad_91" data-name="Pfad 91" d="M11.1-63.7H36.309a36.886,36.886,0,0,1,17.609,4.1A29.927,29.927,0,0,1,65.884-48.276,31.66,31.66,0,0,1,70.161-31.85a31.66,31.66,0,0,1-4.277,16.426A29.927,29.927,0,0,1,53.918-4.1,36.886,36.886,0,0,1,36.309,0H11.1ZM35.945-4.186a33.24,33.24,0,0,0,15.561-3.5A25.058,25.058,0,0,0,61.88-17.472,28.142,28.142,0,0,0,65.52-31.85a28.142,28.142,0,0,0-3.64-14.378,25.058,25.058,0,0,0-10.374-9.783,33.24,33.24,0,0,0-15.561-3.5h-20.2V-4.186Zm81.809-28.665q6.825,1.274,10.419,5.369a15.549,15.549,0,0,1,3.595,10.647q0,8.1-5.915,12.467T108.29,0H79.9V-63.7H106.47q10.374,0,16.152,4.232T128.4-47.411a14.638,14.638,0,0,1-2.867,9.191A15.835,15.835,0,0,1,117.754-32.851ZM84.539-59.7v25.389h21.749q8.372,0,12.876-3.231t4.5-9.509q0-6.188-4.5-9.419T106.288-59.7ZM108.29-4q9.282,0,14.06-3.231t4.777-9.965q0-6.734-4.777-9.919T108.29-30.3H84.539V-4Z" transform="translate(950.951 152.659)" fill="#006cf9"/>
      <path id="Pfad_90" data-name="Pfad 90" d="M17.73-55.35H.45v-8.46h44.1v8.46H27.18V0H17.73ZM94.59-17.91A17.521,17.521,0,0,1,92.97-10.4,17.44,17.44,0,0,1,88.2-4.32Q81.99.9,72.27.9A30.053,30.053,0,0,1,58.59-2.173a20.336,20.336,0,0,1-9-8.267l8.01-4.14a11.772,11.772,0,0,0,5.715,4.995A21.683,21.683,0,0,0,72.27-7.83q13.05,0,13.05-10.005a7.2,7.2,0,0,0-.675-3.245,8.265,8.265,0,0,0-2.025-2.525q-3.24-2.7-11.61-4.867a55.089,55.089,0,0,1-8.55-2.795,22.056,22.056,0,0,1-5.85-3.6,14.891,14.891,0,0,1-5.67-12.17,17,17,0,0,1,1.485-7.076,17.1,17.1,0,0,1,4.185-5.725,18.545,18.545,0,0,1,6.525-3.65A26.464,26.464,0,0,1,71.37-64.71a28.867,28.867,0,0,1,12.1,2.52,18.813,18.813,0,0,1,8.415,7.11l-7.29,4.5a14.534,14.534,0,0,0-6.03-4.455,20.023,20.023,0,0,0-7.2-1.305,13.213,13.213,0,0,0-4.95.9,14.2,14.2,0,0,0-3.78,2.16A6.351,6.351,0,0,0,60.8-50.625a9.615,9.615,0,0,0-.585,3.375,8.369,8.369,0,0,0,.36,2.385,6.066,6.066,0,0,0,1.71,2.52,14.567,14.567,0,0,0,3.96,2.52,43.151,43.151,0,0,0,7.11,2.385,61.46,61.46,0,0,1,9.09,2.925,23.859,23.859,0,0,1,6.21,3.735A15.8,15.8,0,0,1,94.59-17.91Z" transform="translate(851.951 152.659)" fill="#fff"/>
    </g>
    <g id="Gruppe_129" data-name="Gruppe 129" transform="translate(-154.027 -1535.314)">
      <rect id="Rechteck_111" data-name="Rechteck 111" width="12" height="64" transform="translate(364.027 2112.314)" fill="#006cf9"/>
      <rect id="Rechteck_112" data-name="Rechteck 112" width="12" height="45" transform="translate(343.027 2131.314)" fill="#006cf9"/>
      <rect id="Rechteck_113" data-name="Rechteck 113" width="12" height="36" transform="translate(385.027 2140.314)" fill="#006cf9"/>
      <rect id="Rechteck_114" data-name="Rechteck 114" width="12" height="38" transform="translate(364.027 2112.314)" fill="#003f91"/>
      <rect id="Rechteck_115" data-name="Rechteck 115" width="12" height="10" transform="translate(343.027 2128.314)" fill="#003f91"/>
      <rect id="Rechteck_116" data-name="Rechteck 116" width="12" height="5" transform="translate(385.027 2140.314)" fill="#003f91"/>
    </g>
  </g>
</svg>
