<svg xmlns="http://www.w3.org/2000/svg" style="display: none;">
<symbol id="twitter" viewBox="0 0 512 512">
    <path fill="currentColor" d="M459.37 151.716c.325 4.548.325 9.097.325 13.645 0 138.72-105.583 298.558-298.558 298.558-59.452 0-114.68-17.219-161.137-47.106 8.447.974 16.568 1.299 25.34 1.299 49.055 0 94.213-16.568 130.274-44.832-46.132-.975-84.792-31.188-98.112-72.772 6.498.974 12.995 1.624 19.818 1.624 9.421 0 18.843-1.3 27.614-3.573-48.081-9.747-84.143-51.98-84.143-102.985v-1.299c13.969 7.797 30.214 12.67 47.431 13.319-28.264-18.843-46.781-51.005-46.781-87.391 0-19.492 5.197-37.36 14.294-52.954 51.655 63.675 129.3 105.258 216.365 109.807-1.624-7.797-2.599-15.918-2.599-24.04 0-57.828 46.782-104.934 104.934-104.934 30.213 0 57.502 12.67 76.67 33.137 23.715-4.548 46.456-13.32 66.599-25.34-7.798 24.366-24.366 44.833-46.132 57.827 21.117-2.273 41.584-8.122 60.426-16.243-14.292 20.791-32.161 39.308-52.628 54.253z"></path>
</symbol>
<symbol id="discord" viewBox="0 0 448 512">
    <path fill="currentColor" d="M297.216 243.2c0 15.616-11.52 28.416-26.112 28.416-14.336 0-26.112-12.8-26.112-28.416s11.52-28.416 26.112-28.416c14.592 0 26.112 12.8 26.112 28.416zm-119.552-28.416c-14.592 0-26.112 12.8-26.112 28.416s11.776 28.416 26.112 28.416c14.592 0 26.112-12.8 26.112-28.416.256-15.616-11.52-28.416-26.112-28.416zM448 52.736V512c-64.494-56.994-43.868-38.128-118.784-107.776l13.568 47.36H52.48C23.552 451.584 0 428.032 0 398.848V52.736C0 23.552 23.552 0 52.48 0h343.04C424.448 0 448 23.552 448 52.736zm-72.96 242.688c0-82.432-36.864-149.248-36.864-149.248-36.864-27.648-71.936-26.88-71.936-26.88l-3.584 4.096c43.52 13.312 63.744 32.512 63.744 32.512-60.811-33.329-132.244-33.335-191.232-7.424-9.472 4.352-15.104 7.424-15.104 7.424s21.248-20.224 67.328-33.536l-2.56-3.072s-35.072-.768-71.936 26.88c0 0-36.864 66.816-36.864 149.248 0 0 21.504 37.12 78.08 38.912 0 0 9.472-11.52 17.152-21.248-32.512-9.728-44.8-30.208-44.8-30.208 3.766 2.636 9.976 6.053 10.496 6.4 43.21 24.198 104.588 32.126 159.744 8.96 8.96-3.328 18.944-8.192 29.44-15.104 0 0-12.8 20.992-46.336 30.464 7.68 9.728 16.896 20.736 16.896 20.736 56.576-1.792 78.336-38.912 78.336-38.912z"></path>
</symbol>
<symbol id="statsdb" viewBox="0 0 27.922 13.075">
    <g transform="translate(-10.381 -266.121)">
        <path d="M21.881,272.943a1.311,1.311,0,0,0-.325.038.985.985,0,0,0-.262.108.932.932,0,0,0-.2.165,1.1,1.1,0,0,0-.154.212,1.462,1.462,0,0,0-.109.248,2.026,2.026,0,0,0-.07.272,3.141,3.141,0,0,0-.05.574v1.194a2.853,2.853,0,0,0,.078.708,1.622,1.622,0,0,0,.1.278,1.186,1.186,0,0,0,.137.228.977.977,0,0,0,.391.3,1.182,1.182,0,0,0,.254.076,1.612,1.612,0,0,0,.293.025,1.4,1.4,0,0,0,.275-.025,1.063,1.063,0,0,0,.239-.076.915.915,0,0,0,.2-.126.959.959,0,0,0,.165-.177,1.205,1.205,0,0,0,.129-.228,1.693,1.693,0,0,0,.092-.278,3.032,3.032,0,0,0,.073-.708v-1.194a2.852,2.852,0,0,0-.078-.708,1.622,1.622,0,0,0-.1-.278,1.186,1.186,0,0,0-.137-.228.973.973,0,0,0-.391-.3,1.18,1.18,0,0,0-.254-.076,1.62,1.62,0,0,0-.293-.025Z" fill="#fff"/>
        <path d="M28.518,266.844l-5.765,0c.01,0,.021,0,.031,0a2.685,2.685,0,0,1,1.021.424,3.181,3.181,0,0,1,.816.816,2.7,2.7,0,0,1,.424,1.021,3.055,3.055,0,0,1,.053.575v.617H23.172a3.365,3.365,0,0,0-.064-.784,1.848,1.848,0,0,0-.094-.308,1.3,1.3,0,0,0-.136-.252,1.028,1.028,0,0,0-.177-.2.974.974,0,0,0-.219-.14,1.14,1.14,0,0,0-.26-.084,1.551,1.551,0,0,0-.3-.028,1.616,1.616,0,0,0-.329.031,1.089,1.089,0,0,0-.273.094.868.868,0,0,0-.218.156.915.915,0,0,0-.162.219,1.443,1.443,0,0,0-.145.453,3.97,3.97,0,0,0-.048.665l.019,1.445a.961.961,0,0,1,.2-.152,1.236,1.236,0,0,1,.249-.108,1.776,1.776,0,0,1,.3-.065,2.664,2.664,0,0,1,.35-.022,4.31,4.31,0,0,1,.655.048,3.526,3.526,0,0,1,.6.144,3.137,3.137,0,0,1,.539.241,3.091,3.091,0,0,1,.482.337,2.567,2.567,0,0,1,.4.421,2.409,2.409,0,0,1,.289.493,2.668,2.668,0,0,1,.173.566,3.38,3.38,0,0,1,.058.638v2.157a3.059,3.059,0,0,1-.053.575,2.692,2.692,0,0,1-.424,1.021,3.179,3.179,0,0,1-.816.816,2.523,2.523,0,0,1-.951.4h6.06a2.267,2.267,0,0,0,1.805-.733,2.736,2.736,0,0,0,.658-1.9V269.65a2.8,2.8,0,0,0-2.821-2.806Zm-1.429,1.64h.921a1.528,1.528,0,0,1,1.222.376,2.234,2.234,0,0,1,.226,1.222v5.867a2.488,2.488,0,0,1-.188,1.109,1,1,0,0,1-.959.47l-1.222-.019Z" fill="#fff"/>
        <path d="M15.236,274.537a2.87,2.87,0,0,1,1.216.211,1.413,1.413,0,0,1,.64,1.355q0,.019-.019,2.992h1.9V275.67a1.774,1.774,0,0,0-.4-1.073,2.382,2.382,0,0,0-.922-.79,1.722,1.722,0,0,0,.847-.866,2.407,2.407,0,0,0,.339-1.185v-2.108a2.8,2.8,0,0,0-2.823-2.8H14.025c.007.014.016.028.024.042q.15.3.274.618t.224.652c.032.106.055.217.083.325h.843q.96-.019,1.242.376a2.092,2.092,0,0,1,.245,1.223v1.167a2.292,2.292,0,0,1-.207,1.11.96.96,0,0,1-.941.47l-.577-.009Z" fill="#fff"/>
        <path d="M38.3,276.518a2.783,2.783,0,0,1-.669,1.932,2.342,2.342,0,0,1-1.836.746H32.048V266.744l3.386-.019a2.873,2.873,0,0,1,2.869,2.869v1.568a2.518,2.518,0,0,1-.325,1.129,1.624,1.624,0,0,1-.727.822,1.732,1.732,0,0,1,.746.765,2.216,2.216,0,0,1,.306,1.071Zm-1.913-5.872v-.612a2.272,2.272,0,0,0-.23-1.243,1.584,1.584,0,0,0-1.262-.383H33.98v3.864l.861.019a1.618,1.618,0,0,0,1.243-.325,2.107,2.107,0,0,0,.306-1.32Zm0,5.356v-.746q0-1.415-.669-1.415H33.98v3.749l1.243.019a1.019,1.019,0,0,0,.975-.478A2.457,2.457,0,0,0,36.39,276Z" fill="#fff"/>
        <path d="M12.281,266.121l-.234.3h0a7.563,7.563,0,0,0-1.374,4.609v0a4.761,4.761,0,0,1-.016.584.908.908,0,0,1-.1.292l-.179.4v6.79l1.9,0,1.9,0v-6.79l-.179-.4a.911.911,0,0,1-.1-.292,4.8,4.8,0,0,1-.015-.584v0a7.563,7.563,0,0,0-1.374-4.609h0Zm0,1.985a2.822,2.822,0,0,1,.341.638,5.127,5.127,0,0,1,.279,1.283h-1.24a5.127,5.127,0,0,1,.279-1.283,2.823,2.823,0,0,1,.341-.638Zm-.657,3h1.315a3.075,3.075,0,0,0,.156,1.051l.034,3.216h-.36v1.155h.372l0,.406H11.419l0-.406h.37V275.37h-.358l.034-3.216a6.3,6.3,0,0,0,.156-1.051Zm-.213,6.811h1.741l0,.4h-1.75Z" fill="#006cf9"/>
        <path d="M36.632,277.36l0-.008-.015.038c.005-.009.008-.02.013-.03Z" fill="#0e0e0f" opacity="0.1"/>
    </g>
</symbol>
</svg>
