<svg width="472" height="436" viewBox="0 0 472 436" fill="none" xmlns="http://www.w3.org/2000/svg">
<path fill-rule="evenodd" clip-rule="evenodd" d="M146 311V61C152 -6 236 1 236 1C236 1 321 -6 326 61V105.5C326 105.75 326 105.875 325.938 105.937C325.875 106 325.75 106 325.5 106H250.5C250.25 106 250.125 106 250.062 105.937C250 105.875 250 105.75 250 105.5V76C250 67 245 64 236 64C227 64 222 67 222 76V130C222 130.5 222.522 131.872 224 130C231.5 120.5 256 120.5 264 120.5C304 120.5 326 140.5 326 158V311C320 376 236 368 236 368C236 368 152 374 146 311ZM205 321V206.5C205 206.25 205 206.125 204.938 206.063C204.875 206 204.75 206 204.5 206H203C202.75 206 202.625 206 202.562 205.938C202.5 205.875 202.5 205.75 202.5 205.5V202C202.5 201.75 202.5 201.625 202.562 201.563C202.625 201.5 202.75 201.5 203 201.5H205C205.25 201.5 205.375 201.5 205.438 201.438C205.5 201.375 205.5 201.25 205.5 201C205.5 195.5 210.5 194.5 213.5 194.5H229C229.768 194.5 230.461 196.121 231.026 197.441C231.196 197.839 231.355 198.209 231.5 198.5C232.5 200.5 233 201.5 234 201.5H245C245.655 201.5 250.977 199.404 256.975 197.042L256.976 197.042L256.977 197.042C264.721 193.993 273.591 190.5 275 190.5H281.5C286.5 190.5 289 198 289 199V220.679C289 222.885 280.256 224.185 270.665 225.61L270.664 225.611C265.82 226.331 260.759 227.083 256.5 228C254 228.538 251.5 230.5 251.5 232V257C251.5 260.5 250 261.5 246 261.5H243C239.5 261.5 229.5 267 229.5 270.5V324.5C229.5 328 227 329.5 224 329.5H220C218.828 329.5 218.515 330.015 218.255 330.441C218.071 330.743 217.914 331 217.5 331H209C208 331 205 330 205 327C205 326.75 205 326.625 204.938 326.562C204.875 326.5 204.75 326.5 204.5 326.5H203C202.75 326.5 202.625 326.5 202.562 326.437C202.5 326.375 202.5 326.25 202.5 326V324.5C202.5 324 203.5 323 204.5 322C204.788 321.712 204.91 321.59 204.962 321.443C205 321.335 205 321.212 205 321ZM230.5 242.5V256.5C230.5 258 231.5 259 233 259H247.5C249 259 250 258 250 256.5V235.5C250 234 247 230.5 246 230.5H242.5C242.25 230.5 242.125 230.5 242.062 230.563C242 230.625 242 230.75 242 231V232.5C242 232.75 242 232.875 242.062 232.938C242.125 233 242.25 233 242.5 233H243C244 233 248 237 248 238V239C248 239.25 248 239.375 247.938 239.438C247.875 239.5 247.75 239.5 247.5 239.5H246.5C246.293 239.5 245.914 239.157 245.471 238.755L245.471 238.755C244.843 238.186 244.086 237.5 243.5 237.5H236.5C234 237.5 230.5 240.5 230.5 242.5Z" fill="#FFD800"/>
<path d="M75.7067 83.8823C78.6127 56.6773 88.9184 39.5229 111.777 23.8419C108.871 51.047 98.565 68.2014 75.7067 83.8823Z" fill="#FFD800"/>
<path d="M57.3205 111.993C51.6775 85.2216 56.1778 65.7222 73.0716 43.7451C78.7147 70.5167 74.2144 90.0161 57.3205 111.993Z" fill="#FFD800"/>
<path d="M50.9839 136.995C59.4826 110.989 73.1297 96.3522 98.7487 85.7664C90.25 111.773 76.6029 126.41 50.9839 136.995Z" fill="#FFD800"/>
<path d="M45.3514 139.226C32.5477 115.047 31.4989 95.0628 41.6806 69.2805C54.4843 93.4595 55.5331 113.444 45.3514 139.226Z" fill="#FFD800"/>
<path d="M48.0158 195.171C47.5847 167.815 55.723 149.533 76.4998 131.183C76.931 158.539 68.7927 176.822 48.0158 195.171Z" fill="#FFD800"/>
<path d="M44.8039 172.317C25.1551 153.278 17.9821 134.596 19.6983 106.929C39.3471 125.968 46.5201 144.65 44.8039 172.317Z" fill="#FFD800"/>
<path d="M47.1203 206.179C23.9424 191.641 13.0419 174.859 8.96836 147.44C32.1462 161.978 43.0468 178.76 47.1203 206.179Z" fill="#FFD800"/>
<path d="M61.3832 257.557C49.8625 232.741 49.8611 212.729 61.3781 187.515C72.8989 212.331 72.9003 232.343 61.3832 257.557Z" fill="#FFD800"/>
<path d="M45.3745 243.542C23.2672 227.423 13.5639 209.921 11.4129 182.284C33.5202 198.404 43.2235 215.906 45.3745 243.542Z" fill="#FFD800"/>
<path d="M66.0305 272.394C38.8803 269.014 21.9084 258.41 6.62875 235.282C33.7789 238.662 50.7509 249.266 66.0305 272.394Z" fill="#FFD800"/>
<path d="M85.26 293.68C70.3977 270.709 67.6111 250.892 75.5069 224.32C90.3693 247.291 93.1558 267.108 85.26 293.68Z" fill="#FFD800"/>
<path d="M93.7816 319.864C67.3661 312.738 52.0351 299.875 40.123 274.845C66.5385 281.971 81.8696 294.834 93.7816 319.864Z" fill="#FFD800"/>
<path d="M124.603 345.922C103.674 328.3 95.2149 310.164 94.997 282.445C115.926 300.067 124.385 318.203 124.603 345.922Z" fill="#FFD800"/>
<path d="M109.8 342.897C82.5402 345.236 63.7345 338.392 43.9801 318.946C71.2398 316.608 90.0455 323.451 109.8 342.897Z" fill="#FFD800"/>
<path d="M147.718 359.66C122.704 370.746 102.695 370.398 77.6862 358.443C102.699 347.357 122.708 347.705 147.718 359.66Z" fill="#FFD800"/>
<path fill-rule="evenodd" clip-rule="evenodd" d="M172.673 373.971C190.461 379.15 197.427 381.732 210.05 389.5L206.55 393C197.55 387.5 191.05 385 178.55 381C176.326 380.288 173.981 380.646 171.996 380.949C171.674 380.998 171.361 381.046 171.06 381.087C150.817 389.585 132.769 389.231 110.33 380.369C132.081 368.852 150.437 366.846 172.673 373.971Z" fill="#FFD800"/>
<path d="M396.293 84.1385C393.387 56.9335 383.082 39.7791 360.223 24.0981C363.129 51.3032 373.435 68.4576 396.293 84.1385Z" fill="#FFD800"/>
<path d="M414.679 112.249C420.323 85.4779 415.822 65.9784 398.928 44.0014C393.285 70.7729 397.786 90.2723 414.679 112.249Z" fill="#FFD800"/>
<path d="M421.016 137.252C412.517 111.245 398.87 96.6084 373.251 86.0227C381.75 112.029 395.397 126.666 421.016 137.252Z" fill="#FFD800"/>
<path d="M426.649 139.482C439.452 115.303 440.501 95.319 430.319 69.5367C417.516 93.7157 416.467 113.7 426.649 139.482Z" fill="#FFD800"/>
<path d="M423.984 195.428C424.415 168.071 416.277 149.789 395.5 131.439C395.069 158.795 403.207 177.078 423.984 195.428Z" fill="#FFD800"/>
<path d="M427.196 172.573C446.845 153.534 454.018 134.852 452.302 107.185C432.653 126.224 425.48 144.906 427.196 172.573Z" fill="#FFD800"/>
<path d="M424.88 206.435C448.058 191.898 458.958 175.115 463.032 147.696C439.854 162.234 428.953 179.016 424.88 206.435Z" fill="#FFD800"/>
<path d="M410.617 257.813C422.137 232.997 422.139 212.985 410.622 187.771C399.101 212.587 399.1 232.599 410.617 257.813Z" fill="#FFD800"/>
<path d="M426.626 243.798C448.733 227.679 458.436 210.177 460.587 182.541C438.48 198.66 428.776 216.162 426.626 243.798Z" fill="#FFD800"/>
<path d="M405.97 272.651C433.12 269.27 450.092 258.667 465.371 235.538C438.221 238.919 421.249 249.522 405.97 272.651Z" fill="#FFD800"/>
<path d="M386.74 293.936C401.602 270.965 404.389 251.148 396.493 224.577C381.631 247.548 378.844 267.365 386.74 293.936Z" fill="#FFD800"/>
<path d="M378.218 320.12C404.634 312.994 419.965 300.132 431.877 275.102C405.461 282.228 390.13 295.09 378.218 320.12Z" fill="#FFD800"/>
<path d="M347.397 346.178C368.326 328.556 376.785 310.42 377.003 282.701C356.074 300.323 347.615 318.459 347.397 346.178Z" fill="#FFD800"/>
<path d="M362.2 343.153C389.46 345.492 408.265 338.649 428.02 319.202C400.76 316.864 381.955 323.707 362.2 343.153Z" fill="#FFD800"/>
<path d="M324.282 359.916C349.296 371.002 369.305 370.654 394.314 358.699C369.301 347.613 349.292 347.961 324.282 359.916Z" fill="#FFD800"/>
<path fill-rule="evenodd" clip-rule="evenodd" d="M299.327 374.227C281.539 379.406 274.573 381.988 261.95 389.756L265.45 393.256C274.45 387.756 280.95 385.256 293.45 381.256C295.674 380.545 298.019 380.903 300.004 381.205C300.326 381.255 300.639 381.302 300.94 381.344C321.183 389.842 339.231 389.487 361.67 380.626C339.919 369.108 321.563 367.102 299.327 374.227Z" fill="#FFD800"/>
<path d="M180 395L183.592 406.056H195.217L185.812 412.889L189.405 423.944L180 417.111L170.595 423.944L174.188 412.889L164.783 406.056H176.408L180 395Z" fill="#FFD800"/>
<path d="M216 404L219.592 415.056H231.217L221.812 421.889L225.405 432.944L216 426.111L206.595 432.944L210.188 421.889L200.783 415.056H212.408L216 404Z" fill="#FFD800"/>
<path d="M292 395L295.592 406.056H307.217L297.812 412.889L301.405 423.944L292 417.111L282.595 423.944L286.188 412.889L276.783 406.056H288.408L292 395Z" fill="#FFD800"/>
<path d="M256 404L259.592 415.056H271.217L261.812 421.889L265.405 432.944L256 426.111L246.595 432.944L250.188 421.889L240.783 415.056H252.408L256 404Z" fill="#FFD800"/>
</svg>
