<svg width="282" height="311" viewBox="0 0 282 311" fill="none" xmlns="http://www.w3.org/2000/svg">
<path d="M4.92 267.19H39.84V255.19H18.12V183.19H4.92V267.19ZM64.7813 268.39C77.7413 268.39 84.8213 260.71 84.8213 247.27V203.11C84.8213 189.67 77.7413 181.99 64.7813 181.99C51.8213 181.99 44.7412 189.67 44.7412 203.11V247.27C44.7412 260.71 51.8213 268.39 64.7813 268.39ZM64.7813 256.39C60.5813 256.39 57.9413 254.11 57.9413 248.11V202.27C57.9413 196.27 60.5813 193.99 64.7813 193.99C68.9813 193.99 71.6212 196.27 71.6212 202.27V248.11C71.6212 254.11 68.9813 256.39 64.7813 256.39ZM112.828 268.39C125.788 268.39 132.868 260.71 132.868 247.27V203.11C132.868 189.67 125.788 181.99 112.828 181.99C99.8681 181.99 92.7881 189.67 92.7881 203.11V247.27C92.7881 260.71 99.8681 268.39 112.828 268.39ZM112.828 256.39C108.628 256.39 105.988 254.11 105.988 248.11V202.27C105.988 196.27 108.628 193.99 112.828 193.99C117.028 193.99 119.668 196.27 119.668 202.27V248.11C119.668 254.11 117.028 256.39 112.828 256.39ZM141.795 267.19H154.995V240.43L160.275 229.75L171.435 267.19H185.235L169.275 214.03L184.995 183.19H171.795L154.995 218.59V183.19H141.795V267.19ZM210.565 268.39C223.525 268.39 230.245 260.71 230.245 247.27V183.19H217.525V248.23C217.525 254.23 215.005 256.39 210.805 256.39C206.605 256.39 204.085 254.23 204.085 248.23V183.19H190.885V247.27C190.885 260.71 197.605 268.39 210.565 268.39ZM239.647 267.19H252.847V232.99H259.087C272.287 232.99 278.767 225.67 278.767 212.23V203.95C278.767 190.51 272.287 183.19 259.087 183.19H239.647V267.19ZM252.847 220.99V195.19H259.087C263.287 195.19 265.567 197.11 265.567 203.11V213.07C265.567 219.07 263.287 220.99 259.087 220.99H252.847Z" fill="#D3D3D3"/>
<path d="M4.92 267.19H4.72V267.39H4.92V267.19ZM39.84 267.19V267.39H40.04V267.19H39.84ZM39.84 255.19H40.04V254.99H39.84V255.19ZM18.12 255.19H17.92V255.39H18.12V255.19ZM18.12 183.19H18.32V182.99H18.12V183.19ZM4.92 183.19V182.99H4.72V183.19H4.92ZM4.92 267.39H39.84V266.99H4.92V267.39ZM40.04 267.19V255.19H39.64V267.19H40.04ZM39.84 254.99H18.12V255.39H39.84V254.99ZM18.32 255.19V183.19H17.92V255.19H18.32ZM18.12 182.99H4.92V183.39H18.12V182.99ZM4.72 183.19V267.19H5.12V183.19H4.72ZM64.7813 268.59C71.3011 268.59 76.3697 266.657 79.8069 263.007C83.2422 259.359 85.0213 254.023 85.0213 247.27H84.6213C84.6213 253.956 82.8603 259.181 79.5156 262.733C76.1728 266.283 71.2214 268.19 64.7813 268.19V268.59ZM85.0213 247.27V203.11H84.6213V247.27H85.0213ZM85.0213 203.11C85.0213 196.356 83.2422 191.021 79.8069 187.373C76.3697 183.723 71.3011 181.79 64.7813 181.79V182.19C71.2214 182.19 76.1728 184.097 79.5156 187.647C82.8603 191.199 84.6213 196.423 84.6213 203.11H85.0213ZM64.7813 181.79C58.2614 181.79 53.1928 183.723 49.7556 187.373C46.3203 191.021 44.5412 196.356 44.5412 203.11H44.9412C44.9412 196.423 46.7022 191.199 50.0469 187.647C53.3897 184.097 58.3411 182.19 64.7813 182.19V181.79ZM44.5412 203.11V247.27H44.9412V203.11H44.5412ZM44.5412 247.27C44.5412 254.023 46.3203 259.359 49.7556 263.007C53.1928 266.657 58.2614 268.59 64.7813 268.59V268.19C58.3411 268.19 53.3897 266.283 50.0469 262.733C46.7022 259.181 44.9412 253.956 44.9412 247.27H44.5412ZM64.7813 256.19C62.7167 256.19 61.0699 255.63 59.9351 254.366C58.7964 253.098 58.1413 251.085 58.1413 248.11H57.7413C57.7413 251.135 58.4061 253.262 59.6374 254.633C60.8726 256.009 62.6458 256.59 64.7813 256.59V256.19ZM58.1413 248.11V202.27H57.7413V248.11H58.1413ZM58.1413 202.27C58.1413 199.295 58.7964 197.282 59.9351 196.013C61.0699 194.749 62.7167 194.19 64.7813 194.19V193.79C62.6458 193.79 60.8726 194.37 59.6374 195.746C58.4061 197.118 57.7413 199.245 57.7413 202.27H58.1413ZM64.7813 194.19C66.8458 194.19 68.4926 194.749 69.6274 196.013C70.7661 197.282 71.4212 199.295 71.4212 202.27H71.8212C71.8212 199.245 71.1564 197.118 69.9251 195.746C68.6899 194.37 66.9167 193.79 64.7813 193.79V194.19ZM71.4212 202.27V248.11H71.8212V202.27H71.4212ZM71.4212 248.11C71.4212 251.085 70.7661 253.098 69.6274 254.366C68.4926 255.63 66.8458 256.19 64.7813 256.19V256.59C66.9167 256.59 68.6899 256.009 69.9251 254.633C71.1564 253.262 71.8212 251.135 71.8212 248.11H71.4212ZM112.828 268.59C119.348 268.59 124.417 266.657 127.854 263.007C131.289 259.359 133.068 254.023 133.068 247.27H132.668C132.668 253.956 130.907 259.181 127.563 262.733C124.22 266.283 119.268 268.19 112.828 268.19V268.59ZM133.068 247.27V203.11H132.668V247.27H133.068ZM133.068 203.11C133.068 196.356 131.289 191.021 127.854 187.373C124.417 183.723 119.348 181.79 112.828 181.79V182.19C119.268 182.19 124.22 184.097 127.563 187.647C130.907 191.199 132.668 196.423 132.668 203.11H133.068ZM112.828 181.79C106.308 181.79 101.24 183.723 97.8025 187.373C94.3671 191.021 92.5881 196.356 92.5881 203.11H92.9881C92.9881 196.423 94.7491 191.199 98.0937 187.647C101.437 184.097 106.388 182.19 112.828 182.19V181.79ZM92.5881 203.11V247.27H92.9881V203.11H92.5881ZM92.5881 247.27C92.5881 254.023 94.3671 259.359 97.8025 263.007C101.24 266.657 106.308 268.59 112.828 268.59V268.19C106.388 268.19 101.437 266.283 98.0937 262.733C94.7491 259.181 92.9881 253.956 92.9881 247.27H92.5881ZM112.828 256.19C110.764 256.19 109.117 255.63 107.982 254.366C106.843 253.098 106.188 251.085 106.188 248.11H105.788C105.788 251.135 106.453 253.262 107.684 254.633C108.919 256.009 110.693 256.59 112.828 256.59V256.19ZM106.188 248.11V202.27H105.788V248.11H106.188ZM106.188 202.27C106.188 199.295 106.843 197.282 107.982 196.013C109.117 194.749 110.764 194.19 112.828 194.19V193.79C110.693 193.79 108.919 194.37 107.684 195.746C106.453 197.118 105.788 199.245 105.788 202.27H106.188ZM112.828 194.19C114.893 194.19 116.539 194.749 117.674 196.013C118.813 197.282 119.468 199.295 119.468 202.27H119.868C119.868 199.245 119.203 197.118 117.972 195.746C116.737 194.37 114.964 193.79 112.828 193.79V194.19ZM119.468 202.27V248.11H119.868V202.27H119.468ZM119.468 248.11C119.468 251.085 118.813 253.098 117.674 254.366C116.539 255.63 114.893 256.19 112.828 256.19V256.59C114.964 256.59 116.737 256.009 117.972 254.633C119.203 253.262 119.868 251.135 119.868 248.11H119.468ZM141.795 267.19H141.595V267.39H141.795V267.19ZM154.995 267.19V267.39H155.195V267.19H154.995ZM154.995 240.43L154.816 240.341L154.795 240.383V240.43H154.995ZM160.275 229.75L160.467 229.693L160.321 229.205L160.096 229.661L160.275 229.75ZM171.435 267.19L171.243 267.247L171.286 267.39H171.435V267.19ZM185.235 267.19V267.39H185.504L185.427 267.132L185.235 267.19ZM169.275 214.03L169.097 213.939L169.06 214.01L169.083 214.087L169.275 214.03ZM184.995 183.19L185.173 183.281L185.321 182.99H184.995V183.19ZM171.795 183.19V182.99H171.669L171.614 183.104L171.795 183.19ZM154.995 218.59H154.795L155.176 218.676L154.995 218.59ZM154.995 183.19H155.195V182.99H154.995V183.19ZM141.795 183.19V182.99H141.595V183.19H141.795ZM141.795 267.39H154.995V266.99H141.795V267.39ZM155.195 267.19V240.43H154.795V267.19H155.195ZM155.174 240.518L160.454 229.838L160.096 229.661L154.816 240.341L155.174 240.518ZM160.083 229.807L171.243 267.247L171.627 267.133L160.467 229.693L160.083 229.807ZM171.435 267.39H185.235V266.99H171.435V267.39ZM185.427 267.132L169.467 213.972L169.083 214.087L185.043 267.247L185.427 267.132ZM169.453 214.121L185.173 183.281L184.817 183.099L169.097 213.939L169.453 214.121ZM184.995 182.99H171.795V183.39H184.995V182.99ZM171.614 183.104L154.814 218.504L155.176 218.676L171.976 183.276L171.614 183.104ZM155.195 218.59V183.19H154.795V218.59H155.195ZM154.995 182.99H141.795V183.39H154.995V182.99ZM141.595 183.19V267.19H141.995V183.19H141.595ZM230.245 183.19H230.445V182.99H230.245V183.19ZM217.525 183.19V182.99H217.325V183.19H217.525ZM204.085 183.19H204.285V182.99H204.085V183.19ZM190.885 183.19V182.99H190.685V183.19H190.885ZM210.565 268.59C217.085 268.59 222.065 266.657 225.413 263.005C228.758 259.356 230.445 254.021 230.445 247.27H230.045C230.045 253.959 228.373 259.184 225.118 262.735C221.865 266.283 217.005 268.19 210.565 268.19V268.59ZM230.445 247.27V183.19H230.045V247.27H230.445ZM230.245 182.99H217.525V183.39H230.245V182.99ZM217.325 183.19V248.23H217.725V183.19H217.325ZM217.325 248.23C217.325 251.207 216.699 253.189 215.591 254.426C214.488 255.659 212.873 256.19 210.805 256.19V256.59C212.938 256.59 214.683 256.041 215.889 254.693C217.091 253.351 217.725 251.252 217.725 248.23H217.325ZM210.805 256.19C208.738 256.19 207.123 255.659 206.019 254.426C204.911 253.189 204.285 251.207 204.285 248.23H203.885C203.885 251.252 204.519 253.351 205.721 254.693C206.928 256.041 208.673 256.59 210.805 256.59V256.19ZM204.285 248.23V183.19H203.885V248.23H204.285ZM204.085 182.99H190.885V183.39H204.085V182.99ZM190.685 183.19V247.27H191.085V183.19H190.685ZM190.685 247.27C190.685 254.021 192.373 259.356 195.718 263.005C199.065 266.657 204.045 268.59 210.565 268.59V268.19C204.125 268.19 199.265 266.283 196.013 262.735C192.758 259.184 191.085 253.959 191.085 247.27H190.685ZM239.647 267.19H239.447V267.39H239.647V267.19ZM252.847 267.19V267.39H253.047V267.19H252.847ZM252.847 232.99V232.79H252.647V232.99H252.847ZM239.647 183.19V182.99H239.447V183.19H239.647ZM252.847 220.99H252.647V221.19H252.847V220.99ZM252.847 195.19V194.99H252.647V195.19H252.847ZM239.647 267.39H252.847V266.99H239.647V267.39ZM253.047 267.19V232.99H252.647V267.19H253.047ZM252.847 233.19H259.087V232.79H252.847V233.19ZM259.087 233.19C265.723 233.19 270.704 231.349 274.023 227.786C277.34 224.226 278.967 218.979 278.967 212.23H278.567C278.567 218.921 276.953 224.054 273.73 227.514C270.509 230.971 265.65 232.79 259.087 232.79V233.19ZM278.967 212.23V203.95H278.567V212.23H278.967ZM278.967 203.95C278.967 197.201 277.34 191.954 274.023 188.393C270.704 184.831 265.723 182.99 259.087 182.99V183.39C265.65 183.39 270.509 185.209 273.73 188.666C276.953 192.126 278.567 197.259 278.567 203.95H278.967ZM259.087 182.99H239.647V183.39H259.087V182.99ZM239.447 183.19V267.19H239.847V183.19H239.447ZM253.047 220.99V195.19H252.647V220.99H253.047ZM252.847 195.39H259.087V194.99H252.847V195.39ZM259.087 195.39C261.16 195.39 262.711 195.864 263.752 197.033C264.799 198.208 265.367 200.128 265.367 203.11H265.767C265.767 200.092 265.195 198.052 264.051 196.767C262.902 195.476 261.213 194.99 259.087 194.99V195.39ZM265.367 203.11V213.07H265.767V203.11H265.367ZM265.367 213.07C265.367 216.052 264.799 217.972 263.752 219.147C262.711 220.316 261.16 220.79 259.087 220.79V221.19C261.213 221.19 262.902 220.704 264.051 219.413C265.195 218.128 265.767 216.088 265.767 213.07H265.367ZM259.087 220.79H252.847V221.19H259.087V220.79Z" fill="#A8A8A8"/>
<path d="M75.38 162H95.18V108H102.02C111.02 108 114.44 111.78 114.44 123.48V146.52C114.44 156.78 115.16 158.76 116.24 162H136.4C134.42 157.32 134.24 152.82 134.24 146.7V124.56C134.24 110.34 131 100.98 121.1 97.92V97.56C129.92 93.96 134.06 85.68 134.06 72.72V64.98C134.06 45.54 125.24 36 104.72 36H75.38V162ZM95.18 90V54H104.18C111.2 54 114.26 57.96 114.26 66.96V76.68C114.26 86.76 109.76 90 102.38 90H95.18ZM177.138 163.8C196.578 163.8 207.198 152.28 207.198 132.12V109.62C207.198 91.08 199.818 80.82 185.238 80.82C176.418 80.82 170.658 84.6 167.238 91.8H166.878V67.68C166.878 55.62 170.838 52.2 177.858 52.2C184.158 52.2 188.118 55.62 188.118 64.62V68.22H206.838V65.88C206.838 45.72 196.758 34.2 177.318 34.2C156.798 34.2 147.078 45.72 147.078 66.96V132.12C147.078 152.28 157.698 163.8 177.138 163.8ZM177.138 145.8C170.298 145.8 166.878 141.84 166.878 133.56V111.24C166.878 102.78 170.298 98.82 177.138 98.82C183.978 98.82 187.398 102.78 187.398 111.24V133.56C187.398 141.84 183.978 145.8 177.138 145.8Z" fill="#FFD800"/>
<path d="M75.38 162H74.98V162.4H75.38V162ZM95.18 162V162.4H95.58V162H95.18ZM95.18 108V107.6H94.78V108H95.18ZM116.24 162L115.861 162.126L115.952 162.4H116.24V162ZM136.4 162V162.4H137.004L136.768 161.844L136.4 162ZM121.1 97.92H120.7V98.215L120.982 98.3022L121.1 97.92ZM121.1 97.56L120.949 97.1897L120.7 97.2912V97.56H121.1ZM75.38 36V35.6H74.98V36H75.38ZM95.18 90H94.78V90.4H95.18V90ZM95.18 54V53.6H94.78V54H95.18ZM75.38 162.4H95.18V161.6H75.38V162.4ZM95.58 162V108H94.78V162H95.58ZM95.18 108.4H102.02V107.6H95.18V108.4ZM102.02 108.4C106.476 108.4 109.43 109.337 111.296 111.607C113.182 113.9 114.04 117.645 114.04 123.48H114.84C114.84 117.615 113.988 113.62 111.914 111.098C109.82 108.553 106.564 107.6 102.02 107.6V108.4ZM114.04 123.48V146.52H114.84V123.48H114.04ZM114.04 146.52C114.04 151.656 114.22 154.739 114.539 156.95C114.86 159.17 115.32 160.505 115.861 162.126L116.619 161.874C116.08 160.255 115.64 158.98 115.331 156.835C115.02 154.681 114.84 151.644 114.84 146.52H114.04ZM116.24 162.4H136.4V161.6H116.24V162.4ZM136.768 161.844C134.823 157.246 134.64 152.82 134.64 146.7H133.84C133.84 152.82 134.017 157.394 136.032 162.156L136.768 161.844ZM134.64 146.7V124.56H133.84V146.7H134.64ZM134.64 124.56C134.64 117.429 133.829 111.466 131.747 106.889C129.655 102.292 126.284 99.1037 121.218 97.5378L120.982 98.3022C125.816 99.7963 129.015 102.818 131.018 107.221C133.031 111.644 133.84 117.471 133.84 124.56H134.64ZM121.5 97.92V97.56H120.7V97.92H121.5ZM121.251 97.9303C125.749 96.0947 129.061 93.0589 131.243 88.8335C133.42 84.6178 134.46 79.2383 134.46 72.72H133.66C133.66 79.1617 132.63 84.4022 130.532 88.4665C128.439 92.5211 125.271 95.4253 120.949 97.1897L121.251 97.9303ZM134.46 72.72V64.98H133.66V72.72H134.46ZM134.46 64.98C134.46 55.2079 132.244 47.8393 127.369 42.9185C122.494 37.9971 115.034 35.6 104.72 35.6V36.4C114.926 36.4 122.136 38.7729 126.801 43.4815C131.466 48.1907 133.66 55.3121 133.66 64.98H134.46ZM104.72 35.6H75.38V36.4H104.72V35.6ZM74.98 36V162H75.78V36H74.98ZM95.58 90V54H94.78V90H95.58ZM95.18 54.4H104.18V53.6H95.18V54.4ZM104.18 54.4C107.613 54.4 109.995 55.3647 111.537 57.3503C113.097 59.3596 113.86 62.4898 113.86 66.96H114.66C114.66 62.4302 113.893 59.0804 112.168 56.8597C110.425 54.6153 107.767 53.6 104.18 53.6V54.4ZM113.86 66.96V76.68H114.66V66.96H113.86ZM113.86 76.68C113.86 81.6704 112.745 84.8756 110.803 86.8387C108.863 88.8 106.02 89.6 102.38 89.6V90.4C106.12 90.4 109.217 89.58 111.372 87.4013C113.525 85.2244 114.66 81.7696 114.66 76.68H113.86ZM102.38 89.6H95.18V90.4H102.38V89.6ZM167.238 91.8V92.2H167.49L167.599 91.9716L167.238 91.8ZM166.878 91.8H166.478V92.2H166.878V91.8ZM188.118 68.22H187.718V68.62H188.118V68.22ZM206.838 68.22V68.62H207.238V68.22H206.838ZM177.138 164.2C186.937 164.2 194.57 161.294 199.749 155.794C204.925 150.298 207.598 142.267 207.598 132.12H206.798C206.798 142.133 204.161 149.942 199.166 155.246C194.176 160.546 186.778 163.4 177.138 163.4V164.2ZM207.598 132.12V109.62H206.798V132.12H207.598ZM207.598 109.62C207.598 100.307 205.746 93.0072 202.005 88.0273C198.25 83.028 192.632 80.42 185.238 80.42V81.22C192.424 81.22 197.786 83.742 201.365 88.5077C204.96 93.2928 206.798 100.393 206.798 109.62H207.598ZM185.238 80.42C180.77 80.42 177.048 81.3779 174.002 83.2702C170.955 85.163 168.613 87.9727 166.876 91.6284L167.599 91.9716C169.283 88.4273 171.531 85.747 174.424 83.9498C177.318 82.1521 180.886 81.22 185.238 81.22V80.42ZM167.238 91.4H166.878V92.2H167.238V91.4ZM167.278 91.8V67.68H166.478V91.8H167.278ZM167.278 67.68C167.278 61.6753 168.267 57.9195 170.049 55.6655C171.81 53.4378 174.41 52.6 177.858 52.6V51.8C174.285 51.8 171.395 52.6722 169.421 55.1694C167.468 57.6405 166.478 61.6247 166.478 67.68H167.278ZM177.858 52.6C180.937 52.6 183.375 53.434 185.053 55.3022C186.737 57.1791 187.718 60.1697 187.718 64.62H188.518C188.518 60.0703 187.518 56.8509 185.648 54.7678C183.77 52.676 181.079 51.8 177.858 51.8V52.6ZM187.718 64.62V68.22H188.518V64.62H187.718ZM188.118 68.62H206.838V67.82H188.118V68.62ZM207.238 68.22V65.88H206.438V68.22H207.238ZM207.238 65.88C207.238 55.7383 204.702 47.7076 199.663 42.2097C194.618 36.7061 187.118 33.8 177.318 33.8V34.6C186.958 34.6 194.218 37.4539 199.073 42.7503C203.933 48.0524 206.438 55.8616 206.438 65.88H207.238ZM177.318 33.8C166.983 33.8 159.299 36.7029 154.206 42.347C149.119 47.9835 146.678 56.2866 146.678 66.96H147.478C147.478 56.3934 149.896 48.3165 154.8 42.883C159.696 37.4571 167.132 34.6 177.318 34.6V33.8ZM146.678 66.96V132.12H147.478V66.96H146.678ZM146.678 132.12C146.678 142.267 149.351 150.298 154.526 155.794C159.706 161.294 167.338 164.2 177.138 164.2V163.4C167.497 163.4 160.1 160.546 155.109 155.246C150.115 149.942 147.478 142.133 147.478 132.12H146.678ZM177.138 145.4C173.796 145.4 171.36 144.436 169.748 142.527C168.125 140.605 167.278 137.655 167.278 133.56H166.478C166.478 137.745 167.34 140.915 169.137 143.043C170.945 145.184 173.639 146.2 177.138 146.2V145.4ZM167.278 133.56V111.24H166.478V133.56H167.278ZM167.278 111.24C167.278 107.053 168.126 104.058 169.75 102.114C171.361 100.184 173.796 99.22 177.138 99.22V98.42C173.639 98.42 170.944 99.4359 169.136 101.601C167.34 103.752 166.478 106.967 166.478 111.24H167.278ZM177.138 99.22C180.479 99.22 182.914 100.184 184.526 102.114C186.15 104.058 186.998 107.053 186.998 111.24H187.798C187.798 106.967 186.936 103.752 185.14 101.601C183.331 99.4359 180.636 98.42 177.138 98.42V99.22ZM186.998 111.24V133.56H187.798V111.24H186.998ZM186.998 133.56C186.998 137.655 186.15 140.605 184.527 142.527C182.915 144.436 180.479 145.4 177.138 145.4V146.2C180.636 146.2 183.33 145.184 185.138 143.043C186.935 140.915 187.798 137.745 187.798 133.56H186.998Z" fill="#BC9F00"/>
<path d="M48.984 302.427H51.624V295.227H52.536C53.736 295.227 54.192 295.731 54.192 297.291V300.363C54.192 301.731 54.288 301.995 54.432 302.427H57.12C56.856 301.803 56.832 301.203 56.832 300.387V297.435C56.832 295.539 56.4 294.291 55.08 293.883V293.835C56.256 293.355 56.808 292.251 56.808 290.523V289.491C56.808 286.899 55.632 285.627 52.896 285.627H48.984V302.427ZM51.624 292.827V288.027H52.824C53.76 288.027 54.168 288.555 54.168 289.755V291.051C54.168 292.395 53.568 292.827 52.584 292.827H51.624ZM63.8717 302.667C66.4637 302.667 67.8797 301.131 67.8797 298.443V295.443C67.8797 292.971 66.8957 291.603 64.9517 291.603C63.7757 291.603 63.0077 292.107 62.5517 293.067H62.5037V289.851C62.5037 288.243 63.0317 287.787 63.9677 287.787C64.8077 287.787 65.3357 288.243 65.3357 289.443V289.923H67.8317V289.611C67.8317 286.923 66.4877 285.387 63.8957 285.387C61.1597 285.387 59.8637 286.923 59.8637 289.755V298.443C59.8637 301.131 61.2797 302.667 63.8717 302.667ZM63.8717 300.267C62.9597 300.267 62.5037 299.739 62.5037 298.635V295.659C62.5037 294.531 62.9597 294.003 63.8717 294.003C64.7837 294.003 65.2397 294.531 65.2397 295.659V298.635C65.2397 299.739 64.7837 300.267 63.8717 300.267ZM76.0768 302.427H78.7168V295.587H79.9648C82.6048 295.587 83.9008 294.123 83.9008 291.435V289.779C83.9008 287.091 82.6048 285.627 79.9648 285.627H76.0768V302.427ZM78.7168 293.187V288.027H79.9648C80.8048 288.027 81.2608 288.411 81.2608 289.611V291.603C81.2608 292.803 80.8048 293.187 79.9648 293.187H78.7168ZM86.6546 302.427H93.6386V300.027H89.2946V285.627H86.6546V302.427ZM95.6224 302.427H98.0704L98.5504 299.139H101.55V299.091L102.03 302.427H104.67L101.934 285.627H98.3584L95.6224 302.427ZM98.8624 296.859L100.014 288.555H100.062L101.238 296.859H98.8624ZM108.594 302.427H111.234V295.275L114.426 285.627H111.858L110.058 291.795H110.01L108.21 285.627H105.402L108.594 295.275V302.427ZM116.935 302.427H124.135V300.027H119.575V294.867H123.199V292.467H119.575V288.027H124.135V285.627H116.935V302.427ZM126.974 302.427H129.614V295.227H130.526C131.726 295.227 132.182 295.731 132.182 297.291V300.363C132.182 301.731 132.278 301.995 132.422 302.427H135.11C134.846 301.803 134.822 301.203 134.822 300.387V297.435C134.822 295.539 134.39 294.291 133.07 293.883V293.835C134.246 293.355 134.798 292.251 134.798 290.523V289.491C134.798 286.899 133.622 285.627 130.886 285.627H126.974V302.427ZM129.614 292.827V288.027H130.814C131.75 288.027 132.158 288.555 132.158 289.755V291.051C132.158 292.395 131.558 292.827 130.574 292.827H129.614ZM146.569 302.667C149.161 302.667 150.553 301.131 150.553 298.395C150.553 296.307 149.857 294.963 147.649 293.019C145.921 291.507 145.369 290.619 145.369 289.395C145.369 288.243 145.849 287.787 146.689 287.787C147.529 287.787 148.009 288.243 148.009 289.443V290.307H150.505V289.611C150.505 286.923 149.233 285.387 146.665 285.387C144.097 285.387 142.729 286.923 142.729 289.563C142.729 291.483 143.449 292.851 145.657 294.795C147.385 296.307 147.913 297.195 147.913 298.587C147.913 299.835 147.385 300.267 146.545 300.267C145.705 300.267 145.177 299.835 145.177 298.635V297.483H142.681V298.443C142.681 301.131 143.977 302.667 146.569 302.667ZM155.451 302.427H158.091V288.027H160.851V285.627H152.691V288.027H155.451V302.427ZM161.651 302.427H164.099L164.579 299.139H167.579V299.091L168.059 302.427H170.699L167.963 285.627H164.387L161.651 302.427ZM164.891 296.859L166.043 288.555H166.091L167.267 296.859H164.891ZM174.263 302.427H176.903V288.027H179.663V285.627H171.503V288.027H174.263V302.427ZM182.261 302.427H184.901V285.627H182.261V302.427ZM191.63 302.667C194.222 302.667 195.614 301.131 195.614 298.395C195.614 296.307 194.918 294.963 192.71 293.019C190.982 291.507 190.43 290.619 190.43 289.395C190.43 288.243 190.91 287.787 191.75 287.787C192.59 287.787 193.07 288.243 193.07 289.443V290.307H195.566V289.611C195.566 286.923 194.294 285.387 191.726 285.387C189.158 285.387 187.79 286.923 187.79 289.563C187.79 291.483 188.51 292.851 190.718 294.795C192.446 296.307 192.974 297.195 192.974 298.587C192.974 299.835 192.446 300.267 191.606 300.267C190.766 300.267 190.238 299.835 190.238 298.635V297.483H187.742V298.443C187.742 301.131 189.038 302.667 191.63 302.667ZM200.512 302.427H203.152V288.027H205.912V285.627H197.752V288.027H200.512V302.427ZM208.51 302.427H211.15V285.627H208.51V302.427ZM218.167 302.667C220.711 302.667 222.055 301.131 222.055 298.539V296.163H219.559V298.731C219.559 299.835 219.031 300.267 218.239 300.267C217.447 300.267 216.919 299.835 216.919 298.731V289.347C216.919 288.243 217.447 287.787 218.239 287.787C219.031 287.787 219.559 288.243 219.559 289.347V291.291H222.055V289.515C222.055 286.923 220.711 285.387 218.167 285.387C215.623 285.387 214.279 286.923 214.279 289.515V298.539C214.279 301.131 215.623 302.667 218.167 302.667ZM228.434 302.667C231.026 302.667 232.418 301.131 232.418 298.395C232.418 296.307 231.722 294.963 229.514 293.019C227.786 291.507 227.234 290.619 227.234 289.395C227.234 288.243 227.714 287.787 228.554 287.787C229.394 287.787 229.874 288.243 229.874 289.443V290.307H232.37V289.611C232.37 286.923 231.098 285.387 228.53 285.387C225.962 285.387 224.594 286.923 224.594 289.563C224.594 291.483 225.314 292.851 227.522 294.795C229.25 296.307 229.778 297.195 229.778 298.587C229.778 299.835 229.25 300.267 228.41 300.267C227.57 300.267 227.042 299.835 227.042 298.635V297.483H224.546V298.443C224.546 301.131 225.842 302.667 228.434 302.667Z" fill="#FFD800"/>
<path d="M48.984 302.427H48.784V302.627H48.984V302.427ZM51.624 302.427V302.627H51.824V302.427H51.624ZM51.624 295.227V295.027H51.424V295.227H51.624ZM54.432 302.427L54.2423 302.49L54.2878 302.627H54.432V302.427ZM57.12 302.427V302.627H57.4218L57.3042 302.349L57.12 302.427ZM55.08 293.883H54.88V294.031L55.0209 294.074L55.08 293.883ZM55.08 293.835L55.0044 293.65L54.88 293.701V293.835H55.08ZM48.984 285.627V285.427H48.784V285.627H48.984ZM51.624 292.827H51.424V293.027H51.624V292.827ZM51.624 288.027V287.827H51.424V288.027H51.624ZM48.984 302.627H51.624V302.227H48.984V302.627ZM51.824 302.427V295.227H51.424V302.427H51.824ZM51.624 295.427H52.536V295.027H51.624V295.427ZM52.536 295.427C53.1141 295.427 53.4524 295.549 53.6595 295.801C53.8765 296.065 53.992 296.519 53.992 297.291H54.392C54.392 296.503 54.2795 295.925 53.9685 295.547C53.6476 295.157 53.1579 295.027 52.536 295.027V295.427ZM53.992 297.291V300.363H54.392V297.291H53.992ZM53.992 300.363C53.992 301.05 54.016 301.469 54.0601 301.775C54.1048 302.085 54.17 302.274 54.2423 302.49L54.6217 302.364C54.55 302.149 54.4952 301.989 54.4559 301.718C54.416 301.441 54.392 301.044 54.392 300.363H53.992ZM54.432 302.627H57.12V302.227H54.432V302.627ZM57.3042 302.349C57.0576 301.766 57.032 301.203 57.032 300.387H56.632C56.632 301.203 56.6544 301.84 56.9358 302.505L57.3042 302.349ZM57.032 300.387V297.435H56.632V300.387H57.032ZM57.032 297.435C57.032 296.476 56.9236 295.657 56.633 295.018C56.3379 294.37 55.857 293.914 55.1391 293.692L55.0209 294.074C55.623 294.26 56.0181 294.633 56.269 295.184C56.5244 295.745 56.632 296.498 56.632 297.435H57.032ZM55.28 293.883V293.835H54.88V293.883H55.28ZM55.1556 294.02C55.7873 293.762 56.2557 293.334 56.5627 292.739C56.8673 292.149 57.008 291.406 57.008 290.523H56.608C56.608 291.368 56.4727 292.041 56.2073 292.555C55.9443 293.065 55.5487 293.428 55.0044 293.65L55.1556 294.02ZM57.008 290.523V289.491H56.608V290.523H57.008ZM57.008 289.491C57.008 288.169 56.7085 287.141 56.0201 286.446C55.3314 285.751 54.2911 285.427 52.896 285.427V285.827C54.2369 285.827 55.1526 286.139 55.7359 286.728C56.3195 287.317 56.608 288.221 56.608 289.491H57.008ZM52.896 285.427H48.984V285.827H52.896V285.427ZM48.784 285.627V302.427H49.184V285.627H48.784ZM51.824 292.827V288.027H51.424V292.827H51.824ZM51.624 288.227H52.824V287.827H51.624V288.227ZM52.824 288.227C53.2536 288.227 53.5203 288.346 53.689 288.564C53.867 288.793 53.968 289.17 53.968 289.755H54.368C54.368 289.14 54.265 288.653 54.005 288.318C53.7357 287.972 53.3304 287.827 52.824 287.827V288.227ZM53.968 289.755V291.051H54.368V289.755H53.968ZM53.968 291.051C53.968 291.698 53.8229 292.08 53.6028 292.302C53.3836 292.524 53.0511 292.627 52.584 292.627V293.027C53.1009 293.027 53.5604 292.914 53.8872 292.584C54.2131 292.254 54.368 291.748 54.368 291.051H53.968ZM52.584 292.627H51.624V293.027H52.584V292.627ZM62.5517 293.067V293.267H62.6781L62.7323 293.153L62.5517 293.067ZM62.5037 293.067H62.3037V293.267H62.5037V293.067ZM65.3357 289.923H65.1357V290.123H65.3357V289.923ZM67.8317 289.923V290.123H68.0317V289.923H67.8317ZM63.8717 302.867C65.2075 302.867 66.2682 302.47 66.9933 301.7C67.7167 300.932 68.0797 299.82 68.0797 298.443H67.6797C67.6797 299.754 67.3347 300.754 66.7021 301.426C66.0712 302.096 65.1278 302.467 63.8717 302.467V302.867ZM68.0797 298.443V295.443H67.6797V298.443H68.0797ZM68.0797 295.443C68.0797 294.185 67.8302 293.176 67.3046 292.476C66.7718 291.767 65.9758 291.403 64.9517 291.403V291.803C65.8716 291.803 66.5396 292.124 66.9848 292.716C67.4372 293.319 67.6797 294.229 67.6797 295.443H68.0797ZM64.9517 291.403C64.3347 291.403 63.8102 291.536 63.3762 291.805C62.9417 292.075 62.6123 292.473 62.371 292.981L62.7323 293.153C62.9471 292.701 63.2297 292.367 63.5872 292.145C63.9451 291.923 64.3926 291.803 64.9517 291.803V291.403ZM62.5517 292.867H62.5037V293.267H62.5517V292.867ZM62.7037 293.067V289.851H62.3037V293.067H62.7037ZM62.7037 289.851C62.7037 289.06 62.8355 288.601 63.0416 288.34C63.2373 288.093 63.5309 287.987 63.9677 287.987V287.587C63.4685 287.587 63.0301 287.71 62.7278 288.092C62.4359 288.461 62.3037 289.034 62.3037 289.851H62.7037ZM63.9677 287.987C64.3522 287.987 64.631 288.091 64.8179 288.299C65.0086 288.511 65.1357 288.868 65.1357 289.443H65.5357C65.5357 288.818 65.3988 288.347 65.1155 288.031C64.8283 287.712 64.4231 287.587 63.9677 287.587V287.987ZM65.1357 289.443V289.923H65.5357V289.443H65.1357ZM65.3357 290.123H67.8317V289.723H65.3357V290.123ZM68.0317 289.923V289.611H67.6317V289.923H68.0317ZM68.0317 289.611C68.0317 288.236 67.688 287.125 66.9831 286.356C66.2756 285.584 65.2317 285.187 63.8957 285.187V285.587C65.1517 285.587 66.0758 285.958 66.6883 286.626C67.3034 287.297 67.6317 288.298 67.6317 289.611H68.0317ZM63.8957 285.187C62.4905 285.187 61.4205 285.583 60.7052 286.375C59.9934 287.164 59.6637 288.312 59.6637 289.755H60.0637C60.0637 288.366 60.382 287.33 61.0022 286.643C61.6189 285.96 62.5648 285.587 63.8957 285.587V285.187ZM59.6637 289.755V298.443H60.0637V289.755H59.6637ZM59.6637 298.443C59.6637 299.82 60.0267 300.932 60.7501 301.7C61.4752 302.47 62.5358 302.867 63.8717 302.867V302.467C62.6155 302.467 61.6722 302.096 61.0413 301.426C60.4087 300.754 60.0637 299.754 60.0637 298.443H59.6637ZM63.8717 300.067C63.455 300.067 63.1774 299.948 62.9985 299.736C62.8139 299.517 62.7037 299.165 62.7037 298.635H62.3037C62.3037 299.209 62.4215 299.673 62.6929 299.994C62.97 300.322 63.3764 300.467 63.8717 300.467V300.067ZM62.7037 298.635V295.659H62.3037V298.635H62.7037ZM62.7037 295.659C62.7037 295.117 62.8142 294.758 62.9992 294.536C63.178 294.322 63.455 294.203 63.8717 294.203V293.803C63.3763 293.803 62.9693 293.948 62.6922 294.28C62.4211 294.604 62.3037 295.074 62.3037 295.659H62.7037ZM63.8717 294.203C64.2883 294.203 64.5653 294.322 64.7442 294.536C64.9291 294.758 65.0397 295.117 65.0397 295.659H65.4397C65.4397 295.074 65.3222 294.604 65.0512 294.28C64.774 293.948 64.367 293.803 63.8717 293.803V294.203ZM65.0397 295.659V298.635H65.4397V295.659H65.0397ZM65.0397 298.635C65.0397 299.165 64.9295 299.517 64.7449 299.736C64.566 299.948 64.2884 300.067 63.8717 300.067V300.467C64.367 300.467 64.7734 300.322 65.0505 299.994C65.3219 299.673 65.4397 299.209 65.4397 298.635H65.0397ZM76.0768 302.427H75.8768V302.627H76.0768V302.427ZM78.7168 302.427V302.627H78.9168V302.427H78.7168ZM78.7168 295.587V295.387H78.5168V295.587H78.7168ZM76.0768 285.627V285.427H75.8768V285.627H76.0768ZM78.7168 293.187H78.5168V293.387H78.7168V293.187ZM78.7168 288.027V287.827H78.5168V288.027H78.7168ZM76.0768 302.627H78.7168V302.227H76.0768V302.627ZM78.9168 302.427V295.587H78.5168V302.427H78.9168ZM78.7168 295.787H79.9648V295.387H78.7168V295.787ZM79.9648 295.787C81.3212 295.787 82.366 295.41 83.0691 294.655C83.7699 293.903 84.1008 292.808 84.1008 291.435H83.7008C83.7008 292.75 83.3837 293.731 82.7765 294.383C82.1716 295.032 81.2485 295.387 79.9648 295.387V295.787ZM84.1008 291.435V289.779H83.7008V291.435H84.1008ZM84.1008 289.779C84.1008 288.406 83.7699 287.311 83.0691 286.559C82.366 285.804 81.3212 285.427 79.9648 285.427V285.827C81.2485 285.827 82.1716 286.182 82.7765 286.831C83.3837 287.483 83.7008 288.464 83.7008 289.779H84.1008ZM79.9648 285.427H76.0768V285.827H79.9648V285.427ZM75.8768 285.627V302.427H76.2768V285.627H75.8768ZM78.9168 293.187V288.027H78.5168V293.187H78.9168ZM78.7168 288.227H79.9648V287.827H78.7168V288.227ZM79.9648 288.227C80.3579 288.227 80.6137 288.317 80.7784 288.502C80.9488 288.693 81.0608 289.029 81.0608 289.611H81.4608C81.4608 288.993 81.3449 288.537 81.0772 288.236C80.804 287.929 80.4117 287.827 79.9648 287.827V288.227ZM81.0608 289.611V291.603H81.4608V289.611H81.0608ZM81.0608 291.603C81.0608 292.185 80.9488 292.521 80.7784 292.712C80.6137 292.897 80.3579 292.987 79.9648 292.987V293.387C80.4117 293.387 80.804 293.285 81.0772 292.978C81.3449 292.677 81.4608 292.221 81.4608 291.603H81.0608ZM79.9648 292.987H78.7168V293.387H79.9648V292.987ZM86.6546 302.427H86.4546V302.627H86.6546V302.427ZM93.6386 302.427V302.627H93.8386V302.427H93.6386ZM93.6386 300.027H93.8386V299.827H93.6386V300.027ZM89.2946 300.027H89.0946V300.227H89.2946V300.027ZM89.2946 285.627H89.4946V285.427H89.2946V285.627ZM86.6546 285.627V285.427H86.4546V285.627H86.6546ZM86.6546 302.627H93.6386V302.227H86.6546V302.627ZM93.8386 302.427V300.027H93.4386V302.427H93.8386ZM93.6386 299.827H89.2946V300.227H93.6386V299.827ZM89.4946 300.027V285.627H89.0946V300.027H89.4946ZM89.2946 285.427H86.6546V285.827H89.2946V285.427ZM86.4546 285.627V302.427H86.8546V285.627H86.4546ZM95.6224 302.427L95.425 302.395L95.3872 302.627H95.6224V302.427ZM98.0704 302.427V302.627H98.2433L98.2683 302.456L98.0704 302.427ZM98.5504 299.139V298.939H98.3775L98.3525 299.11L98.5504 299.139ZM101.55 299.139V299.339H101.75V299.139H101.55ZM101.55 299.091L101.748 299.063L101.35 299.091H101.55ZM102.03 302.427L101.832 302.456L101.857 302.627H102.03V302.427ZM104.67 302.427V302.627H104.906L104.868 302.395L104.67 302.427ZM101.934 285.627L102.132 285.595L102.104 285.427H101.934V285.627ZM98.3584 285.627V285.427H98.1883L98.161 285.595L98.3584 285.627ZM98.8624 296.859L98.6643 296.832L98.6327 297.059H98.8624V296.859ZM100.014 288.555V288.355H99.8402L99.8163 288.528L100.014 288.555ZM100.062 288.555L100.26 288.527L100.236 288.355H100.062V288.555ZM101.238 296.859V297.059H101.469L101.436 296.831L101.238 296.859ZM95.6224 302.627H98.0704V302.227H95.6224V302.627ZM98.2683 302.456L98.7483 299.168L98.3525 299.11L97.8725 302.398L98.2683 302.456ZM98.5504 299.339H101.55V298.939H98.5504V299.339ZM101.75 299.139V299.091H101.35V299.139H101.75ZM101.352 299.12L101.832 302.456L102.228 302.399L101.748 299.063L101.352 299.12ZM102.03 302.627H104.67V302.227H102.03V302.627ZM104.868 302.395L102.132 285.595L101.737 285.659L104.473 302.459L104.868 302.395ZM101.934 285.427H98.3584V285.827H101.934V285.427ZM98.161 285.595L95.425 302.395L95.8198 302.459L98.5558 285.659L98.161 285.595ZM99.0605 296.887L100.212 288.583L99.8163 288.528L98.6643 296.832L99.0605 296.887ZM100.014 288.755H100.062V288.355H100.014V288.755ZM99.8643 288.583L101.04 296.887L101.436 296.831L100.26 288.527L99.8643 288.583ZM101.238 296.659H98.8624V297.059H101.238V296.659ZM108.594 302.427H108.394V302.627H108.594V302.427ZM111.234 302.427V302.627H111.434V302.427H111.234ZM111.234 295.275L111.044 295.212L111.034 295.243V295.275H111.234ZM114.426 285.627L114.616 285.69L114.702 285.427H114.426V285.627ZM111.858 285.627V285.427H111.708L111.666 285.571L111.858 285.627ZM110.058 291.795V291.995H110.208L110.25 291.851L110.058 291.795ZM110.01 291.795L109.818 291.851L109.86 291.995H110.01V291.795ZM108.21 285.627L108.402 285.571L108.36 285.427H108.21V285.627ZM105.402 285.627V285.427H105.125L105.212 285.69L105.402 285.627ZM108.594 295.275H108.794V295.243L108.784 295.212L108.594 295.275ZM108.594 302.627H111.234V302.227H108.594V302.627ZM111.434 302.427V295.275H111.034V302.427H111.434ZM111.424 295.338L114.616 285.69L114.236 285.564L111.044 295.212L111.424 295.338ZM114.426 285.427H111.858V285.827H114.426V285.427ZM111.666 285.571L109.866 291.739L110.25 291.851L112.05 285.683L111.666 285.571ZM110.058 291.595H110.01V291.995H110.058V291.595ZM110.202 291.739L108.402 285.571L108.018 285.683L109.818 291.851L110.202 291.739ZM108.21 285.427H105.402V285.827H108.21V285.427ZM105.212 285.69L108.404 295.338L108.784 295.212L105.592 285.564L105.212 285.69ZM108.394 295.275V302.427H108.794V295.275H108.394ZM116.935 302.427H116.735V302.627H116.935V302.427ZM124.135 302.427V302.627H124.335V302.427H124.135ZM124.135 300.027H124.335V299.827H124.135V300.027ZM119.575 300.027H119.375V300.227H119.575V300.027ZM119.575 294.867V294.667H119.375V294.867H119.575ZM123.199 294.867V295.067H123.399V294.867H123.199ZM123.199 292.467H123.399V292.267H123.199V292.467ZM119.575 292.467H119.375V292.667H119.575V292.467ZM119.575 288.027V287.827H119.375V288.027H119.575ZM124.135 288.027V288.227H124.335V288.027H124.135ZM124.135 285.627H124.335V285.427H124.135V285.627ZM116.935 285.627V285.427H116.735V285.627H116.935ZM116.935 302.627H124.135V302.227H116.935V302.627ZM124.335 302.427V300.027H123.935V302.427H124.335ZM124.135 299.827H119.575V300.227H124.135V299.827ZM119.775 300.027V294.867H119.375V300.027H119.775ZM119.575 295.067H123.199V294.667H119.575V295.067ZM123.399 294.867V292.467H122.999V294.867H123.399ZM123.199 292.267H119.575V292.667H123.199V292.267ZM119.775 292.467V288.027H119.375V292.467H119.775ZM119.575 288.227H124.135V287.827H119.575V288.227ZM124.335 288.027V285.627H123.935V288.027H124.335ZM124.135 285.427H116.935V285.827H124.135V285.427ZM116.735 285.627V302.427H117.135V285.627H116.735ZM126.974 302.427H126.774V302.627H126.974V302.427ZM129.614 302.427V302.627H129.814V302.427H129.614ZM129.614 295.227V295.027H129.414V295.227H129.614ZM132.422 302.427L132.232 302.49L132.278 302.627H132.422V302.427ZM135.11 302.427V302.627H135.411L135.294 302.349L135.11 302.427ZM133.07 293.883H132.87V294.031L133.011 294.074L133.07 293.883ZM133.07 293.835L132.994 293.65L132.87 293.701V293.835H133.07ZM126.974 285.627V285.427H126.774V285.627H126.974ZM129.614 292.827H129.414V293.027H129.614V292.827ZM129.614 288.027V287.827H129.414V288.027H129.614ZM126.974 302.627H129.614V302.227H126.974V302.627ZM129.814 302.427V295.227H129.414V302.427H129.814ZM129.614 295.427H130.526V295.027H129.614V295.427ZM130.526 295.427C131.104 295.427 131.442 295.549 131.649 295.801C131.866 296.065 131.982 296.519 131.982 297.291H132.382C132.382 296.503 132.269 295.925 131.958 295.547C131.637 295.157 131.148 295.027 130.526 295.027V295.427ZM131.982 297.291V300.363H132.382V297.291H131.982ZM131.982 300.363C131.982 301.05 132.006 301.469 132.05 301.775C132.095 302.085 132.16 302.274 132.232 302.49L132.611 302.364C132.54 302.149 132.485 301.989 132.446 301.718C132.406 301.441 132.382 301.044 132.382 300.363H131.982ZM132.422 302.627H135.11V302.227H132.422V302.627ZM135.294 302.349C135.047 301.766 135.022 301.203 135.022 300.387H134.622C134.622 301.203 134.644 301.84 134.925 302.505L135.294 302.349ZM135.022 300.387V297.435H134.622V300.387H135.022ZM135.022 297.435C135.022 296.476 134.913 295.657 134.623 295.018C134.328 294.37 133.847 293.914 133.129 293.692L133.011 294.074C133.613 294.26 134.008 294.633 134.259 295.184C134.514 295.745 134.622 296.498 134.622 297.435H135.022ZM133.27 293.883V293.835H132.87V293.883H133.27ZM133.145 294.02C133.777 293.762 134.245 293.334 134.552 292.739C134.857 292.149 134.998 291.406 134.998 290.523H134.598C134.598 291.368 134.462 292.041 134.197 292.555C133.934 293.065 133.538 293.428 132.994 293.65L133.145 294.02ZM134.998 290.523V289.491H134.598V290.523H134.998ZM134.998 289.491C134.998 288.169 134.698 287.141 134.01 286.446C133.321 285.751 132.281 285.427 130.886 285.427V285.827C132.227 285.827 133.142 286.139 133.726 286.728C134.309 287.317 134.598 288.221 134.598 289.491H134.998ZM130.886 285.427H126.974V285.827H130.886V285.427ZM126.774 285.627V302.427H127.174V285.627H126.774ZM129.814 292.827V288.027H129.414V292.827H129.814ZM129.614 288.227H130.814V287.827H129.614V288.227ZM130.814 288.227C131.243 288.227 131.51 288.346 131.679 288.564C131.857 288.793 131.958 289.17 131.958 289.755H132.358C132.358 289.14 132.255 288.653 131.995 288.318C131.725 287.972 131.32 287.827 130.814 287.827V288.227ZM131.958 289.755V291.051H132.358V289.755H131.958ZM131.958 291.051C131.958 291.698 131.813 292.08 131.592 292.302C131.373 292.524 131.041 292.627 130.574 292.627V293.027C131.091 293.027 131.55 292.914 131.877 292.584C132.203 292.254 132.358 291.748 132.358 291.051H131.958ZM130.574 292.627H129.614V293.027H130.574V292.627ZM147.649 293.019L147.781 292.869L147.781 292.869L147.649 293.019ZM148.009 290.307H147.809V290.507H148.009V290.307ZM150.505 290.307V290.507H150.705V290.307H150.505ZM145.657 294.795L145.525 294.945L145.525 294.946L145.657 294.795ZM145.177 297.483H145.377V297.283H145.177V297.483ZM142.681 297.483V297.283H142.481V297.483H142.681ZM146.569 302.867C147.905 302.867 148.961 302.47 149.68 301.693C150.397 300.918 150.753 299.795 150.753 298.395H150.353C150.353 299.731 150.013 300.744 149.386 301.421C148.762 302.096 147.825 302.467 146.569 302.467V302.867ZM150.753 298.395C150.753 297.326 150.574 296.434 150.105 295.559C149.639 294.688 148.893 293.848 147.781 292.869L147.517 293.169C148.613 294.135 149.319 294.938 149.753 295.748C150.184 296.552 150.353 297.376 150.353 298.395H150.753ZM147.781 292.869C146.921 292.116 146.369 291.531 146.031 290.993C145.697 290.462 145.569 289.971 145.569 289.395H145.169C145.169 290.043 145.317 290.608 145.692 291.205C146.062 291.795 146.65 292.41 147.517 293.17L147.781 292.869ZM145.569 289.395C145.569 288.842 145.685 288.496 145.865 288.291C146.039 288.09 146.305 287.987 146.689 287.987V287.587C146.234 287.587 145.839 287.712 145.563 288.028C145.293 288.338 145.169 288.797 145.169 289.395H145.569ZM146.689 287.987C147.073 287.987 147.338 288.09 147.512 288.295C147.692 288.506 147.809 288.864 147.809 289.443H148.209C148.209 288.822 148.086 288.352 147.816 288.035C147.541 287.712 147.145 287.587 146.689 287.587V287.987ZM147.809 289.443V290.307H148.209V289.443H147.809ZM148.009 290.507H150.505V290.107H148.009V290.507ZM150.705 290.307V289.611H150.305V290.307H150.705ZM150.705 289.611C150.705 288.239 150.381 287.128 149.698 286.358C149.011 285.585 147.99 285.187 146.665 285.187V285.587C147.908 285.587 148.807 285.958 149.399 286.624C149.994 287.294 150.305 288.295 150.305 289.611H150.705ZM146.665 285.187C145.341 285.187 144.298 285.584 143.588 286.349C142.88 287.111 142.529 288.211 142.529 289.563H142.929C142.929 288.276 143.263 287.287 143.881 286.621C144.497 285.958 145.422 285.587 146.665 285.587V285.187ZM142.529 289.563C142.529 290.552 142.715 291.408 143.19 292.267C143.662 293.121 144.413 293.967 145.525 294.945L145.789 294.645C144.693 293.68 143.98 292.869 143.54 292.073C143.103 291.282 142.929 290.495 142.929 289.563H142.529ZM145.525 294.946C146.385 295.698 146.93 296.281 147.261 296.838C147.588 297.388 147.713 297.921 147.713 298.587H148.113C148.113 297.861 147.974 297.255 147.605 296.634C147.24 296.021 146.657 295.404 145.789 294.645L145.525 294.946ZM147.713 298.587C147.713 299.188 147.585 299.55 147.395 299.761C147.21 299.968 146.932 300.067 146.545 300.067V300.467C146.998 300.467 147.404 300.35 147.693 300.029C147.977 299.712 148.113 299.234 148.113 298.587H147.713ZM146.545 300.067C146.158 300.067 145.879 299.968 145.693 299.766C145.504 299.56 145.377 299.21 145.377 298.635H144.977C144.977 299.26 145.114 299.726 145.399 300.036C145.687 300.35 146.093 300.467 146.545 300.467V300.067ZM145.377 298.635V297.483H144.977V298.635H145.377ZM145.177 297.283H142.681V297.683H145.177V297.283ZM142.481 297.483V298.443H142.881V297.483H142.481ZM142.481 298.443C142.481 299.816 142.812 300.927 143.504 301.697C144.2 302.47 145.233 302.867 146.569 302.867V302.467C145.313 302.467 144.402 302.096 143.802 301.429C143.198 300.759 142.881 299.758 142.881 298.443H142.481ZM155.451 302.427H155.251V302.627H155.451V302.427ZM158.091 302.427V302.627H158.291V302.427H158.091ZM158.091 288.027V287.827H157.891V288.027H158.091ZM160.851 288.027V288.227H161.051V288.027H160.851ZM160.851 285.627H161.051V285.427H160.851V285.627ZM152.691 285.627V285.427H152.491V285.627H152.691ZM152.691 288.027H152.491V288.227H152.691V288.027ZM155.451 288.027H155.651V287.827H155.451V288.027ZM155.451 302.627H158.091V302.227H155.451V302.627ZM158.291 302.427V288.027H157.891V302.427H158.291ZM158.091 288.227H160.851V287.827H158.091V288.227ZM161.051 288.027V285.627H160.651V288.027H161.051ZM160.851 285.427H152.691V285.827H160.851V285.427ZM152.491 285.627V288.027H152.891V285.627H152.491ZM152.691 288.227H155.451V287.827H152.691V288.227ZM155.251 288.027V302.427H155.651V288.027H155.251ZM161.651 302.427L161.454 302.395L161.416 302.627H161.651V302.427ZM164.099 302.427V302.627H164.272L164.297 302.456L164.099 302.427ZM164.579 299.139V298.939H164.407L164.382 299.11L164.579 299.139ZM167.579 299.139V299.339H167.779V299.139H167.579ZM167.579 299.091L167.777 299.063L167.379 299.091H167.579ZM168.059 302.427L167.861 302.456L167.886 302.627H168.059V302.427ZM170.699 302.427V302.627H170.935L170.897 302.395L170.699 302.427ZM167.963 285.627L168.161 285.595L168.134 285.427H167.963V285.627ZM164.387 285.627V285.427H164.217L164.19 285.595L164.387 285.627ZM164.891 296.859L164.693 296.832L164.662 297.059H164.891V296.859ZM166.043 288.555V288.355H165.869L165.845 288.528L166.043 288.555ZM166.091 288.555L166.289 288.527L166.265 288.355H166.091V288.555ZM167.267 296.859V297.059H167.498L167.465 296.831L167.267 296.859ZM161.651 302.627H164.099V302.227H161.651V302.627ZM164.297 302.456L164.777 299.168L164.382 299.11L163.902 302.398L164.297 302.456ZM164.579 299.339H167.579V298.939H164.579V299.339ZM167.779 299.139V299.091H167.379V299.139H167.779ZM167.381 299.12L167.861 302.456L168.257 302.399L167.777 299.063L167.381 299.12ZM168.059 302.627H170.699V302.227H168.059V302.627ZM170.897 302.395L168.161 285.595L167.766 285.659L170.502 302.459L170.897 302.395ZM167.963 285.427H164.387V285.827H167.963V285.427ZM164.19 285.595L161.454 302.395L161.849 302.459L164.585 285.659L164.19 285.595ZM165.09 296.887L166.242 288.583L165.845 288.528L164.693 296.832L165.09 296.887ZM166.043 288.755H166.091V288.355H166.043V288.755ZM165.893 288.583L167.069 296.887L167.465 296.831L166.289 288.527L165.893 288.583ZM167.267 296.659H164.891V297.059H167.267V296.659ZM174.263 302.427H174.063V302.627H174.263V302.427ZM176.903 302.427V302.627H177.103V302.427H176.903ZM176.903 288.027V287.827H176.703V288.027H176.903ZM179.663 288.027V288.227H179.863V288.027H179.663ZM179.663 285.627H179.863V285.427H179.663V285.627ZM171.503 285.627V285.427H171.303V285.627H171.503ZM171.503 288.027H171.303V288.227H171.503V288.027ZM174.263 288.027H174.463V287.827H174.263V288.027ZM174.263 302.627H176.903V302.227H174.263V302.627ZM177.103 302.427V288.027H176.703V302.427H177.103ZM176.903 288.227H179.663V287.827H176.903V288.227ZM179.863 288.027V285.627H179.463V288.027H179.863ZM179.663 285.427H171.503V285.827H179.663V285.427ZM171.303 285.627V288.027H171.703V285.627H171.303ZM171.503 288.227H174.263V287.827H171.503V288.227ZM174.063 288.027V302.427H174.463V288.027H174.063ZM182.261 302.427H182.061V302.627H182.261V302.427ZM184.901 302.427V302.627H185.101V302.427H184.901ZM184.901 285.627H185.101V285.427H184.901V285.627ZM182.261 285.627V285.427H182.061V285.627H182.261ZM182.261 302.627H184.901V302.227H182.261V302.627ZM185.101 302.427V285.627H184.701V302.427H185.101ZM184.901 285.427H182.261V285.827H184.901V285.427ZM182.061 285.627V302.427H182.461V285.627H182.061ZM192.71 293.019L192.842 292.869L192.842 292.869L192.71 293.019ZM193.07 290.307H192.87V290.507H193.07V290.307ZM195.566 290.307V290.507H195.766V290.307H195.566ZM190.718 294.795L190.586 294.945L190.586 294.946L190.718 294.795ZM190.238 297.483H190.438V297.283H190.238V297.483ZM187.742 297.483V297.283H187.542V297.483H187.742ZM191.63 302.867C192.966 302.867 194.021 302.47 194.741 301.693C195.458 300.918 195.814 299.795 195.814 298.395H195.414C195.414 299.731 195.074 300.744 194.447 301.421C193.823 302.096 192.886 302.467 191.63 302.467V302.867ZM195.814 298.395C195.814 297.326 195.635 296.434 195.166 295.559C194.7 294.688 193.954 293.848 192.842 292.869L192.578 293.169C193.674 294.135 194.38 294.938 194.814 295.748C195.245 296.552 195.414 297.376 195.414 298.395H195.814ZM192.842 292.869C191.982 292.116 191.43 291.531 191.091 290.993C190.758 290.462 190.63 289.971 190.63 289.395H190.23C190.23 290.043 190.378 290.608 190.753 291.205C191.123 291.795 191.71 292.41 192.578 293.17L192.842 292.869ZM190.63 289.395C190.63 288.842 190.746 288.496 190.926 288.291C191.1 288.09 191.366 287.987 191.75 287.987V287.587C191.294 287.587 190.9 287.712 190.624 288.028C190.354 288.338 190.23 288.797 190.23 289.395H190.63ZM191.75 287.987C192.134 287.987 192.398 288.09 192.573 288.295C192.753 288.506 192.87 288.864 192.87 289.443H193.27C193.27 288.822 193.147 288.352 192.877 288.035C192.602 287.712 192.206 287.587 191.75 287.587V287.987ZM192.87 289.443V290.307H193.27V289.443H192.87ZM193.07 290.507H195.566V290.107H193.07V290.507ZM195.766 290.307V289.611H195.366V290.307H195.766ZM195.766 289.611C195.766 288.239 195.442 287.128 194.759 286.358C194.072 285.585 193.051 285.187 191.726 285.187V285.587C192.969 285.587 193.868 285.958 194.459 286.624C195.055 287.294 195.366 288.295 195.366 289.611H195.766ZM191.726 285.187C190.402 285.187 189.359 285.584 188.649 286.349C187.941 287.111 187.59 288.211 187.59 289.563H187.99C187.99 288.276 188.323 287.287 188.942 286.621C189.558 285.958 190.483 285.587 191.726 285.587V285.187ZM187.59 289.563C187.59 290.552 187.776 291.408 188.251 292.267C188.723 293.121 189.474 293.967 190.586 294.945L190.85 294.645C189.754 293.68 189.041 292.869 188.601 292.073C188.164 291.282 187.99 290.495 187.99 289.563H187.59ZM190.586 294.946C191.446 295.698 191.991 296.281 192.322 296.838C192.649 297.388 192.774 297.921 192.774 298.587H193.174C193.174 297.861 193.035 297.255 192.666 296.634C192.301 296.021 191.718 295.404 190.85 294.645L190.586 294.946ZM192.774 298.587C192.774 299.188 192.646 299.55 192.456 299.761C192.271 299.968 191.993 300.067 191.606 300.067V300.467C192.059 300.467 192.465 300.35 192.754 300.029C193.038 299.712 193.174 299.234 193.174 298.587H192.774ZM191.606 300.067C191.219 300.067 190.94 299.968 190.754 299.766C190.565 299.56 190.438 299.21 190.438 298.635H190.038C190.038 299.26 190.175 299.726 190.46 300.036C190.748 300.35 191.153 300.467 191.606 300.467V300.067ZM190.438 298.635V297.483H190.038V298.635H190.438ZM190.238 297.283H187.742V297.683H190.238V297.283ZM187.542 297.483V298.443H187.942V297.483H187.542ZM187.542 298.443C187.542 299.816 187.873 300.927 188.565 301.697C189.261 302.47 190.294 302.867 191.63 302.867V302.467C190.374 302.467 189.463 302.096 188.863 301.429C188.259 300.759 187.942 299.758 187.942 298.443H187.542ZM200.512 302.427H200.312V302.627H200.512V302.427ZM203.152 302.427V302.627H203.352V302.427H203.152ZM203.152 288.027V287.827H202.952V288.027H203.152ZM205.912 288.027V288.227H206.112V288.027H205.912ZM205.912 285.627H206.112V285.427H205.912V285.627ZM197.752 285.627V285.427H197.552V285.627H197.752ZM197.752 288.027H197.552V288.227H197.752V288.027ZM200.512 288.027H200.712V287.827H200.512V288.027ZM200.512 302.627H203.152V302.227H200.512V302.627ZM203.352 302.427V288.027H202.952V302.427H203.352ZM203.152 288.227H205.912V287.827H203.152V288.227ZM206.112 288.027V285.627H205.712V288.027H206.112ZM205.912 285.427H197.752V285.827H205.912V285.427ZM197.552 285.627V288.027H197.952V285.627H197.552ZM197.752 288.227H200.512V287.827H197.752V288.227ZM200.312 288.027V302.427H200.712V288.027H200.312ZM208.51 302.427H208.31V302.627H208.51V302.427ZM211.15 302.427V302.627H211.35V302.427H211.15ZM211.15 285.627H211.35V285.427H211.15V285.627ZM208.51 285.627V285.427H208.31V285.627H208.51ZM208.51 302.627H211.15V302.227H208.51V302.627ZM211.35 302.427V285.627H210.95V302.427H211.35ZM211.15 285.427H208.51V285.827H211.15V285.427ZM208.31 285.627V302.427H208.71V285.627H208.31ZM222.055 296.163H222.255V295.963H222.055V296.163ZM219.559 296.163V295.963H219.359V296.163H219.559ZM219.559 291.291H219.359V291.491H219.559V291.291ZM222.055 291.291V291.491H222.255V291.291H222.055ZM218.167 302.867C219.48 302.867 220.511 302.47 221.212 301.711C221.911 300.955 222.255 299.868 222.255 298.539H221.855C221.855 299.803 221.528 300.78 220.918 301.439C220.311 302.097 219.398 302.467 218.167 302.467V302.867ZM222.255 298.539V296.163H221.855V298.539H222.255ZM222.055 295.963H219.559V296.363H222.055V295.963ZM219.359 296.163V298.731H219.759V296.163H219.359ZM219.359 298.731C219.359 299.254 219.234 299.581 219.05 299.776C218.869 299.969 218.6 300.067 218.239 300.067V300.467C218.67 300.467 219.061 300.349 219.342 300.05C219.62 299.753 219.759 299.312 219.759 298.731H219.359ZM218.239 300.067C217.878 300.067 217.609 299.969 217.428 299.776C217.244 299.581 217.119 299.254 217.119 298.731H216.719C216.719 299.312 216.858 299.753 217.136 300.05C217.417 300.349 217.808 300.467 218.239 300.467V300.067ZM217.119 298.731V289.347H216.719V298.731H217.119ZM217.119 289.347C217.119 288.824 217.244 288.49 217.43 288.288C217.612 288.089 217.881 287.987 218.239 287.987V287.587C217.805 287.587 217.414 287.713 217.135 288.018C216.858 288.32 216.719 288.766 216.719 289.347H217.119ZM218.239 287.987C218.597 287.987 218.866 288.089 219.049 288.288C219.234 288.49 219.359 288.824 219.359 289.347H219.759C219.759 288.766 219.62 288.32 219.344 288.018C219.064 287.713 218.673 287.587 218.239 287.587V287.987ZM219.359 289.347V291.291H219.759V289.347H219.359ZM219.559 291.491H222.055V291.091H219.559V291.491ZM222.255 291.291V289.515H221.855V291.291H222.255ZM222.255 289.515C222.255 288.187 221.911 287.1 221.212 286.343C220.511 285.585 219.48 285.187 218.167 285.187V285.587C219.398 285.587 220.311 285.958 220.918 286.615C221.528 287.275 221.855 288.252 221.855 289.515H222.255ZM218.167 285.187C216.854 285.187 215.823 285.585 215.122 286.343C214.424 287.1 214.079 288.187 214.079 289.515H214.479C214.479 288.252 214.807 287.275 215.416 286.615C216.023 285.958 216.936 285.587 218.167 285.587V285.187ZM214.079 289.515V298.539H214.479V289.515H214.079ZM214.079 298.539C214.079 299.868 214.424 300.955 215.122 301.711C215.823 302.47 216.854 302.867 218.167 302.867V302.467C216.936 302.467 216.023 302.097 215.416 301.439C214.807 300.78 214.479 299.803 214.479 298.539H214.079ZM229.514 293.019L229.646 292.869L229.645 292.869L229.514 293.019ZM229.874 290.307H229.674V290.507H229.874V290.307ZM232.37 290.307V290.507H232.57V290.307H232.37ZM227.522 294.795L227.389 294.945L227.39 294.946L227.522 294.795ZM227.042 297.483H227.242V297.283H227.042V297.483ZM224.546 297.483V297.283H224.346V297.483H224.546ZM228.434 302.867C229.769 302.867 230.825 302.47 231.544 301.693C232.261 300.918 232.618 299.795 232.618 298.395H232.218C232.218 299.731 231.878 300.744 231.251 301.421C230.626 302.096 229.69 302.467 228.434 302.467V302.867ZM232.618 298.395C232.618 297.326 232.439 296.434 231.97 295.559C231.503 294.688 230.757 293.848 229.646 292.869L229.381 293.169C230.478 294.135 231.184 294.938 231.617 295.748C232.048 296.552 232.218 297.376 232.218 298.395H232.618ZM229.645 292.869C228.785 292.116 228.233 291.531 227.895 290.993C227.562 290.462 227.434 289.971 227.434 289.395H227.034C227.034 290.043 227.181 290.608 227.556 291.205C227.926 291.795 228.514 292.41 229.382 293.17L229.645 292.869ZM227.434 289.395C227.434 288.842 227.55 288.496 227.729 288.291C227.904 288.09 228.169 287.987 228.554 287.987V287.587C228.098 287.587 227.703 287.712 227.428 288.028C227.157 288.338 227.034 288.797 227.034 289.395H227.434ZM228.554 287.987C228.938 287.987 229.202 288.09 229.376 288.295C229.557 288.506 229.674 288.864 229.674 289.443H230.074C230.074 288.822 229.95 288.352 229.681 288.035C229.405 287.712 229.009 287.587 228.554 287.587V287.987ZM229.674 289.443V290.307H230.074V289.443H229.674ZM229.874 290.507H232.37V290.107H229.874V290.507ZM232.57 290.307V289.611H232.17V290.307H232.57ZM232.57 289.611C232.57 288.239 232.245 287.128 231.562 286.358C230.875 285.585 229.854 285.187 228.53 285.187V285.587C229.773 285.587 230.672 285.958 231.263 286.624C231.858 287.294 232.17 288.295 232.17 289.611H232.57ZM228.53 285.187C227.205 285.187 226.162 285.584 225.452 286.349C224.744 287.111 224.394 288.211 224.394 289.563H224.794C224.794 288.276 225.127 287.287 225.745 286.621C226.361 285.958 227.286 285.587 228.53 285.587V285.187ZM224.394 289.563C224.394 290.552 224.58 291.408 225.054 292.267C225.526 293.121 226.278 293.967 227.389 294.945L227.654 294.645C226.557 293.68 225.845 292.869 225.405 292.073C224.967 291.282 224.794 290.495 224.794 289.563H224.394ZM227.39 294.946C228.25 295.698 228.794 296.281 229.126 296.838C229.452 297.388 229.578 297.921 229.578 298.587H229.978C229.978 297.861 229.839 297.255 229.469 296.634C229.105 296.021 228.521 295.404 227.653 294.645L227.39 294.946ZM229.578 298.587C229.578 299.188 229.45 299.55 229.26 299.761C229.074 299.968 228.797 300.067 228.41 300.067V300.467C228.862 300.467 229.269 300.35 229.557 300.029C229.841 299.712 229.978 299.234 229.978 298.587H229.578ZM228.41 300.067C228.022 300.067 227.744 299.968 227.558 299.766C227.369 299.56 227.242 299.21 227.242 298.635H226.842C226.842 299.26 226.978 299.726 227.263 300.036C227.551 300.35 227.957 300.467 228.41 300.467V300.067ZM227.242 298.635V297.483H226.842V298.635H227.242ZM227.042 297.283H224.546V297.683H227.042V297.283ZM224.346 297.483V298.443H224.746V297.483H224.346ZM224.346 298.443C224.346 299.816 224.676 300.927 225.369 301.697C226.065 302.47 227.097 302.867 228.434 302.867V302.467C227.178 302.467 226.266 302.096 225.666 301.429C225.063 300.759 224.746 299.758 224.746 298.443H224.346Z" fill="#BC9F00"/>
</svg>
