<svg width="400" height="400" viewBox="0 0 400 400" fill="none" xmlns="http://www.w3.org/2000/svg">
<rect width="400" height="400" fill="#E5E5E5"/>
<rect width="400" height="400" fill="#666666"/>
<path d="M63.92 299.19H98.84V287.19H77.12V215.19H63.92V299.19ZM123.781 300.39C136.741 300.39 143.821 292.71 143.821 279.27V235.11C143.821 221.67 136.741 213.99 123.781 213.99C110.821 213.99 103.741 221.67 103.741 235.11V279.27C103.741 292.71 110.821 300.39 123.781 300.39ZM123.781 288.39C119.581 288.39 116.941 286.11 116.941 280.11V234.27C116.941 228.27 119.581 225.99 123.781 225.99C127.981 225.99 130.621 228.27 130.621 234.27V280.11C130.621 286.11 127.981 288.39 123.781 288.39ZM171.828 300.39C184.788 300.39 191.868 292.71 191.868 279.27V235.11C191.868 221.67 184.788 213.99 171.828 213.99C158.868 213.99 151.788 221.67 151.788 235.11V279.27C151.788 292.71 158.868 300.39 171.828 300.39ZM171.828 288.39C167.628 288.39 164.988 286.11 164.988 280.11V234.27C164.988 228.27 167.628 225.99 171.828 225.99C176.028 225.99 178.668 228.27 178.668 234.27V280.11C178.668 286.11 176.028 288.39 171.828 288.39ZM200.795 299.19H213.995V272.43L219.275 261.75L230.435 299.19H244.235L228.275 246.03L243.995 215.19H230.795L213.995 250.59V215.19H200.795V299.19ZM269.565 300.39C282.525 300.39 289.245 292.71 289.245 279.27V215.19H276.525V280.23C276.525 286.23 274.005 288.39 269.805 288.39C265.605 288.39 263.085 286.23 263.085 280.23V215.19H249.885V279.27C249.885 292.71 256.605 300.39 269.565 300.39ZM298.647 299.19H311.847V264.99H318.087C331.287 264.99 337.767 257.67 337.767 244.23V235.95C337.767 222.51 331.287 215.19 318.087 215.19H298.647V299.19ZM311.847 252.99V227.19H318.087C322.287 227.19 324.567 229.11 324.567 235.11V245.07C324.567 251.07 322.287 252.99 318.087 252.99H311.847Z" fill="#D3D3D3"/>
<path d="M63.92 299.19H63.72V299.39H63.92V299.19ZM98.84 299.19V299.39H99.04V299.19H98.84ZM98.84 287.19H99.04V286.99H98.84V287.19ZM77.12 287.19H76.92V287.39H77.12V287.19ZM77.12 215.19H77.32V214.99H77.12V215.19ZM63.92 215.19V214.99H63.72V215.19H63.92ZM63.92 299.39H98.84V298.99H63.92V299.39ZM99.04 299.19V287.19H98.64V299.19H99.04ZM98.84 286.99H77.12V287.39H98.84V286.99ZM77.32 287.19V215.19H76.92V287.19H77.32ZM77.12 214.99H63.92V215.39H77.12V214.99ZM63.72 215.19V299.19H64.12V215.19H63.72ZM123.781 300.59C130.301 300.59 135.37 298.657 138.807 295.007C142.242 291.359 144.021 286.023 144.021 279.27H143.621C143.621 285.956 141.86 291.181 138.516 294.733C135.173 298.283 130.221 300.19 123.781 300.19V300.59ZM144.021 279.27V235.11H143.621V279.27H144.021ZM144.021 235.11C144.021 228.356 142.242 223.021 138.807 219.373C135.37 215.723 130.301 213.79 123.781 213.79V214.19C130.221 214.19 135.173 216.097 138.516 219.647C141.86 223.199 143.621 228.423 143.621 235.11H144.021ZM123.781 213.79C117.261 213.79 112.193 215.723 108.756 219.373C105.32 223.021 103.541 228.356 103.541 235.11H103.941C103.941 228.423 105.702 223.199 109.047 219.647C112.39 216.097 117.341 214.19 123.781 214.19V213.79ZM103.541 235.11V279.27H103.941V235.11H103.541ZM103.541 279.27C103.541 286.023 105.32 291.359 108.756 295.007C112.193 298.657 117.261 300.59 123.781 300.59V300.19C117.341 300.19 112.39 298.283 109.047 294.733C105.702 291.181 103.941 285.956 103.941 279.27H103.541ZM123.781 288.19C121.717 288.19 120.07 287.63 118.935 286.366C117.796 285.098 117.141 283.085 117.141 280.11H116.741C116.741 283.135 117.406 285.262 118.637 286.633C119.873 288.009 121.646 288.59 123.781 288.59V288.19ZM117.141 280.11V234.27H116.741V280.11H117.141ZM117.141 234.27C117.141 231.295 117.796 229.282 118.935 228.013C120.07 226.749 121.717 226.19 123.781 226.19V225.79C121.646 225.79 119.873 226.37 118.637 227.746C117.406 229.118 116.741 231.245 116.741 234.27H117.141ZM123.781 226.19C125.846 226.19 127.493 226.749 128.627 228.013C129.766 229.282 130.421 231.295 130.421 234.27H130.821C130.821 231.245 130.156 229.118 128.925 227.746C127.69 226.37 125.917 225.79 123.781 225.79V226.19ZM130.421 234.27V280.11H130.821V234.27H130.421ZM130.421 280.11C130.421 283.085 129.766 285.098 128.627 286.366C127.493 287.63 125.846 288.19 123.781 288.19V288.59C125.917 288.59 127.69 288.009 128.925 286.633C130.156 285.262 130.821 283.135 130.821 280.11H130.421ZM171.828 300.59C178.348 300.59 183.417 298.657 186.854 295.007C190.289 291.359 192.068 286.023 192.068 279.27H191.668C191.668 285.956 189.907 291.181 186.563 294.733C183.22 298.283 178.268 300.19 171.828 300.19V300.59ZM192.068 279.27V235.11H191.668V279.27H192.068ZM192.068 235.11C192.068 228.356 190.289 223.021 186.854 219.373C183.417 215.723 178.348 213.79 171.828 213.79V214.19C178.268 214.19 183.22 216.097 186.563 219.647C189.907 223.199 191.668 228.423 191.668 235.11H192.068ZM171.828 213.79C165.308 213.79 160.24 215.723 156.803 219.373C153.367 223.021 151.588 228.356 151.588 235.11H151.988C151.988 228.423 153.749 223.199 157.094 219.647C160.437 216.097 165.388 214.19 171.828 214.19V213.79ZM151.588 235.11V279.27H151.988V235.11H151.588ZM151.588 279.27C151.588 286.023 153.367 291.359 156.803 295.007C160.24 298.657 165.308 300.59 171.828 300.59V300.19C165.388 300.19 160.437 298.283 157.094 294.733C153.749 291.181 151.988 285.956 151.988 279.27H151.588ZM171.828 288.19C169.764 288.19 168.117 287.63 166.982 286.366C165.843 285.098 165.188 283.085 165.188 280.11H164.788C164.788 283.135 165.453 285.262 166.684 286.633C167.919 288.009 169.693 288.59 171.828 288.59V288.19ZM165.188 280.11V234.27H164.788V280.11H165.188ZM165.188 234.27C165.188 231.295 165.843 229.282 166.982 228.013C168.117 226.749 169.764 226.19 171.828 226.19V225.79C169.693 225.79 167.919 226.37 166.684 227.746C165.453 229.118 164.788 231.245 164.788 234.27H165.188ZM171.828 226.19C173.893 226.19 175.539 226.749 176.674 228.013C177.813 229.282 178.468 231.295 178.468 234.27H178.868C178.868 231.245 178.203 229.118 176.972 227.746C175.737 226.37 173.964 225.79 171.828 225.79V226.19ZM178.468 234.27V280.11H178.868V234.27H178.468ZM178.468 280.11C178.468 283.085 177.813 285.098 176.674 286.366C175.539 287.63 173.893 288.19 171.828 288.19V288.59C173.964 288.59 175.737 288.009 176.972 286.633C178.203 285.262 178.868 283.135 178.868 280.11H178.468ZM200.795 299.19H200.595V299.39H200.795V299.19ZM213.995 299.19V299.39H214.195V299.19H213.995ZM213.995 272.43L213.816 272.341L213.795 272.383V272.43H213.995ZM219.275 261.75L219.467 261.693L219.321 261.205L219.096 261.661L219.275 261.75ZM230.435 299.19L230.243 299.247L230.286 299.39H230.435V299.19ZM244.235 299.19V299.39H244.504L244.427 299.132L244.235 299.19ZM228.275 246.03L228.097 245.939L228.06 246.01L228.083 246.087L228.275 246.03ZM243.995 215.19L244.173 215.281L244.321 214.99H243.995V215.19ZM230.795 215.19V214.99H230.669L230.614 215.104L230.795 215.19ZM213.995 250.59H213.795L214.176 250.676L213.995 250.59ZM213.995 215.19H214.195V214.99H213.995V215.19ZM200.795 215.19V214.99H200.595V215.19H200.795ZM200.795 299.39H213.995V298.99H200.795V299.39ZM214.195 299.19V272.43H213.795V299.19H214.195ZM214.174 272.518L219.454 261.838L219.096 261.661L213.816 272.341L214.174 272.518ZM219.083 261.807L230.243 299.247L230.627 299.133L219.467 261.693L219.083 261.807ZM230.435 299.39H244.235V298.99H230.435V299.39ZM244.427 299.132L228.467 245.972L228.083 246.087L244.043 299.247L244.427 299.132ZM228.453 246.121L244.173 215.281L243.817 215.099L228.097 245.939L228.453 246.121ZM243.995 214.99H230.795V215.39H243.995V214.99ZM230.614 215.104L213.814 250.504L214.176 250.676L230.976 215.276L230.614 215.104ZM214.195 250.59V215.19H213.795V250.59H214.195ZM213.995 214.99H200.795V215.39H213.995V214.99ZM200.595 215.19V299.19H200.995V215.19H200.595ZM289.245 215.19H289.445V214.99H289.245V215.19ZM276.525 215.19V214.99H276.325V215.19H276.525ZM263.085 215.19H263.285V214.99H263.085V215.19ZM249.885 215.19V214.99H249.685V215.19H249.885ZM269.565 300.59C276.085 300.59 281.065 298.657 284.413 295.005C287.758 291.356 289.445 286.021 289.445 279.27H289.045C289.045 285.959 287.373 291.184 284.118 294.735C280.865 298.283 276.005 300.19 269.565 300.19V300.59ZM289.445 279.27V215.19H289.045V279.27H289.445ZM289.245 214.99H276.525V215.39H289.245V214.99ZM276.325 215.19V280.23H276.725V215.19H276.325ZM276.325 280.23C276.325 283.207 275.699 285.189 274.591 286.426C273.488 287.659 271.873 288.19 269.805 288.19V288.59C271.938 288.59 273.683 288.041 274.889 286.693C276.091 285.351 276.725 283.252 276.725 280.23H276.325ZM269.805 288.19C267.738 288.19 266.123 287.659 265.019 286.426C263.911 285.189 263.285 283.207 263.285 280.23H262.885C262.885 283.252 263.519 285.351 264.721 286.693C265.928 288.041 267.673 288.59 269.805 288.59V288.19ZM263.285 280.23V215.19H262.885V280.23H263.285ZM263.085 214.99H249.885V215.39H263.085V214.99ZM249.685 215.19V279.27H250.085V215.19H249.685ZM249.685 279.27C249.685 286.021 251.373 291.356 254.718 295.005C258.065 298.657 263.045 300.59 269.565 300.59V300.19C263.125 300.19 258.265 298.283 255.013 294.735C251.758 291.184 250.085 285.959 250.085 279.27H249.685ZM298.647 299.19H298.447V299.39H298.647V299.19ZM311.847 299.19V299.39H312.047V299.19H311.847ZM311.847 264.99V264.79H311.647V264.99H311.847ZM298.647 215.19V214.99H298.447V215.19H298.647ZM311.847 252.99H311.647V253.19H311.847V252.99ZM311.847 227.19V226.99H311.647V227.19H311.847ZM298.647 299.39H311.847V298.99H298.647V299.39ZM312.047 299.19V264.99H311.647V299.19H312.047ZM311.847 265.19H318.087V264.79H311.847V265.19ZM318.087 265.19C324.723 265.19 329.704 263.349 333.023 259.786C336.34 256.226 337.967 250.979 337.967 244.23H337.567C337.567 250.921 335.953 256.054 332.73 259.514C329.509 262.971 324.65 264.79 318.087 264.79V265.19ZM337.967 244.23V235.95H337.567V244.23H337.967ZM337.967 235.95C337.967 229.201 336.34 223.954 333.023 220.393C329.704 216.831 324.723 214.99 318.087 214.99V215.39C324.65 215.39 329.509 217.209 332.73 220.666C335.953 224.126 337.567 229.259 337.567 235.95H337.967ZM318.087 214.99H298.647V215.39H318.087V214.99ZM298.447 215.19V299.19H298.847V215.19H298.447ZM312.047 252.99V227.19H311.647V252.99H312.047ZM311.847 227.39H318.087V226.99H311.847V227.39ZM318.087 227.39C320.16 227.39 321.711 227.864 322.752 229.033C323.799 230.208 324.367 232.128 324.367 235.11H324.767C324.767 232.092 324.195 230.052 323.051 228.767C321.902 227.476 320.213 226.99 318.087 226.99V227.39ZM324.367 235.11V245.07H324.767V235.11H324.367ZM324.367 245.07C324.367 248.052 323.799 249.972 322.752 251.147C321.711 252.316 320.16 252.79 318.087 252.79V253.19C320.213 253.19 321.902 252.704 323.051 251.413C324.195 250.128 324.767 248.088 324.767 245.07H324.367ZM318.087 252.79H311.847V253.19H318.087V252.79Z" fill="#A8A8A8"/>
<path d="M134.38 194H154.18V140H161.02C170.02 140 173.44 143.78 173.44 155.48V178.52C173.44 188.78 174.16 190.76 175.24 194H195.4C193.42 189.32 193.24 184.82 193.24 178.7V156.56C193.24 142.34 190 132.98 180.1 129.92V129.56C188.92 125.96 193.06 117.68 193.06 104.72V96.98C193.06 77.54 184.24 68 163.72 68H134.38V194ZM154.18 122V86H163.18C170.2 86 173.26 89.96 173.26 98.96V108.68C173.26 118.76 168.76 122 161.38 122H154.18ZM236.138 195.8C255.578 195.8 266.198 184.28 266.198 164.12V141.62C266.198 123.08 258.818 112.82 244.238 112.82C235.418 112.82 229.658 116.6 226.238 123.8H225.878V99.68C225.878 87.62 229.838 84.2 236.858 84.2C243.158 84.2 247.118 87.62 247.118 96.62V100.22H265.838V97.88C265.838 77.72 255.758 66.2 236.318 66.2C215.798 66.2 206.078 77.72 206.078 98.96V164.12C206.078 184.28 216.698 195.8 236.138 195.8ZM236.138 177.8C229.298 177.8 225.878 173.84 225.878 165.56V143.24C225.878 134.78 229.298 130.82 236.138 130.82C242.978 130.82 246.398 134.78 246.398 143.24V165.56C246.398 173.84 242.978 177.8 236.138 177.8Z" fill="#FFD800"/>
<path d="M134.38 194H133.98V194.4H134.38V194ZM154.18 194V194.4H154.58V194H154.18ZM154.18 140V139.6H153.78V140H154.18ZM175.24 194L174.861 194.126L174.952 194.4H175.24V194ZM195.4 194V194.4H196.004L195.768 193.844L195.4 194ZM180.1 129.92H179.7V130.215L179.982 130.302L180.1 129.92ZM180.1 129.56L179.949 129.19L179.7 129.291V129.56H180.1ZM134.38 68V67.6H133.98V68H134.38ZM154.18 122H153.78V122.4H154.18V122ZM154.18 86V85.6H153.78V86H154.18ZM134.38 194.4H154.18V193.6H134.38V194.4ZM154.58 194V140H153.78V194H154.58ZM154.18 140.4H161.02V139.6H154.18V140.4ZM161.02 140.4C165.476 140.4 168.43 141.337 170.296 143.607C172.182 145.9 173.04 149.645 173.04 155.48H173.84C173.84 149.615 172.988 145.62 170.914 143.098C168.82 140.553 165.564 139.6 161.02 139.6V140.4ZM173.04 155.48V178.52H173.84V155.48H173.04ZM173.04 178.52C173.04 183.656 173.22 186.739 173.539 188.95C173.86 191.17 174.32 192.505 174.861 194.126L175.619 193.874C175.08 192.255 174.64 190.98 174.331 188.835C174.02 186.681 173.84 183.644 173.84 178.52H173.04ZM175.24 194.4H195.4V193.6H175.24V194.4ZM195.768 193.844C193.823 189.246 193.64 184.82 193.64 178.7H192.84C192.84 184.82 193.017 189.394 195.032 194.156L195.768 193.844ZM193.64 178.7V156.56H192.84V178.7H193.64ZM193.64 156.56C193.64 149.429 192.829 143.466 190.747 138.889C188.655 134.292 185.284 131.104 180.218 129.538L179.982 130.302C184.816 131.796 188.015 134.818 190.018 139.221C192.031 143.644 192.84 149.471 192.84 156.56H193.64ZM180.5 129.92V129.56H179.7V129.92H180.5ZM180.251 129.93C184.749 128.095 188.061 125.059 190.243 120.834C192.42 116.618 193.46 111.238 193.46 104.72H192.66C192.66 111.162 191.63 116.402 189.532 120.466C187.439 124.521 184.271 127.425 179.949 129.19L180.251 129.93ZM193.46 104.72V96.98H192.66V104.72H193.46ZM193.46 96.98C193.46 87.2079 191.244 79.8393 186.369 74.9185C181.494 69.9971 174.034 67.6 163.72 67.6V68.4C173.926 68.4 181.136 70.7729 185.801 75.4815C190.466 80.1907 192.66 87.3121 192.66 96.98H193.46ZM163.72 67.6H134.38V68.4H163.72V67.6ZM133.98 68V194H134.78V68H133.98ZM154.58 122V86H153.78V122H154.58ZM154.18 86.4H163.18V85.6H154.18V86.4ZM163.18 86.4C166.613 86.4 168.995 87.3647 170.537 89.3503C172.097 91.3596 172.86 94.4898 172.86 98.96H173.66C173.66 94.4302 172.893 91.0804 171.168 88.8597C169.425 86.6153 166.767 85.6 163.18 85.6V86.4ZM172.86 98.96V108.68H173.66V98.96H172.86ZM172.86 108.68C172.86 113.67 171.745 116.876 169.803 118.839C167.863 120.8 165.02 121.6 161.38 121.6V122.4C165.12 122.4 168.217 121.58 170.372 119.401C172.525 117.224 173.66 113.77 173.66 108.68H172.86ZM161.38 121.6H154.18V122.4H161.38V121.6ZM226.238 123.8V124.2H226.49L226.599 123.972L226.238 123.8ZM225.878 123.8H225.478V124.2H225.878V123.8ZM247.118 100.22H246.718V100.62H247.118V100.22ZM265.838 100.22V100.62H266.238V100.22H265.838ZM236.138 196.2C245.937 196.2 253.57 193.294 258.749 187.794C263.925 182.298 266.598 174.267 266.598 164.12H265.798C265.798 174.133 263.161 181.942 258.166 187.246C253.176 192.546 245.778 195.4 236.138 195.4V196.2ZM266.598 164.12V141.62H265.798V164.12H266.598ZM266.598 141.62C266.598 132.307 264.746 125.007 261.005 120.027C257.25 115.028 251.632 112.42 244.238 112.42V113.22C251.424 113.22 256.786 115.742 260.365 120.508C263.96 125.293 265.798 132.393 265.798 141.62H266.598ZM244.238 112.42C239.77 112.42 236.048 113.378 233.002 115.27C229.955 117.163 227.613 119.973 225.876 123.628L226.599 123.972C228.283 120.427 230.531 117.747 233.424 115.95C236.318 114.152 239.886 113.22 244.238 113.22V112.42ZM226.238 123.4H225.878V124.2H226.238V123.4ZM226.278 123.8V99.68H225.478V123.8H226.278ZM226.278 99.68C226.278 93.6753 227.267 89.9195 229.049 87.6655C230.81 85.4378 233.41 84.6 236.858 84.6V83.8C233.285 83.8 230.395 84.6722 228.421 87.1694C226.468 89.6405 225.478 93.6247 225.478 99.68H226.278ZM236.858 84.6C239.937 84.6 242.375 85.434 244.053 87.3022C245.737 89.1791 246.718 92.1697 246.718 96.62H247.518C247.518 92.0703 246.518 88.8509 244.648 86.7678C242.77 84.676 240.079 83.8 236.858 83.8V84.6ZM246.718 96.62V100.22H247.518V96.62H246.718ZM247.118 100.62H265.838V99.82H247.118V100.62ZM266.238 100.22V97.88H265.438V100.22H266.238ZM266.238 97.88C266.238 87.7383 263.702 79.7076 258.663 74.2097C253.618 68.7061 246.118 65.8 236.318 65.8V66.6C245.958 66.6 253.218 69.4539 258.073 74.7503C262.933 80.0524 265.438 87.8616 265.438 97.88H266.238ZM236.318 65.8C225.983 65.8 218.299 68.7029 213.206 74.347C208.119 79.9835 205.678 88.2866 205.678 98.96H206.478C206.478 88.3934 208.896 80.3165 213.8 74.883C218.696 69.4571 226.132 66.6 236.318 66.6V65.8ZM205.678 98.96V164.12H206.478V98.96H205.678ZM205.678 164.12C205.678 174.267 208.351 182.298 213.526 187.794C218.706 193.294 226.338 196.2 236.138 196.2V195.4C226.497 195.4 219.1 192.546 214.109 187.246C209.115 181.942 206.478 174.133 206.478 164.12H205.678ZM236.138 177.4C232.796 177.4 230.36 176.436 228.748 174.527C227.125 172.605 226.278 169.655 226.278 165.56H225.478C225.478 169.745 226.34 172.915 228.137 175.043C229.945 177.184 232.639 178.2 236.138 178.2V177.4ZM226.278 165.56V143.24H225.478V165.56H226.278ZM226.278 143.24C226.278 139.053 227.126 136.058 228.75 134.114C230.361 132.184 232.796 131.22 236.138 131.22V130.42C232.639 130.42 229.944 131.436 228.136 133.601C226.34 135.752 225.478 138.967 225.478 143.24H226.278ZM236.138 131.22C239.479 131.22 241.914 132.184 243.526 134.114C245.15 136.058 245.998 139.053 245.998 143.24H246.798C246.798 138.967 245.936 135.752 244.14 133.601C242.331 131.436 239.636 130.42 236.138 130.42V131.22ZM245.998 143.24V165.56H246.798V143.24H245.998ZM245.998 165.56C245.998 169.655 245.15 172.605 243.527 174.527C241.915 176.436 239.479 177.4 236.138 177.4V178.2C239.636 178.2 242.33 177.184 244.138 175.043C245.935 172.915 246.798 169.745 246.798 165.56H245.998Z" fill="#BC9F00"/>
<path d="M107.984 334.427H110.624V327.227H111.536C112.736 327.227 113.192 327.731 113.192 329.291V332.363C113.192 333.731 113.288 333.995 113.432 334.427H116.12C115.856 333.803 115.832 333.203 115.832 332.387V329.435C115.832 327.539 115.4 326.291 114.08 325.883V325.835C115.256 325.355 115.808 324.251 115.808 322.523V321.491C115.808 318.899 114.632 317.627 111.896 317.627H107.984V334.427ZM110.624 324.827V320.027H111.824C112.76 320.027 113.168 320.555 113.168 321.755V323.051C113.168 324.395 112.568 324.827 111.584 324.827H110.624ZM122.872 334.667C125.464 334.667 126.88 333.131 126.88 330.443V327.443C126.88 324.971 125.896 323.603 123.952 323.603C122.776 323.603 122.008 324.107 121.552 325.067H121.504V321.851C121.504 320.243 122.032 319.787 122.968 319.787C123.808 319.787 124.336 320.243 124.336 321.443V321.923H126.832V321.611C126.832 318.923 125.488 317.387 122.896 317.387C120.16 317.387 118.864 318.923 118.864 321.755V330.443C118.864 333.131 120.28 334.667 122.872 334.667ZM122.872 332.267C121.96 332.267 121.504 331.739 121.504 330.635V327.659C121.504 326.531 121.96 326.003 122.872 326.003C123.784 326.003 124.24 326.531 124.24 327.659V330.635C124.24 331.739 123.784 332.267 122.872 332.267ZM135.077 334.427H137.717V327.587H138.965C141.605 327.587 142.901 326.123 142.901 323.435V321.779C142.901 319.091 141.605 317.627 138.965 317.627H135.077V334.427ZM137.717 325.187V320.027H138.965C139.805 320.027 140.261 320.411 140.261 321.611V323.603C140.261 324.803 139.805 325.187 138.965 325.187H137.717ZM145.655 334.427H152.639V332.027H148.295V317.627H145.655V334.427ZM154.622 334.427H157.07L157.55 331.139H160.55V331.091L161.03 334.427H163.67L160.934 317.627H157.358L154.622 334.427ZM157.862 328.859L159.014 320.555H159.062L160.238 328.859H157.862ZM167.594 334.427H170.234V327.275L173.426 317.627H170.858L169.058 323.795H169.01L167.21 317.627H164.402L167.594 327.275V334.427ZM175.935 334.427H183.135V332.027H178.575V326.867H182.199V324.467H178.575V320.027H183.135V317.627H175.935V334.427ZM185.974 334.427H188.614V327.227H189.526C190.726 327.227 191.182 327.731 191.182 329.291V332.363C191.182 333.731 191.278 333.995 191.422 334.427H194.11C193.846 333.803 193.822 333.203 193.822 332.387V329.435C193.822 327.539 193.39 326.291 192.07 325.883V325.835C193.246 325.355 193.798 324.251 193.798 322.523V321.491C193.798 318.899 192.622 317.627 189.886 317.627H185.974V334.427ZM188.614 324.827V320.027H189.814C190.75 320.027 191.158 320.555 191.158 321.755V323.051C191.158 324.395 190.558 324.827 189.574 324.827H188.614ZM205.569 334.667C208.161 334.667 209.553 333.131 209.553 330.395C209.553 328.307 208.857 326.963 206.649 325.019C204.921 323.507 204.369 322.619 204.369 321.395C204.369 320.243 204.849 319.787 205.689 319.787C206.529 319.787 207.009 320.243 207.009 321.443V322.307H209.505V321.611C209.505 318.923 208.233 317.387 205.665 317.387C203.097 317.387 201.729 318.923 201.729 321.563C201.729 323.483 202.449 324.851 204.657 326.795C206.385 328.307 206.913 329.195 206.913 330.587C206.913 331.835 206.385 332.267 205.545 332.267C204.705 332.267 204.177 331.835 204.177 330.635V329.483H201.681V330.443C201.681 333.131 202.977 334.667 205.569 334.667ZM214.451 334.427H217.091V320.027H219.851V317.627H211.691V320.027H214.451V334.427ZM220.651 334.427H223.099L223.579 331.139H226.579V331.091L227.059 334.427H229.699L226.963 317.627H223.387L220.651 334.427ZM223.891 328.859L225.043 320.555H225.091L226.267 328.859H223.891ZM233.263 334.427H235.903V320.027H238.663V317.627H230.503V320.027H233.263V334.427ZM241.261 334.427H243.901V317.627H241.261V334.427ZM250.63 334.667C253.222 334.667 254.614 333.131 254.614 330.395C254.614 328.307 253.918 326.963 251.71 325.019C249.982 323.507 249.43 322.619 249.43 321.395C249.43 320.243 249.91 319.787 250.75 319.787C251.59 319.787 252.07 320.243 252.07 321.443V322.307H254.566V321.611C254.566 318.923 253.294 317.387 250.726 317.387C248.158 317.387 246.79 318.923 246.79 321.563C246.79 323.483 247.51 324.851 249.718 326.795C251.446 328.307 251.974 329.195 251.974 330.587C251.974 331.835 251.446 332.267 250.606 332.267C249.766 332.267 249.238 331.835 249.238 330.635V329.483H246.742V330.443C246.742 333.131 248.038 334.667 250.63 334.667ZM259.512 334.427H262.152V320.027H264.912V317.627H256.752V320.027H259.512V334.427ZM267.51 334.427H270.15V317.627H267.51V334.427ZM277.167 334.667C279.711 334.667 281.055 333.131 281.055 330.539V328.163H278.559V330.731C278.559 331.835 278.031 332.267 277.239 332.267C276.447 332.267 275.919 331.835 275.919 330.731V321.347C275.919 320.243 276.447 319.787 277.239 319.787C278.031 319.787 278.559 320.243 278.559 321.347V323.291H281.055V321.515C281.055 318.923 279.711 317.387 277.167 317.387C274.623 317.387 273.279 318.923 273.279 321.515V330.539C273.279 333.131 274.623 334.667 277.167 334.667ZM287.434 334.667C290.026 334.667 291.418 333.131 291.418 330.395C291.418 328.307 290.722 326.963 288.514 325.019C286.786 323.507 286.234 322.619 286.234 321.395C286.234 320.243 286.714 319.787 287.554 319.787C288.394 319.787 288.874 320.243 288.874 321.443V322.307H291.37V321.611C291.37 318.923 290.098 317.387 287.53 317.387C284.962 317.387 283.594 318.923 283.594 321.563C283.594 323.483 284.314 324.851 286.522 326.795C288.25 328.307 288.778 329.195 288.778 330.587C288.778 331.835 288.25 332.267 287.41 332.267C286.57 332.267 286.042 331.835 286.042 330.635V329.483H283.546V330.443C283.546 333.131 284.842 334.667 287.434 334.667Z" fill="#FFD800"/>
<path d="M107.984 334.427H107.784V334.627H107.984V334.427ZM110.624 334.427V334.627H110.824V334.427H110.624ZM110.624 327.227V327.027H110.424V327.227H110.624ZM113.432 334.427L113.242 334.49L113.288 334.627H113.432V334.427ZM116.12 334.427V334.627H116.422L116.304 334.349L116.12 334.427ZM114.08 325.883H113.88V326.031L114.021 326.074L114.08 325.883ZM114.08 325.835L114.004 325.65L113.88 325.701V325.835H114.08ZM107.984 317.627V317.427H107.784V317.627H107.984ZM110.624 324.827H110.424V325.027H110.624V324.827ZM110.624 320.027V319.827H110.424V320.027H110.624ZM107.984 334.627H110.624V334.227H107.984V334.627ZM110.824 334.427V327.227H110.424V334.427H110.824ZM110.624 327.427H111.536V327.027H110.624V327.427ZM111.536 327.427C112.114 327.427 112.452 327.549 112.66 327.801C112.876 328.065 112.992 328.519 112.992 329.291H113.392C113.392 328.503 113.28 327.925 112.968 327.547C112.648 327.157 112.158 327.027 111.536 327.027V327.427ZM112.992 329.291V332.363H113.392V329.291H112.992ZM112.992 332.363C112.992 333.05 113.016 333.469 113.06 333.775C113.105 334.085 113.17 334.274 113.242 334.49L113.622 334.364C113.55 334.149 113.495 333.989 113.456 333.718C113.416 333.441 113.392 333.044 113.392 332.363H112.992ZM113.432 334.627H116.12V334.227H113.432V334.627ZM116.304 334.349C116.058 333.766 116.032 333.203 116.032 332.387H115.632C115.632 333.203 115.654 333.84 115.936 334.505L116.304 334.349ZM116.032 332.387V329.435H115.632V332.387H116.032ZM116.032 329.435C116.032 328.476 115.924 327.657 115.633 327.018C115.338 326.37 114.857 325.914 114.139 325.692L114.021 326.074C114.623 326.26 115.018 326.633 115.269 327.184C115.524 327.745 115.632 328.498 115.632 329.435H116.032ZM114.28 325.883V325.835H113.88V325.883H114.28ZM114.156 326.02C114.787 325.762 115.256 325.334 115.563 324.739C115.867 324.149 116.008 323.406 116.008 322.523H115.608C115.608 323.368 115.473 324.041 115.207 324.555C114.944 325.065 114.549 325.428 114.004 325.65L114.156 326.02ZM116.008 322.523V321.491H115.608V322.523H116.008ZM116.008 321.491C116.008 320.169 115.708 319.141 115.02 318.446C114.331 317.751 113.291 317.427 111.896 317.427V317.827C113.237 317.827 114.153 318.139 114.736 318.728C115.32 319.317 115.608 320.221 115.608 321.491H116.008ZM111.896 317.427H107.984V317.827H111.896V317.427ZM107.784 317.627V334.427H108.184V317.627H107.784ZM110.824 324.827V320.027H110.424V324.827H110.824ZM110.624 320.227H111.824V319.827H110.624V320.227ZM111.824 320.227C112.254 320.227 112.52 320.346 112.689 320.564C112.867 320.793 112.968 321.17 112.968 321.755H113.368C113.368 321.14 113.265 320.653 113.005 320.318C112.736 319.972 112.33 319.827 111.824 319.827V320.227ZM112.968 321.755V323.051H113.368V321.755H112.968ZM112.968 323.051C112.968 323.698 112.823 324.08 112.603 324.302C112.384 324.524 112.051 324.627 111.584 324.627V325.027C112.101 325.027 112.56 324.914 112.887 324.584C113.213 324.254 113.368 323.748 113.368 323.051H112.968ZM111.584 324.627H110.624V325.027H111.584V324.627ZM121.552 325.067V325.267H121.678L121.732 325.153L121.552 325.067ZM121.504 325.067H121.304V325.267H121.504V325.067ZM124.336 321.923H124.136V322.123H124.336V321.923ZM126.832 321.923V322.123H127.032V321.923H126.832ZM122.872 334.867C124.208 334.867 125.268 334.47 125.993 333.7C126.717 332.932 127.08 331.82 127.08 330.443H126.68C126.68 331.754 126.335 332.754 125.702 333.426C125.071 334.096 124.128 334.467 122.872 334.467V334.867ZM127.08 330.443V327.443H126.68V330.443H127.08ZM127.08 327.443C127.08 326.185 126.83 325.176 126.305 324.476C125.772 323.767 124.976 323.403 123.952 323.403V323.803C124.872 323.803 125.54 324.124 125.985 324.716C126.437 325.319 126.68 326.229 126.68 327.443H127.08ZM123.952 323.403C123.335 323.403 122.81 323.536 122.376 323.805C121.942 324.075 121.612 324.473 121.371 324.981L121.732 325.153C121.947 324.701 122.23 324.367 122.587 324.145C122.945 323.923 123.393 323.803 123.952 323.803V323.403ZM121.552 324.867H121.504V325.267H121.552V324.867ZM121.704 325.067V321.851H121.304V325.067H121.704ZM121.704 321.851C121.704 321.06 121.836 320.601 122.042 320.34C122.237 320.093 122.531 319.987 122.968 319.987V319.587C122.468 319.587 122.03 319.71 121.728 320.092C121.436 320.461 121.304 321.034 121.304 321.851H121.704ZM122.968 319.987C123.352 319.987 123.631 320.091 123.818 320.299C124.009 320.511 124.136 320.868 124.136 321.443H124.536C124.536 320.818 124.399 320.347 124.116 320.031C123.828 319.712 123.423 319.587 122.968 319.587V319.987ZM124.136 321.443V321.923H124.536V321.443H124.136ZM124.336 322.123H126.832V321.723H124.336V322.123ZM127.032 321.923V321.611H126.632V321.923H127.032ZM127.032 321.611C127.032 320.236 126.688 319.125 125.983 318.356C125.276 317.584 124.232 317.187 122.896 317.187V317.587C124.152 317.587 125.076 317.958 125.688 318.626C126.303 319.297 126.632 320.298 126.632 321.611H127.032ZM122.896 317.187C121.491 317.187 120.42 317.583 119.705 318.375C118.993 319.164 118.664 320.312 118.664 321.755H119.064C119.064 320.366 119.382 319.33 120.002 318.643C120.619 317.96 121.565 317.587 122.896 317.587V317.187ZM118.664 321.755V330.443H119.064V321.755H118.664ZM118.664 330.443C118.664 331.82 119.027 332.932 119.75 333.7C120.475 334.47 121.536 334.867 122.872 334.867V334.467C121.616 334.467 120.672 334.096 120.041 333.426C119.409 332.754 119.064 331.754 119.064 330.443H118.664ZM122.872 332.067C122.455 332.067 122.177 331.948 121.998 331.736C121.814 331.517 121.704 331.165 121.704 330.635H121.304C121.304 331.209 121.421 331.673 121.693 331.994C121.97 332.322 122.376 332.467 122.872 332.467V332.067ZM121.704 330.635V327.659H121.304V330.635H121.704ZM121.704 327.659C121.704 327.117 121.814 326.758 121.999 326.536C122.178 326.322 122.455 326.203 122.872 326.203V325.803C122.376 325.803 121.969 325.948 121.692 326.28C121.421 326.604 121.304 327.074 121.304 327.659H121.704ZM122.872 326.203C123.288 326.203 123.565 326.322 123.744 326.536C123.929 326.758 124.04 327.117 124.04 327.659H124.44C124.44 327.074 124.322 326.604 124.051 326.28C123.774 325.948 123.367 325.803 122.872 325.803V326.203ZM124.04 327.659V330.635H124.44V327.659H124.04ZM124.04 330.635C124.04 331.165 123.929 331.517 123.745 331.736C123.566 331.948 123.288 332.067 122.872 332.067V332.467C123.367 332.467 123.773 332.322 124.05 331.994C124.322 331.673 124.44 331.209 124.44 330.635H124.04ZM135.077 334.427H134.877V334.627H135.077V334.427ZM137.717 334.427V334.627H137.917V334.427H137.717ZM137.717 327.587V327.387H137.517V327.587H137.717ZM135.077 317.627V317.427H134.877V317.627H135.077ZM137.717 325.187H137.517V325.387H137.717V325.187ZM137.717 320.027V319.827H137.517V320.027H137.717ZM135.077 334.627H137.717V334.227H135.077V334.627ZM137.917 334.427V327.587H137.517V334.427H137.917ZM137.717 327.787H138.965V327.387H137.717V327.787ZM138.965 327.787C140.321 327.787 141.366 327.41 142.069 326.655C142.77 325.903 143.101 324.808 143.101 323.435H142.701C142.701 324.75 142.384 325.731 141.776 326.383C141.172 327.032 140.248 327.387 138.965 327.387V327.787ZM143.101 323.435V321.779H142.701V323.435H143.101ZM143.101 321.779C143.101 320.406 142.77 319.311 142.069 318.559C141.366 317.804 140.321 317.427 138.965 317.427V317.827C140.248 317.827 141.172 318.182 141.776 318.831C142.384 319.483 142.701 320.464 142.701 321.779H143.101ZM138.965 317.427H135.077V317.827H138.965V317.427ZM134.877 317.627V334.427H135.277V317.627H134.877ZM137.917 325.187V320.027H137.517V325.187H137.917ZM137.717 320.227H138.965V319.827H137.717V320.227ZM138.965 320.227C139.358 320.227 139.614 320.317 139.778 320.502C139.949 320.693 140.061 321.029 140.061 321.611H140.461C140.461 320.993 140.345 320.537 140.077 320.236C139.804 319.929 139.412 319.827 138.965 319.827V320.227ZM140.061 321.611V323.603H140.461V321.611H140.061ZM140.061 323.603C140.061 324.185 139.949 324.521 139.778 324.712C139.614 324.897 139.358 324.987 138.965 324.987V325.387C139.412 325.387 139.804 325.285 140.077 324.978C140.345 324.677 140.461 324.221 140.461 323.603H140.061ZM138.965 324.987H137.717V325.387H138.965V324.987ZM145.655 334.427H145.455V334.627H145.655V334.427ZM152.639 334.427V334.627H152.839V334.427H152.639ZM152.639 332.027H152.839V331.827H152.639V332.027ZM148.295 332.027H148.095V332.227H148.295V332.027ZM148.295 317.627H148.495V317.427H148.295V317.627ZM145.655 317.627V317.427H145.455V317.627H145.655ZM145.655 334.627H152.639V334.227H145.655V334.627ZM152.839 334.427V332.027H152.439V334.427H152.839ZM152.639 331.827H148.295V332.227H152.639V331.827ZM148.495 332.027V317.627H148.095V332.027H148.495ZM148.295 317.427H145.655V317.827H148.295V317.427ZM145.455 317.627V334.427H145.855V317.627H145.455ZM154.622 334.427L154.425 334.395L154.387 334.627H154.622V334.427ZM157.07 334.427V334.627H157.243L157.268 334.456L157.07 334.427ZM157.55 331.139V330.939H157.377L157.352 331.11L157.55 331.139ZM160.55 331.139V331.339H160.75V331.139H160.55ZM160.55 331.091L160.748 331.063L160.35 331.091H160.55ZM161.03 334.427L160.832 334.456L160.857 334.627H161.03V334.427ZM163.67 334.427V334.627H163.906L163.868 334.395L163.67 334.427ZM160.934 317.627L161.132 317.595L161.104 317.427H160.934V317.627ZM157.358 317.627V317.427H157.188L157.161 317.595L157.358 317.627ZM157.862 328.859L157.664 328.832L157.633 329.059H157.862V328.859ZM159.014 320.555V320.355H158.84L158.816 320.528L159.014 320.555ZM159.062 320.555L159.26 320.527L159.236 320.355H159.062V320.555ZM160.238 328.859V329.059H160.469L160.436 328.831L160.238 328.859ZM154.622 334.627H157.07V334.227H154.622V334.627ZM157.268 334.456L157.748 331.168L157.352 331.11L156.872 334.398L157.268 334.456ZM157.55 331.339H160.55V330.939H157.55V331.339ZM160.75 331.139V331.091H160.35V331.139H160.75ZM160.352 331.12L160.832 334.456L161.228 334.399L160.748 331.063L160.352 331.12ZM161.03 334.627H163.67V334.227H161.03V334.627ZM163.868 334.395L161.132 317.595L160.737 317.659L163.473 334.459L163.868 334.395ZM160.934 317.427H157.358V317.827H160.934V317.427ZM157.161 317.595L154.425 334.395L154.82 334.459L157.556 317.659L157.161 317.595ZM158.06 328.887L159.212 320.583L158.816 320.528L157.664 328.832L158.06 328.887ZM159.014 320.755H159.062V320.355H159.014V320.755ZM158.864 320.583L160.04 328.887L160.436 328.831L159.26 320.527L158.864 320.583ZM160.238 328.659H157.862V329.059H160.238V328.659ZM167.594 334.427H167.394V334.627H167.594V334.427ZM170.234 334.427V334.627H170.434V334.427H170.234ZM170.234 327.275L170.044 327.212L170.034 327.243V327.275H170.234ZM173.426 317.627L173.616 317.69L173.702 317.427H173.426V317.627ZM170.858 317.627V317.427H170.708L170.666 317.571L170.858 317.627ZM169.058 323.795V323.995H169.208L169.25 323.851L169.058 323.795ZM169.01 323.795L168.818 323.851L168.86 323.995H169.01V323.795ZM167.21 317.627L167.402 317.571L167.36 317.427H167.21V317.627ZM164.402 317.627V317.427H164.125L164.212 317.69L164.402 317.627ZM167.594 327.275H167.794V327.243L167.784 327.212L167.594 327.275ZM167.594 334.627H170.234V334.227H167.594V334.627ZM170.434 334.427V327.275H170.034V334.427H170.434ZM170.424 327.338L173.616 317.69L173.236 317.564L170.044 327.212L170.424 327.338ZM173.426 317.427H170.858V317.827H173.426V317.427ZM170.666 317.571L168.866 323.739L169.25 323.851L171.05 317.683L170.666 317.571ZM169.058 323.595H169.01V323.995H169.058V323.595ZM169.202 323.739L167.402 317.571L167.018 317.683L168.818 323.851L169.202 323.739ZM167.21 317.427H164.402V317.827H167.21V317.427ZM164.212 317.69L167.404 327.338L167.784 327.212L164.592 317.564L164.212 317.69ZM167.394 327.275V334.427H167.794V327.275H167.394ZM175.935 334.427H175.735V334.627H175.935V334.427ZM183.135 334.427V334.627H183.335V334.427H183.135ZM183.135 332.027H183.335V331.827H183.135V332.027ZM178.575 332.027H178.375V332.227H178.575V332.027ZM178.575 326.867V326.667H178.375V326.867H178.575ZM182.199 326.867V327.067H182.399V326.867H182.199ZM182.199 324.467H182.399V324.267H182.199V324.467ZM178.575 324.467H178.375V324.667H178.575V324.467ZM178.575 320.027V319.827H178.375V320.027H178.575ZM183.135 320.027V320.227H183.335V320.027H183.135ZM183.135 317.627H183.335V317.427H183.135V317.627ZM175.935 317.627V317.427H175.735V317.627H175.935ZM175.935 334.627H183.135V334.227H175.935V334.627ZM183.335 334.427V332.027H182.935V334.427H183.335ZM183.135 331.827H178.575V332.227H183.135V331.827ZM178.775 332.027V326.867H178.375V332.027H178.775ZM178.575 327.067H182.199V326.667H178.575V327.067ZM182.399 326.867V324.467H181.999V326.867H182.399ZM182.199 324.267H178.575V324.667H182.199V324.267ZM178.775 324.467V320.027H178.375V324.467H178.775ZM178.575 320.227H183.135V319.827H178.575V320.227ZM183.335 320.027V317.627H182.935V320.027H183.335ZM183.135 317.427H175.935V317.827H183.135V317.427ZM175.735 317.627V334.427H176.135V317.627H175.735ZM185.974 334.427H185.774V334.627H185.974V334.427ZM188.614 334.427V334.627H188.814V334.427H188.614ZM188.614 327.227V327.027H188.414V327.227H188.614ZM191.422 334.427L191.232 334.49L191.278 334.627H191.422V334.427ZM194.11 334.427V334.627H194.411L194.294 334.349L194.11 334.427ZM192.07 325.883H191.87V326.031L192.011 326.074L192.07 325.883ZM192.07 325.835L191.994 325.65L191.87 325.701V325.835H192.07ZM185.974 317.627V317.427H185.774V317.627H185.974ZM188.614 324.827H188.414V325.027H188.614V324.827ZM188.614 320.027V319.827H188.414V320.027H188.614ZM185.974 334.627H188.614V334.227H185.974V334.627ZM188.814 334.427V327.227H188.414V334.427H188.814ZM188.614 327.427H189.526V327.027H188.614V327.427ZM189.526 327.427C190.104 327.427 190.442 327.549 190.649 327.801C190.866 328.065 190.982 328.519 190.982 329.291H191.382C191.382 328.503 191.269 327.925 190.958 327.547C190.637 327.157 190.148 327.027 189.526 327.027V327.427ZM190.982 329.291V332.363H191.382V329.291H190.982ZM190.982 332.363C190.982 333.05 191.006 333.469 191.05 333.775C191.095 334.085 191.16 334.274 191.232 334.49L191.611 334.364C191.54 334.149 191.485 333.989 191.446 333.718C191.406 333.441 191.382 333.044 191.382 332.363H190.982ZM191.422 334.627H194.11V334.227H191.422V334.627ZM194.294 334.349C194.047 333.766 194.022 333.203 194.022 332.387H193.622C193.622 333.203 193.644 333.84 193.925 334.505L194.294 334.349ZM194.022 332.387V329.435H193.622V332.387H194.022ZM194.022 329.435C194.022 328.476 193.913 327.657 193.623 327.018C193.328 326.37 192.847 325.914 192.129 325.692L192.011 326.074C192.613 326.26 193.008 326.633 193.259 327.184C193.514 327.745 193.622 328.498 193.622 329.435H194.022ZM192.27 325.883V325.835H191.87V325.883H192.27ZM192.145 326.02C192.777 325.762 193.245 325.334 193.552 324.739C193.857 324.149 193.998 323.406 193.998 322.523H193.598C193.598 323.368 193.462 324.041 193.197 324.555C192.934 325.065 192.538 325.428 191.994 325.65L192.145 326.02ZM193.998 322.523V321.491H193.598V322.523H193.998ZM193.998 321.491C193.998 320.169 193.698 319.141 193.01 318.446C192.321 317.751 191.281 317.427 189.886 317.427V317.827C191.227 317.827 192.142 318.139 192.726 318.728C193.309 319.317 193.598 320.221 193.598 321.491H193.998ZM189.886 317.427H185.974V317.827H189.886V317.427ZM185.774 317.627V334.427H186.174V317.627H185.774ZM188.814 324.827V320.027H188.414V324.827H188.814ZM188.614 320.227H189.814V319.827H188.614V320.227ZM189.814 320.227C190.243 320.227 190.51 320.346 190.679 320.564C190.857 320.793 190.958 321.17 190.958 321.755H191.358C191.358 321.14 191.255 320.653 190.995 320.318C190.725 319.972 190.32 319.827 189.814 319.827V320.227ZM190.958 321.755V323.051H191.358V321.755H190.958ZM190.958 323.051C190.958 323.698 190.813 324.08 190.592 324.302C190.373 324.524 190.041 324.627 189.574 324.627V325.027C190.091 325.027 190.55 324.914 190.877 324.584C191.203 324.254 191.358 323.748 191.358 323.051H190.958ZM189.574 324.627H188.614V325.027H189.574V324.627ZM206.649 325.019L206.781 324.869L206.781 324.869L206.649 325.019ZM207.009 322.307H206.809V322.507H207.009V322.307ZM209.505 322.307V322.507H209.705V322.307H209.505ZM204.657 326.795L204.525 326.945L204.525 326.946L204.657 326.795ZM204.177 329.483H204.377V329.283H204.177V329.483ZM201.681 329.483V329.283H201.481V329.483H201.681ZM205.569 334.867C206.905 334.867 207.961 334.47 208.68 333.693C209.397 332.918 209.753 331.795 209.753 330.395H209.353C209.353 331.731 209.013 332.744 208.386 333.421C207.762 334.096 206.825 334.467 205.569 334.467V334.867ZM209.753 330.395C209.753 329.326 209.574 328.434 209.105 327.559C208.639 326.688 207.893 325.848 206.781 324.869L206.517 325.169C207.613 326.135 208.319 326.938 208.753 327.748C209.184 328.552 209.353 329.376 209.353 330.395H209.753ZM206.781 324.869C205.921 324.116 205.369 323.531 205.031 322.993C204.697 322.462 204.569 321.971 204.569 321.395H204.169C204.169 322.043 204.317 322.608 204.692 323.205C205.062 323.795 205.65 324.41 206.517 325.17L206.781 324.869ZM204.569 321.395C204.569 320.842 204.685 320.496 204.865 320.291C205.039 320.09 205.305 319.987 205.689 319.987V319.587C205.234 319.587 204.839 319.712 204.563 320.028C204.293 320.338 204.169 320.797 204.169 321.395H204.569ZM205.689 319.987C206.073 319.987 206.338 320.09 206.512 320.295C206.692 320.506 206.809 320.864 206.809 321.443H207.209C207.209 320.822 207.086 320.352 206.816 320.035C206.541 319.712 206.145 319.587 205.689 319.587V319.987ZM206.809 321.443V322.307H207.209V321.443H206.809ZM207.009 322.507H209.505V322.107H207.009V322.507ZM209.705 322.307V321.611H209.305V322.307H209.705ZM209.705 321.611C209.705 320.239 209.381 319.128 208.698 318.358C208.011 317.585 206.99 317.187 205.665 317.187V317.587C206.908 317.587 207.807 317.958 208.399 318.624C208.994 319.294 209.305 320.295 209.305 321.611H209.705ZM205.665 317.187C204.341 317.187 203.298 317.584 202.588 318.349C201.88 319.111 201.529 320.211 201.529 321.563H201.929C201.929 320.276 202.263 319.287 202.881 318.621C203.497 317.958 204.422 317.587 205.665 317.587V317.187ZM201.529 321.563C201.529 322.552 201.715 323.408 202.19 324.267C202.662 325.121 203.413 325.967 204.525 326.945L204.789 326.645C203.693 325.68 202.98 324.869 202.54 324.073C202.103 323.282 201.929 322.495 201.929 321.563H201.529ZM204.525 326.946C205.385 327.698 205.93 328.281 206.261 328.838C206.588 329.388 206.713 329.921 206.713 330.587H207.113C207.113 329.861 206.974 329.255 206.605 328.634C206.24 328.021 205.657 327.404 204.789 326.645L204.525 326.946ZM206.713 330.587C206.713 331.188 206.585 331.55 206.395 331.761C206.21 331.968 205.932 332.067 205.545 332.067V332.467C205.998 332.467 206.404 332.35 206.693 332.029C206.977 331.712 207.113 331.234 207.113 330.587H206.713ZM205.545 332.067C205.158 332.067 204.879 331.968 204.693 331.766C204.504 331.56 204.377 331.21 204.377 330.635H203.977C203.977 331.26 204.114 331.726 204.399 332.036C204.687 332.35 205.093 332.467 205.545 332.467V332.067ZM204.377 330.635V329.483H203.977V330.635H204.377ZM204.177 329.283H201.681V329.683H204.177V329.283ZM201.481 329.483V330.443H201.881V329.483H201.481ZM201.481 330.443C201.481 331.816 201.812 332.927 202.504 333.697C203.2 334.47 204.233 334.867 205.569 334.867V334.467C204.313 334.467 203.402 334.096 202.802 333.429C202.198 332.759 201.881 331.758 201.881 330.443H201.481ZM214.451 334.427H214.251V334.627H214.451V334.427ZM217.091 334.427V334.627H217.291V334.427H217.091ZM217.091 320.027V319.827H216.891V320.027H217.091ZM219.851 320.027V320.227H220.051V320.027H219.851ZM219.851 317.627H220.051V317.427H219.851V317.627ZM211.691 317.627V317.427H211.491V317.627H211.691ZM211.691 320.027H211.491V320.227H211.691V320.027ZM214.451 320.027H214.651V319.827H214.451V320.027ZM214.451 334.627H217.091V334.227H214.451V334.627ZM217.291 334.427V320.027H216.891V334.427H217.291ZM217.091 320.227H219.851V319.827H217.091V320.227ZM220.051 320.027V317.627H219.651V320.027H220.051ZM219.851 317.427H211.691V317.827H219.851V317.427ZM211.491 317.627V320.027H211.891V317.627H211.491ZM211.691 320.227H214.451V319.827H211.691V320.227ZM214.251 320.027V334.427H214.651V320.027H214.251ZM220.651 334.427L220.454 334.395L220.416 334.627H220.651V334.427ZM223.099 334.427V334.627H223.272L223.297 334.456L223.099 334.427ZM223.579 331.139V330.939H223.407L223.382 331.11L223.579 331.139ZM226.579 331.139V331.339H226.779V331.139H226.579ZM226.579 331.091L226.777 331.063L226.379 331.091H226.579ZM227.059 334.427L226.861 334.456L226.886 334.627H227.059V334.427ZM229.699 334.427V334.627H229.935L229.897 334.395L229.699 334.427ZM226.963 317.627L227.161 317.595L227.134 317.427H226.963V317.627ZM223.387 317.627V317.427H223.217L223.19 317.595L223.387 317.627ZM223.891 328.859L223.693 328.832L223.662 329.059H223.891V328.859ZM225.043 320.555V320.355H224.869L224.845 320.528L225.043 320.555ZM225.091 320.555L225.289 320.527L225.265 320.355H225.091V320.555ZM226.267 328.859V329.059H226.498L226.465 328.831L226.267 328.859ZM220.651 334.627H223.099V334.227H220.651V334.627ZM223.297 334.456L223.777 331.168L223.382 331.11L222.902 334.398L223.297 334.456ZM223.579 331.339H226.579V330.939H223.579V331.339ZM226.779 331.139V331.091H226.379V331.139H226.779ZM226.381 331.12L226.861 334.456L227.257 334.399L226.777 331.063L226.381 331.12ZM227.059 334.627H229.699V334.227H227.059V334.627ZM229.897 334.395L227.161 317.595L226.766 317.659L229.502 334.459L229.897 334.395ZM226.963 317.427H223.387V317.827H226.963V317.427ZM223.19 317.595L220.454 334.395L220.849 334.459L223.585 317.659L223.19 317.595ZM224.09 328.887L225.242 320.583L224.845 320.528L223.693 328.832L224.09 328.887ZM225.043 320.755H225.091V320.355H225.043V320.755ZM224.893 320.583L226.069 328.887L226.465 328.831L225.289 320.527L224.893 320.583ZM226.267 328.659H223.891V329.059H226.267V328.659ZM233.263 334.427H233.063V334.627H233.263V334.427ZM235.903 334.427V334.627H236.103V334.427H235.903ZM235.903 320.027V319.827H235.703V320.027H235.903ZM238.663 320.027V320.227H238.863V320.027H238.663ZM238.663 317.627H238.863V317.427H238.663V317.627ZM230.503 317.627V317.427H230.303V317.627H230.503ZM230.503 320.027H230.303V320.227H230.503V320.027ZM233.263 320.027H233.463V319.827H233.263V320.027ZM233.263 334.627H235.903V334.227H233.263V334.627ZM236.103 334.427V320.027H235.703V334.427H236.103ZM235.903 320.227H238.663V319.827H235.903V320.227ZM238.863 320.027V317.627H238.463V320.027H238.863ZM238.663 317.427H230.503V317.827H238.663V317.427ZM230.303 317.627V320.027H230.703V317.627H230.303ZM230.503 320.227H233.263V319.827H230.503V320.227ZM233.063 320.027V334.427H233.463V320.027H233.063ZM241.261 334.427H241.061V334.627H241.261V334.427ZM243.901 334.427V334.627H244.101V334.427H243.901ZM243.901 317.627H244.101V317.427H243.901V317.627ZM241.261 317.627V317.427H241.061V317.627H241.261ZM241.261 334.627H243.901V334.227H241.261V334.627ZM244.101 334.427V317.627H243.701V334.427H244.101ZM243.901 317.427H241.261V317.827H243.901V317.427ZM241.061 317.627V334.427H241.461V317.627H241.061ZM251.71 325.019L251.842 324.869L251.842 324.869L251.71 325.019ZM252.07 322.307H251.87V322.507H252.07V322.307ZM254.566 322.307V322.507H254.766V322.307H254.566ZM249.718 326.795L249.586 326.945L249.586 326.946L249.718 326.795ZM249.238 329.483H249.438V329.283H249.238V329.483ZM246.742 329.483V329.283H246.542V329.483H246.742ZM250.63 334.867C251.966 334.867 253.021 334.47 253.741 333.693C254.458 332.918 254.814 331.795 254.814 330.395H254.414C254.414 331.731 254.074 332.744 253.447 333.421C252.823 334.096 251.886 334.467 250.63 334.467V334.867ZM254.814 330.395C254.814 329.326 254.635 328.434 254.166 327.559C253.7 326.688 252.954 325.848 251.842 324.869L251.578 325.169C252.674 326.135 253.38 326.938 253.814 327.748C254.245 328.552 254.414 329.376 254.414 330.395H254.814ZM251.842 324.869C250.982 324.116 250.43 323.531 250.091 322.993C249.758 322.462 249.63 321.971 249.63 321.395H249.23C249.23 322.043 249.378 322.608 249.753 323.205C250.123 323.795 250.71 324.41 251.578 325.17L251.842 324.869ZM249.63 321.395C249.63 320.842 249.746 320.496 249.926 320.291C250.1 320.09 250.366 319.987 250.75 319.987V319.587C250.294 319.587 249.9 319.712 249.624 320.028C249.354 320.338 249.23 320.797 249.23 321.395H249.63ZM250.75 319.987C251.134 319.987 251.398 320.09 251.573 320.295C251.753 320.506 251.87 320.864 251.87 321.443H252.27C252.27 320.822 252.147 320.352 251.877 320.035C251.602 319.712 251.206 319.587 250.75 319.587V319.987ZM251.87 321.443V322.307H252.27V321.443H251.87ZM252.07 322.507H254.566V322.107H252.07V322.507ZM254.766 322.307V321.611H254.366V322.307H254.766ZM254.766 321.611C254.766 320.239 254.442 319.128 253.759 318.358C253.072 317.585 252.051 317.187 250.726 317.187V317.587C251.969 317.587 252.868 317.958 253.459 318.624C254.055 319.294 254.366 320.295 254.366 321.611H254.766ZM250.726 317.187C249.402 317.187 248.359 317.584 247.649 318.349C246.941 319.111 246.59 320.211 246.59 321.563H246.99C246.99 320.276 247.323 319.287 247.942 318.621C248.558 317.958 249.483 317.587 250.726 317.587V317.187ZM246.59 321.563C246.59 322.552 246.776 323.408 247.251 324.267C247.723 325.121 248.474 325.967 249.586 326.945L249.85 326.645C248.754 325.68 248.041 324.869 247.601 324.073C247.164 323.282 246.99 322.495 246.99 321.563H246.59ZM249.586 326.946C250.446 327.698 250.991 328.281 251.322 328.838C251.649 329.388 251.774 329.921 251.774 330.587H252.174C252.174 329.861 252.035 329.255 251.666 328.634C251.301 328.021 250.718 327.404 249.85 326.645L249.586 326.946ZM251.774 330.587C251.774 331.188 251.646 331.55 251.456 331.761C251.271 331.968 250.993 332.067 250.606 332.067V332.467C251.059 332.467 251.465 332.35 251.754 332.029C252.038 331.712 252.174 331.234 252.174 330.587H251.774ZM250.606 332.067C250.219 332.067 249.94 331.968 249.754 331.766C249.565 331.56 249.438 331.21 249.438 330.635H249.038C249.038 331.26 249.175 331.726 249.46 332.036C249.748 332.35 250.153 332.467 250.606 332.467V332.067ZM249.438 330.635V329.483H249.038V330.635H249.438ZM249.238 329.283H246.742V329.683H249.238V329.283ZM246.542 329.483V330.443H246.942V329.483H246.542ZM246.542 330.443C246.542 331.816 246.873 332.927 247.565 333.697C248.261 334.47 249.294 334.867 250.63 334.867V334.467C249.374 334.467 248.463 334.096 247.863 333.429C247.259 332.759 246.942 331.758 246.942 330.443H246.542ZM259.512 334.427H259.312V334.627H259.512V334.427ZM262.152 334.427V334.627H262.352V334.427H262.152ZM262.152 320.027V319.827H261.952V320.027H262.152ZM264.912 320.027V320.227H265.112V320.027H264.912ZM264.912 317.627H265.112V317.427H264.912V317.627ZM256.752 317.627V317.427H256.552V317.627H256.752ZM256.752 320.027H256.552V320.227H256.752V320.027ZM259.512 320.027H259.712V319.827H259.512V320.027ZM259.512 334.627H262.152V334.227H259.512V334.627ZM262.352 334.427V320.027H261.952V334.427H262.352ZM262.152 320.227H264.912V319.827H262.152V320.227ZM265.112 320.027V317.627H264.712V320.027H265.112ZM264.912 317.427H256.752V317.827H264.912V317.427ZM256.552 317.627V320.027H256.952V317.627H256.552ZM256.752 320.227H259.512V319.827H256.752V320.227ZM259.312 320.027V334.427H259.712V320.027H259.312ZM267.51 334.427H267.31V334.627H267.51V334.427ZM270.15 334.427V334.627H270.35V334.427H270.15ZM270.15 317.627H270.35V317.427H270.15V317.627ZM267.51 317.627V317.427H267.31V317.627H267.51ZM267.51 334.627H270.15V334.227H267.51V334.627ZM270.35 334.427V317.627H269.95V334.427H270.35ZM270.15 317.427H267.51V317.827H270.15V317.427ZM267.31 317.627V334.427H267.71V317.627H267.31ZM281.055 328.163H281.255V327.963H281.055V328.163ZM278.559 328.163V327.963H278.359V328.163H278.559ZM278.559 323.291H278.359V323.491H278.559V323.291ZM281.055 323.291V323.491H281.255V323.291H281.055ZM277.167 334.867C278.48 334.867 279.511 334.47 280.212 333.711C280.911 332.955 281.255 331.868 281.255 330.539H280.855C280.855 331.803 280.528 332.78 279.918 333.439C279.311 334.097 278.398 334.467 277.167 334.467V334.867ZM281.255 330.539V328.163H280.855V330.539H281.255ZM281.055 327.963H278.559V328.363H281.055V327.963ZM278.359 328.163V330.731H278.759V328.163H278.359ZM278.359 330.731C278.359 331.254 278.234 331.581 278.05 331.776C277.869 331.969 277.6 332.067 277.239 332.067V332.467C277.67 332.467 278.061 332.349 278.342 332.05C278.62 331.753 278.759 331.312 278.759 330.731H278.359ZM277.239 332.067C276.878 332.067 276.609 331.969 276.428 331.776C276.244 331.581 276.119 331.254 276.119 330.731H275.719C275.719 331.312 275.858 331.753 276.136 332.05C276.417 332.349 276.808 332.467 277.239 332.467V332.067ZM276.119 330.731V321.347H275.719V330.731H276.119ZM276.119 321.347C276.119 320.824 276.244 320.49 276.43 320.288C276.612 320.089 276.881 319.987 277.239 319.987V319.587C276.805 319.587 276.414 319.713 276.135 320.018C275.858 320.32 275.719 320.766 275.719 321.347H276.119ZM277.239 319.987C277.597 319.987 277.866 320.089 278.049 320.288C278.234 320.49 278.359 320.824 278.359 321.347H278.759C278.759 320.766 278.62 320.32 278.344 320.018C278.064 319.713 277.673 319.587 277.239 319.587V319.987ZM278.359 321.347V323.291H278.759V321.347H278.359ZM278.559 323.491H281.055V323.091H278.559V323.491ZM281.255 323.291V321.515H280.855V323.291H281.255ZM281.255 321.515C281.255 320.187 280.911 319.1 280.212 318.343C279.511 317.585 278.48 317.187 277.167 317.187V317.587C278.398 317.587 279.311 317.958 279.918 318.615C280.528 319.275 280.855 320.252 280.855 321.515H281.255ZM277.167 317.187C275.854 317.187 274.823 317.585 274.122 318.343C273.424 319.1 273.079 320.187 273.079 321.515H273.479C273.479 320.252 273.807 319.275 274.416 318.615C275.023 317.958 275.936 317.587 277.167 317.587V317.187ZM273.079 321.515V330.539H273.479V321.515H273.079ZM273.079 330.539C273.079 331.868 273.424 332.955 274.122 333.711C274.823 334.47 275.854 334.867 277.167 334.867V334.467C275.936 334.467 275.023 334.097 274.416 333.439C273.807 332.78 273.479 331.803 273.479 330.539H273.079ZM288.514 325.019L288.646 324.869L288.645 324.869L288.514 325.019ZM288.874 322.307H288.674V322.507H288.874V322.307ZM291.37 322.307V322.507H291.57V322.307H291.37ZM286.522 326.795L286.389 326.945L286.39 326.946L286.522 326.795ZM286.042 329.483H286.242V329.283H286.042V329.483ZM283.546 329.483V329.283H283.346V329.483H283.546ZM287.434 334.867C288.769 334.867 289.825 334.47 290.544 333.693C291.261 332.918 291.618 331.795 291.618 330.395H291.218C291.218 331.731 290.878 332.744 290.251 333.421C289.626 334.096 288.69 334.467 287.434 334.467V334.867ZM291.618 330.395C291.618 329.326 291.439 328.434 290.97 327.559C290.503 326.688 289.757 325.848 288.646 324.869L288.381 325.169C289.478 326.135 290.184 326.938 290.617 327.748C291.048 328.552 291.218 329.376 291.218 330.395H291.618ZM288.645 324.869C287.785 324.116 287.233 323.531 286.895 322.993C286.562 322.462 286.434 321.971 286.434 321.395H286.034C286.034 322.043 286.181 322.608 286.556 323.205C286.926 323.795 287.514 324.41 288.382 325.17L288.645 324.869ZM286.434 321.395C286.434 320.842 286.55 320.496 286.729 320.291C286.904 320.09 287.169 319.987 287.554 319.987V319.587C287.098 319.587 286.703 319.712 286.428 320.028C286.157 320.338 286.034 320.797 286.034 321.395H286.434ZM287.554 319.987C287.938 319.987 288.202 320.09 288.376 320.295C288.557 320.506 288.674 320.864 288.674 321.443H289.074C289.074 320.822 288.95 320.352 288.681 320.035C288.405 319.712 288.009 319.587 287.554 319.587V319.987ZM288.674 321.443V322.307H289.074V321.443H288.674ZM288.874 322.507H291.37V322.107H288.874V322.507ZM291.57 322.307V321.611H291.17V322.307H291.57ZM291.57 321.611C291.57 320.239 291.245 319.128 290.562 318.358C289.875 317.585 288.854 317.187 287.53 317.187V317.587C288.773 317.587 289.672 317.958 290.263 318.624C290.858 319.294 291.17 320.295 291.17 321.611H291.57ZM287.53 317.187C286.205 317.187 285.162 317.584 284.452 318.349C283.744 319.111 283.394 320.211 283.394 321.563H283.794C283.794 320.276 284.127 319.287 284.745 318.621C285.361 317.958 286.286 317.587 287.53 317.587V317.187ZM283.394 321.563C283.394 322.552 283.58 323.408 284.054 324.267C284.526 325.121 285.278 325.967 286.389 326.945L286.654 326.645C285.557 325.68 284.845 324.869 284.405 324.073C283.967 323.282 283.794 322.495 283.794 321.563H283.394ZM286.39 326.946C287.25 327.698 287.794 328.281 288.126 328.838C288.452 329.388 288.578 329.921 288.578 330.587H288.978C288.978 329.861 288.839 329.255 288.469 328.634C288.105 328.021 287.521 327.404 286.653 326.645L286.39 326.946ZM288.578 330.587C288.578 331.188 288.45 331.55 288.26 331.761C288.074 331.968 287.797 332.067 287.41 332.067V332.467C287.862 332.467 288.269 332.35 288.557 332.029C288.841 331.712 288.978 331.234 288.978 330.587H288.578ZM287.41 332.067C287.022 332.067 286.744 331.968 286.558 331.766C286.369 331.56 286.242 331.21 286.242 330.635H285.842C285.842 331.26 285.978 331.726 286.263 332.036C286.551 332.35 286.957 332.467 287.41 332.467V332.067ZM286.242 330.635V329.483H285.842V330.635H286.242ZM286.042 329.283H283.546V329.683H286.042V329.283ZM283.346 329.483V330.443H283.746V329.483H283.346ZM283.346 330.443C283.346 331.816 283.676 332.927 284.369 333.697C285.065 334.47 286.097 334.867 287.434 334.867V334.467C286.178 334.467 285.266 334.096 284.666 333.429C284.063 332.759 283.746 331.758 283.746 330.443H283.346Z" fill="#BC9F00"/>
</svg>
