<svg width="267" height="140" viewBox="0 0 267 140" fill="none" xmlns="http://www.w3.org/2000/svg">
<rect width="267" height="140" fill="#666666"/>
<path d="M95.56 47.2V92H114.184V85.6H102.6V47.2H95.56ZM116.672 57.952V81.248C116.672 88.416 120.448 92.512 127.36 92.512C134.272 92.512 138.048 88.416 138.048 81.248V57.952C138.048 50.784 134.272 46.688 127.36 46.688C120.448 46.688 116.672 50.784 116.672 57.952ZM123.712 81.696V57.504C123.712 54.304 125.12 53.088 127.36 53.088C129.6 53.088 131.008 54.304 131.008 57.504V81.696C131.008 84.896 129.6 86.112 127.36 86.112C125.12 86.112 123.712 84.896 123.712 81.696ZM142.047 57.952V81.248C142.047 88.416 145.823 92.512 152.735 92.512C159.647 92.512 163.423 88.416 163.423 81.248V57.952C163.423 50.784 159.647 46.688 152.735 46.688C145.823 46.688 142.047 50.784 142.047 57.952ZM149.087 81.696V57.504C149.087 54.304 150.495 53.088 152.735 53.088C154.975 53.088 156.383 54.304 156.383 57.504V81.696C156.383 84.896 154.975 86.112 152.735 86.112C150.495 86.112 149.087 84.896 149.087 81.696ZM177.214 74.144L184.062 92H191.294L181.502 67.168L191.294 47.2H184.253L175.038 66.72V47.2H167.998V92H175.038V78.24L177.214 74.144ZM200.968 47.2H193.928V81.312C193.928 88.48 197.512 92.576 204.424 92.576C211.336 92.576 214.92 88.48 214.92 81.312V47.2H208.264V81.76C208.264 84.96 206.856 86.112 204.616 86.112C202.376 86.112 200.968 84.96 200.968 81.76V47.2ZM230.116 47.2H219.748V92H226.788V75.168H230.116C237.156 75.168 240.612 71.264 240.612 64.096V58.272C240.612 51.104 237.156 47.2 230.116 47.2ZM226.788 53.6H230.116C232.356 53.6 233.572 54.624 233.572 57.824V64.544C233.572 67.744 232.356 68.768 230.116 68.768H226.788V53.6Z" fill="#D3D3D3"/>
<path d="M95.56 47.2V47H95.36V47.2H95.56ZM95.56 92H95.36V92.2H95.56V92ZM114.184 92V92.2H114.384V92H114.184ZM114.184 85.6H114.384V85.4H114.184V85.6ZM102.6 85.6H102.4V85.8H102.6V85.6ZM102.6 47.2H102.8V47H102.6V47.2ZM95.36 47.2V92H95.76V47.2H95.36ZM95.56 92.2H114.184V91.8H95.56V92.2ZM114.384 92V85.6H113.984V92H114.384ZM114.184 85.4H102.6V85.8H114.184V85.4ZM102.8 85.6V47.2H102.4V85.6H102.8ZM102.6 47H95.56V47.4H102.6V47ZM116.472 57.952V81.248H116.872V57.952H116.472ZM116.472 81.248C116.472 84.8654 117.425 87.7369 119.278 89.7051C121.133 91.6752 123.864 92.712 127.36 92.712V92.312C123.943 92.312 121.33 91.3008 119.569 89.4309C117.806 87.5591 116.872 84.7986 116.872 81.248H116.472ZM127.36 92.712C130.855 92.712 133.586 91.6752 135.441 89.7051C137.294 87.7369 138.248 84.8654 138.248 81.248H137.847C137.847 84.7986 136.913 87.5591 135.15 89.4309C133.389 91.3008 130.776 92.312 127.36 92.312V92.712ZM138.248 81.248V57.952H137.847V81.248H138.248ZM138.248 57.952C138.248 54.3346 137.294 51.4631 135.441 49.4949C133.586 47.5248 130.855 46.488 127.36 46.488V46.888C130.776 46.888 133.389 47.8992 135.15 49.7691C136.913 51.6409 137.847 54.4014 137.847 57.952H138.248ZM127.36 46.488C123.864 46.488 121.133 47.5248 119.278 49.4949C117.425 51.4631 116.472 54.3346 116.472 57.952H116.872C116.872 54.4014 117.806 51.6409 119.569 49.7691C121.33 47.8992 123.943 46.888 127.36 46.888V46.488ZM123.912 81.696V57.504H123.511V81.696H123.912ZM123.912 57.504C123.912 55.9288 124.259 54.882 124.844 54.2296C125.426 53.5815 126.275 53.288 127.36 53.288V52.888C126.204 52.888 125.229 53.2025 124.547 53.9624C123.868 54.7179 123.511 55.8792 123.511 57.504H123.912ZM127.36 53.288C128.444 53.288 129.293 53.5815 129.875 54.2296C130.46 54.882 130.808 55.9288 130.808 57.504H131.208C131.208 55.8792 130.851 54.7179 130.172 53.9624C129.49 53.2025 128.515 52.888 127.36 52.888V53.288ZM130.808 57.504V81.696H131.208V57.504H130.808ZM130.808 81.696C130.808 83.2712 130.46 84.318 129.875 84.9704C129.293 85.6185 128.444 85.912 127.36 85.912V86.312C128.515 86.312 129.49 85.9975 130.172 85.2376C130.851 84.482 131.208 83.3208 131.208 81.696H130.808ZM127.36 85.912C126.275 85.912 125.426 85.6185 124.844 84.9704C124.259 84.318 123.912 83.2712 123.912 81.696H123.511C123.511 83.3208 123.868 84.482 124.547 85.2376C125.229 85.9975 126.204 86.312 127.36 86.312V85.912ZM141.847 57.952V81.248H142.247V57.952H141.847ZM141.847 81.248C141.847 84.8654 142.8 87.7369 144.653 89.7051C146.508 91.6752 149.239 92.712 152.735 92.712V92.312C149.318 92.312 146.705 91.3008 144.944 89.4309C143.181 87.5591 142.247 84.7986 142.247 81.248H141.847ZM152.735 92.712C156.23 92.712 158.961 91.6752 160.816 89.7051C162.669 87.7369 163.622 84.8654 163.622 81.248H163.223C163.223 84.7986 162.288 87.5591 160.525 89.4309C158.764 91.3008 156.151 92.312 152.735 92.312V92.712ZM163.622 81.248V57.952H163.223V81.248H163.622ZM163.622 57.952C163.622 54.3346 162.669 51.4631 160.816 49.4949C158.961 47.5248 156.23 46.488 152.735 46.488V46.888C156.151 46.888 158.764 47.8992 160.525 49.7691C162.288 51.6409 163.223 54.4014 163.223 57.952H163.622ZM152.735 46.488C149.239 46.488 146.508 47.5248 144.653 49.4949C142.8 51.4631 141.847 54.3346 141.847 57.952H142.247C142.247 54.4014 143.181 51.6409 144.944 49.7691C146.705 47.8992 149.318 46.888 152.735 46.888V46.488ZM149.286 81.696V57.504H148.887V81.696H149.286ZM149.286 57.504C149.286 55.9288 149.634 54.882 150.219 54.2296C150.801 53.5815 151.65 53.288 152.735 53.288V52.888C151.579 52.888 150.604 53.2025 149.922 53.9624C149.243 54.7179 148.887 55.8792 148.887 57.504H149.286ZM152.735 53.288C153.819 53.288 154.668 53.5815 155.25 54.2296C155.835 54.882 156.183 55.9288 156.183 57.504H156.583C156.583 55.8792 156.226 54.7179 155.547 53.9624C154.865 53.2025 153.89 52.888 152.735 52.888V53.288ZM156.183 57.504V81.696H156.583V57.504H156.183ZM156.183 81.696C156.183 83.2712 155.835 84.318 155.25 84.9704C154.668 85.6185 153.819 85.912 152.735 85.912V86.312C153.89 86.312 154.865 85.9975 155.547 85.2376C156.226 84.482 156.583 83.3208 156.583 81.696H156.183ZM152.735 85.912C151.65 85.912 150.801 85.6185 150.219 84.9704C149.634 84.318 149.286 83.2712 149.286 81.696H148.887C148.887 83.3208 149.243 84.482 149.922 85.2376C150.604 85.9975 151.579 86.312 152.735 86.312V85.912ZM177.214 74.144L177.4 74.0724L177.243 73.6623L177.037 74.0502L177.214 74.144ZM184.062 92L183.875 92.0716L183.924 92.2H184.062V92ZM191.294 92V92.2H191.587L191.48 91.9266L191.294 92ZM181.502 67.168L181.322 67.0799L181.283 67.1592L181.315 67.2414L181.502 67.168ZM191.294 47.2L191.473 47.2881L191.614 47H191.294V47.2ZM184.254 47.2V47H184.127L184.073 47.1146L184.254 47.2ZM175.037 66.72H174.838L175.218 66.8054L175.037 66.72ZM175.037 47.2H175.238V47H175.037V47.2ZM167.997 47.2V47H167.798V47.2H167.997ZM167.997 92H167.798V92.2H167.997V92ZM175.037 92V92.2H175.238V92H175.037ZM175.037 78.24L174.861 78.1462L174.838 78.1902V78.24H175.037ZM177.027 74.2156L183.875 92.0716L184.248 91.9284L177.4 74.0724L177.027 74.2156ZM184.062 92.2H191.294V91.8H184.062V92.2ZM191.48 91.9266L181.688 67.0946L181.315 67.2414L191.107 92.0734L191.48 91.9266ZM181.681 67.2561L191.473 47.2881L191.114 47.1119L181.322 67.0799L181.681 67.2561ZM191.294 47H184.254V47.4H191.294V47ZM184.073 47.1146L174.857 66.6346L175.218 66.8054L184.434 47.2854L184.073 47.1146ZM175.238 66.72V47.2H174.838V66.72H175.238ZM175.037 47H167.997V47.4H175.037V47ZM167.798 47.2V92H168.198V47.2H167.798ZM167.997 92.2H175.037V91.8H167.997V92.2ZM175.238 92V78.24H174.838V92H175.238ZM175.214 78.3338L177.39 74.2378L177.037 74.0502L174.861 78.1462L175.214 78.3338ZM200.967 47.2H201.168V47H200.967V47.2ZM193.927 47.2V47H193.728V47.2H193.927ZM214.92 47.2H215.119V47H214.92V47.2ZM208.264 47.2V47H208.063V47.2H208.264ZM200.967 47H193.927V47.4H200.967V47ZM193.728 47.2V81.312H194.128V47.2H193.728ZM193.728 81.312C193.728 84.9268 194.631 87.7982 196.436 89.7671C198.244 91.739 200.927 92.776 204.424 92.776V92.376C201.008 92.376 198.443 91.365 196.731 89.4969C195.016 87.6258 194.128 84.8652 194.128 81.312H193.728ZM204.424 92.776C207.92 92.776 210.603 91.739 212.411 89.7671C214.216 87.7982 215.119 84.9268 215.119 81.312H214.719C214.719 84.8652 213.831 87.6258 212.116 89.4969C210.404 91.365 207.839 92.376 204.424 92.376V92.776ZM215.119 81.312V47.2H214.719V81.312H215.119ZM214.92 47H208.264V47.4H214.92V47ZM208.063 47.2V81.76H208.464V47.2H208.063ZM208.063 81.76C208.063 83.3354 207.716 84.3648 207.132 85.0007C206.551 85.6329 205.703 85.912 204.616 85.912V86.312C205.768 86.312 206.744 86.0151 207.427 85.2713C208.107 84.5312 208.464 83.3846 208.464 81.76H208.063ZM204.616 85.912C203.528 85.912 202.68 85.6329 202.099 85.0007C201.515 84.3648 201.168 83.3354 201.168 81.76H200.768C200.768 83.3846 201.124 84.5312 201.804 85.2713C202.487 86.0151 203.463 86.312 204.616 86.312V85.912ZM201.168 81.76V47.2H200.768V81.76H201.168ZM219.747 47.2V47H219.548V47.2H219.747ZM219.747 92H219.548V92.2H219.747V92ZM226.788 92V92.2H226.988V92H226.788ZM226.788 75.168V74.968H226.587V75.168H226.788ZM226.788 53.6V53.4H226.587V53.6H226.788ZM226.788 68.768H226.587V68.968H226.788V68.768ZM230.115 47H219.747V47.4H230.115V47ZM219.548 47.2V92H219.948V47.2H219.548ZM219.747 92.2H226.788V91.8H219.747V92.2ZM226.988 92V75.168H226.587V92H226.988ZM226.788 75.368H230.115V74.968H226.788V75.368ZM230.115 75.368C233.672 75.368 236.357 74.3811 238.15 72.4563C239.941 70.5341 240.812 67.7091 240.812 64.096H240.411C240.411 67.6509 239.554 70.3619 237.857 72.1837C236.162 74.0029 233.599 74.968 230.115 74.968V75.368ZM240.812 64.096V58.272H240.411V64.096H240.812ZM240.812 58.272C240.812 54.6589 239.941 51.8339 238.15 49.9117C236.357 47.9869 233.672 47 230.115 47V47.4C233.599 47.4 236.162 48.3651 237.857 50.1843C239.554 52.0061 240.411 54.7171 240.411 58.272H240.812ZM226.788 53.8H230.115V53.4H226.788V53.8ZM230.115 53.8C231.209 53.8 232.004 54.0499 232.534 54.645C233.069 55.2463 233.372 56.2418 233.372 57.824H233.771C233.771 56.2062 233.466 55.0897 232.833 54.379C232.195 53.6621 231.262 53.4 230.115 53.4V53.8ZM233.372 57.824V64.544H233.771V57.824H233.372ZM233.372 64.544C233.372 66.1262 233.069 67.1217 232.534 67.723C232.004 68.3181 231.209 68.568 230.115 68.568V68.968C231.262 68.968 232.195 68.7059 232.833 67.989C233.466 67.2783 233.771 66.1618 233.771 64.544H233.372ZM230.115 68.568H226.788V68.968H230.115V68.568ZM226.988 68.768V53.6H226.587V68.768H226.988Z" fill="#A8A8A8"/>
<path d="M47.95 100H57.47C56.535 97.79 56.45 95.665 56.45 92.775V83.595C56.45 77.39 54.92 72.885 50.245 70.93C54.41 68.975 56.365 64.98 56.365 58.86V54.185C56.365 45.005 52.2 40.5 42.51 40.5H28.4V100H37.75V75.775H40.98C45.23 75.775 47.1 77.815 47.1 83.34V92.69C47.1 97.535 47.44 98.47 47.95 100ZM37.75 49H42.255C45.57 49 47.015 50.87 47.015 55.12V60.985C47.015 65.745 44.89 67.275 41.405 67.275H37.75V49ZM62.0042 55.29V85.72C62.0042 95.24 67.0192 100.68 76.1992 100.68C85.3792 100.68 90.3942 95.24 90.3942 85.72V74.84C90.3942 66.085 86.9092 61.24 80.0242 61.24C75.8592 61.24 72.9692 63.11 71.3542 66.51V55.63C71.3542 49.935 73.2242 48.32 76.5392 48.32C79.5142 48.32 81.3842 49.935 81.3842 54.185V56.31H90.2242V54.78C90.2242 45.26 85.4642 39.82 76.2842 39.82C66.5942 39.82 62.0042 45.26 62.0042 55.29ZM76.1992 69.74C79.1742 69.74 81.0442 71.355 81.0442 75.605V86.315C81.0442 90.565 79.1742 92.095 76.1992 92.095C73.2242 92.095 71.3542 90.565 71.3542 86.315V75.605C71.3542 71.355 73.2242 69.74 76.1992 69.74Z" fill="#FFD800"/>
<path d="M47.95 100L47.7603 100.063L47.8058 100.2H47.95V100ZM57.47 100V100.2H57.7718L57.6542 99.9221L57.47 100ZM50.245 70.93L50.16 70.749L49.7518 70.9405L50.1678 71.1145L50.245 70.93ZM28.4 40.5V40.3H28.2V40.5H28.4ZM28.4 100H28.2V100.2H28.4V100ZM37.75 100V100.2H37.95V100H37.75ZM37.75 75.775V75.575H37.55V75.775H37.75ZM37.75 49V48.8H37.55V49H37.75ZM37.75 67.275H37.55V67.475H37.75V67.275ZM47.95 100.2H57.47V99.8H47.95V100.2ZM57.6542 99.9221C56.7366 97.7532 56.65 95.6652 56.65 92.775H56.25C56.25 95.6648 56.3334 97.8268 57.2858 100.078L57.6542 99.9221ZM56.65 92.775V83.595H56.25V92.775H56.65ZM56.65 83.595C56.65 77.3681 55.1139 72.7493 50.3222 70.7455L50.1678 71.1145C54.7261 73.0207 56.25 77.4118 56.25 83.595H56.65ZM50.33 71.111C54.5915 69.1107 56.565 65.0234 56.565 58.86H56.165C56.165 64.9366 54.2285 68.8393 50.16 70.749L50.33 71.111ZM56.565 58.86V54.185H56.165V58.86H56.565ZM56.565 54.185C56.565 49.569 55.5182 46.0859 53.2133 43.7592C50.9081 41.4323 47.3821 40.3 42.51 40.3V40.7C47.3279 40.7 50.7294 41.8202 52.9292 44.0408C55.1293 46.2616 56.165 49.621 56.165 54.185H56.565ZM42.51 40.3H28.4V40.7H42.51V40.3ZM28.2 40.5V100H28.6V40.5H28.2ZM28.4 100.2H37.75V99.8H28.4V100.2ZM37.95 100V75.775H37.55V100H37.95ZM37.75 75.975H40.98V75.575H37.75V75.975ZM40.98 75.975C43.0759 75.975 44.5351 76.4776 45.48 77.6135C46.433 78.7591 46.9 80.5912 46.9 83.34H47.3C47.3 80.5638 46.832 78.6134 45.7875 77.3577C44.7349 76.0924 43.1341 75.575 40.98 75.575V75.975ZM46.9 83.34V92.69H47.3V83.34H46.9ZM46.9 92.69C46.9 95.1155 46.985 96.5718 47.1358 97.6167C47.2873 98.6665 47.505 99.2974 47.7603 100.063L48.1397 99.9368C47.885 99.1726 47.6777 98.571 47.5317 97.5596C47.385 96.5432 47.3 95.1095 47.3 92.69H46.9ZM37.75 49.2H42.255V48.8H37.75V49.2ZM42.255 49.2C43.8741 49.2 44.9948 49.6548 45.7202 50.5889C46.4547 51.5348 46.815 53.0099 46.815 55.12H47.215C47.215 52.9801 46.8528 51.3952 46.0361 50.3436C45.2102 49.2802 43.9509 48.8 42.255 48.8V49.2ZM46.815 55.12V60.985H47.215V55.12H46.815ZM46.815 60.985C46.815 63.3402 46.2887 64.8503 45.3747 65.7744C44.4616 66.6975 43.1226 67.075 41.405 67.075V67.475C43.1724 67.475 44.6384 67.0875 45.6591 66.0556C46.6788 65.0247 47.215 63.3898 47.215 60.985H46.815ZM41.405 67.075H37.75V67.475H41.405V67.075ZM37.95 67.275V49H37.55V67.275H37.95ZM71.3542 66.51H71.1542L71.5349 66.5958L71.3542 66.51ZM81.3842 56.31H81.1842V56.51H81.3842V56.31ZM90.2242 56.31V56.51H90.4242V56.31H90.2242ZM61.8042 55.29V85.72H62.2042V55.29H61.8042ZM61.8042 85.72C61.8042 90.5134 63.067 94.3089 65.5136 96.9071C67.962 99.5072 71.5694 100.88 76.1992 100.88V100.48C71.6491 100.48 68.1589 99.1328 65.8048 96.6329C63.4489 94.1311 62.2042 90.4466 62.2042 85.72H61.8042ZM76.1992 100.88C80.8291 100.88 84.4364 99.5072 86.8848 96.9071C89.3315 94.3089 90.5942 90.5134 90.5942 85.72H90.1942C90.1942 90.4466 88.9495 94.1311 86.5936 96.6329C84.2395 99.1328 80.7494 100.48 76.1992 100.48V100.88ZM90.5942 85.72V74.84H90.1942V85.72H90.5942ZM90.5942 74.84C90.5942 70.4409 89.7195 66.9911 87.951 64.6368C86.1753 62.2728 83.5188 61.04 80.0242 61.04V61.44C83.4146 61.44 85.9431 62.6297 87.6312 64.877C89.3265 67.1339 90.1942 70.4841 90.1942 74.84H90.5942ZM80.0242 61.04C77.9113 61.04 76.1097 61.5146 74.6279 62.4298C73.1457 63.3453 71.9952 64.6944 71.1736 66.4242L71.5349 66.5958C72.3282 64.9256 73.4302 63.6397 74.8381 62.7702C76.2462 61.9004 77.9722 61.44 80.0242 61.44V61.04ZM71.5542 66.51V55.63H71.1542V66.51H71.5542ZM71.5542 55.63C71.5542 52.7951 72.0215 51.0247 72.8605 49.9634C73.6891 48.9152 74.9129 48.52 76.5392 48.52V48.12C74.8505 48.12 73.4818 48.5323 72.5467 49.7153C71.6219 50.8853 71.1542 52.7698 71.1542 55.63H71.5542ZM76.5392 48.52C77.9913 48.52 79.1393 48.9132 79.9285 49.7924C80.7216 50.6758 81.1842 52.0848 81.1842 54.185H81.5842C81.5842 52.0352 81.1118 50.5117 80.2262 49.5251C79.3366 48.5343 78.0622 48.12 76.5392 48.12V48.52ZM81.1842 54.185V56.31H81.5842V54.185H81.1842ZM81.3842 56.51H90.2242V56.11H81.3842V56.51ZM90.4242 56.31V54.78H90.0242V56.31H90.4242ZM90.4242 54.78C90.4242 49.9892 89.2265 46.1938 86.8442 43.5949C84.4591 40.993 80.9143 39.62 76.2842 39.62V40.02C80.8342 40.02 84.2593 41.367 86.5493 43.8651C88.8419 46.3662 90.0242 50.0508 90.0242 54.78H90.4242ZM76.2842 39.62C71.4021 39.62 67.77 40.9914 65.362 43.6598C62.9574 46.3242 61.8042 50.2483 61.8042 55.29H62.2042C62.2042 50.3017 63.346 46.4907 65.6589 43.9277C67.9685 41.3686 71.4764 40.02 76.2842 40.02V39.62ZM76.1992 69.94C77.6513 69.94 78.7993 70.3332 79.5885 71.2124C80.3816 72.0958 80.8442 73.5048 80.8442 75.605H81.2442C81.2442 73.4552 80.7718 71.9317 79.8862 70.9451C78.9966 69.9543 77.7222 69.54 76.1992 69.54V69.94ZM80.8442 75.605V86.315H81.2442V75.605H80.8442ZM80.8442 86.315C80.8442 88.4153 80.3815 89.8018 79.5901 90.6634C78.8019 91.5214 77.6541 91.895 76.1992 91.895V92.295C77.7193 92.295 78.994 91.9036 79.8846 90.934C80.7719 89.9682 81.2442 88.4646 81.2442 86.315H80.8442ZM76.1992 91.895C74.7443 91.895 73.5965 91.5214 72.8084 90.6634C72.0169 89.8018 71.5542 88.4153 71.5542 86.315H71.1542C71.1542 88.4646 71.6265 89.9682 72.5138 90.934C73.4044 91.9036 74.6791 92.295 76.1992 92.295V91.895ZM71.5542 86.315V75.605H71.1542V86.315H71.5542ZM71.5542 75.605C71.5542 73.5048 72.0168 72.0958 72.8099 71.2124C73.5991 70.3332 74.7472 69.94 76.1992 69.94V69.54C74.6763 69.54 73.4018 69.9543 72.5123 70.9451C71.6266 71.9317 71.1542 73.4552 71.1542 75.605H71.5542Z" fill="#BC9F00"/>
</svg>
