<svg xmlns="http://www.w3.org/2000/svg" viewBox="0 0 500 500"><style>.a{fill:none;stroke-linejoin:round;stroke-width:10;stroke:#C8C8C8;}</style><path d="M391.6 153c5.5 0 10-4.5 10-10l0-22.8c0-5.5-4.5-10-10-10H108.4c-5.5 0-10 4.5-10 10l0 22.8c0 5.5 4.5 10 10 10H391.6z" class="a"/><polygon points="279.7 48.8 249.1 79.4 218.5 48.8 76.8 48.8 76.8 171.5 421.4 171.5 421.4 48.8 " fill="none"/><polygon points="115 375 250 453 385 375 385 144.5 115 144.5 " fill="#231F20"/><line x1="176.4" y1="194.6" x2="324" y2="342.3" class="a"/><line x1="176.4" y1="95.5" x2="324" y2="243.1" class="a"/></svg>
