<svg xmlns="http://www.w3.org/2000/svg" viewBox="0 0 500 500"><style>.a{fill:none;stroke-linejoin:round;stroke-width:10;stroke:#C8C8C8;}.b{fill:#A5A5A5;}.c{fill:#fff;}</style><symbol viewBox="-250.5 -250.4 501 501"><path d="M141.8 99.3c5.5 0 10 4.5 10 10v22.8c0 5.5-4.5 10-10 10H-141.4c-5.5 0-10-4.5-10-10v-22.8c0-5.5 4.5-10 10-10h283.2z" class="a"/><path d="M-135-92.7L0-170.6 135-92.7v200.5h-270z" fill="#666"/><path d="M122.5 107.8V70.4h-245.1v38.5" fill="#8C8C8C"/><path d="M-122.5-129.9L0-200.6l122.5 70.7V70.4h-245.1z" class="b"/><path d="M-122.5 39.7H-135v10.8h12.5zM135 39.7h-12.5v10.8H135z" style="fill:#231F20;opacity:0.3"/><path d="M124.4-128.8L0-200.6l-124.4 71.8L0-204.7z" fill="#ccc"/><path d="M-122.5-129.9l43.4-26.6-26.9 26.9V70.4h-16.5V-129.9zM106 70.4v-201.7l-29.5-26.7 46 28.2V70.4H106zM-30.7 70.4L0 88.1 30.7 70.4v-253.3L0-200.6l-30.7 17.7z" class="b"/><path d="M-106 68.4v39.4h-16.5v-39.5m245.1 0v39.5H106v-39.8" style="fill:#A5A5A5;opacity:0.3"/><path d="M74.4 56.5s2.8 0 6.3 0 6.3 4.5 6.3 10v22.8c0 5.5-4.5 10-10 10H-76.6c-5.5 0-10-4.5-10-10V66.5c0-5.5 2.8-10 6.2-10s6.2 0 6.2 0M46.8 142.1H14.3M-13.8 142.1H-46.4" style="fill:none;opacity:0.3;stroke-linejoin:round;stroke-width:10;stroke:#231F20"/><path d="M-30.7 142.1v-22.8M30.7 142.1v-22.8" class="a"/><path d="M-30.7 142.1l-19.7 28.1 19.7 11.4 19.7-11.4zM30.7 142.1L11 170.2l19.7 11.4 19.7-11.4z" class="a"/><path d="M74.4 76.5s2.8 0 6.3 0 6.3 4.5 6.3 10v22.8c0 5.5-4.5 10-10 10H-76.6c-5.5 0-10-4.5-10-10V86.5c0-5.5 2.8-10 6.2-10s6.2 0 6.2 0" class="a"/></symbol><symbol viewBox="-250.5 -250.5 501 501"><path d="M67.5-87.5V37h-135V-87.5L0-126.5z" opacity="0.3"/><path d="M73.6-65.6v173.5H-73.6V-65.6L0-108.1z"/><g class="c"><path d="M-45-47.7v93.9h17.7v-93.9h-17.7zM15-48l-17.7 94.2h17.7l6.9-39.3 3.2-21.9 3 21.8 7.1 39.5h17.1l-17.5-94.2H15z"/></g><path d="M135 99.3l-135 0.1-135-0.1v-222.1L0-200.8l135 77.9z" fill="none"/></symbol><g transform="matrix(1 0 0 -1 256.5 252.334)"><use xlink:href="#a" y="-250.4" x="-250.5" height="501" width="501"/><use xlink:href="#b" y="-250.5" x="-250.5" height="501" width="501"/></g><rect y="203.7" x="207.9" height="105.2" width="104.9"/><path d="m246.1 300.3-17.7-94.2h17.7l6.9 39.3 3.2 21.9 3-21.7 7-39.4h17.1l-17.5 94.2z" class="c"/></svg>
