<svg xmlns="http://www.w3.org/2000/svg" viewBox="0 0 500 500"><style>.a{fill:none;stroke-linejoin:round;stroke-width:10;stroke:#C8C8C8;}.b{fill:#A5A5A5;}.c{fill:#231F20;opacity:0.3;}.d{opacity:0.3;}.e{fill:none;stroke-linejoin:round;stroke-width:10;stroke:#231F20;}.f{fill:#FFF;}</style><symbol viewBox="-250.5 -250.4 501 501"><path d="M141.8 99.3c5.5 0 10 4.5 10 10l0 22.8c0 5.5-4.5 10-10 10H-141.4c-5.5 0-10-4.5-10-10l0-22.8c0-5.5 4.5-10 10-10H141.8z" class="a"/><polygon points="-135 -92.7 0 -170.6 135 -92.7 135 107.8 -135 107.8 " fill="#666"/><polyline points="122.5 107.8 122.5 70.4 -122.5 70.4 -122.5 108.9 " fill="#8C8C8C"/><polygon points="-122.5 -129.9 0 -200.6 122.5 -129.9 122.5 70.4 -122.5 70.4 " class="b"/><polygon points="-122.5 39.7 -135 39.7 -135 50.5 -122.5 50.5 " class="c"/><polygon points="135 39.7 122.5 39.7 122.5 50.5 135 50.5 " class="c"/><polygon points="124.4 -128.8 0 -200.6 -124.4 -128.8 0 -204.7 " fill="#CCC"/><path d="M-122.5-129.9l43.4-26.6L-106-129.6V70.4h-16.5V-129.9zM106 70.4v-201.7l-29.5-26.7 46 28.2V70.4H106z" class="b"/><polygon points="-30.7 70.4 0 88.1 30.7 70.4 30.7 -182.9 0 -200.6 -30.7 -182.9 " class="b"/><path d="M-106 68.4v39.4h-16.5v-39.5M122.5 68.3v39.5H106V68.1" style="fill:#A5A5A5;opacity:0.3"/><g class="d"><path d="M74.4 56.5c0 0 2.8 0 6.3 0s6.3 4.5 6.3 10l0 22.8c0 5.5-4.5 10-10 10H-76.6c-5.5 0-10-4.5-10-10l0-22.8c0-5.5 2.8-10 6.2-10s6.2 0 6.2 0" class="e"/></g><g class="d"><line x1="46.8" y1="142.1" x2="14.3" y2="142.1" class="e"/></g><g class="d"><line x1="-13.8" y1="142.1" x2="-46.4" y2="142.1" class="e"/></g><line x1="-30.7" y1="142.1" x2="-30.7" y2="119.3" class="a"/><line x1="30.7" y1="142.1" x2="30.7" y2="119.3" class="a"/><polygon points=" -30.7 142.1 -50.4 170.2 -30.7 181.5 -11 170.2 " class="a"/><polygon points=" 30.7 142.1 11 170.2 30.7 181.5 50.4 170.2 " class="a"/><path d="M74.4 76.5c0 0 2.8 0 6.3 0s6.3 4.5 6.3 10l0 22.8c0 5.5-4.5 10-10 10H-76.6c-5.5 0-10-4.5-10-10l0-22.8c0-5.5 2.8-10 6.2-10s6.2 0 6.2 0" class="a"/></symbol><symbol viewBox="-250.5 -250.5 501 501"><polygon points="67.5 -107.5 67.5 37 0 37 -67.5 37 -67.5 -107.5 0 -146.5 " class="d"/><polygon points="73.6 -85.6 73.6 107.8 0 107.8 -73.6 107.8 -73.6 -85.6 0 -128.1 "/><path d="M-55.9-44.7v93.9h17.7v-93.9H-55.9z" class="f"/><path d="M-9.2-44.7v93.9h17.7v-93.9H-9.2z" class="f"/><path d="M37.5-44.7v93.9h17.7v-93.9H37.5z" class="f"/><polygon points="135 99.3 0 99.4 -135 99.3 -135 -122.8 0 -200.8 135 -122.8 " fill="none"/><polygon points="-73.6 -65.6 0 -108.1 73.6 -65.6 73.6 -75.6 0 -118.1 -73.6 -75.6 " class="f"/></symbol><use xlink:href="#League_x5F_Silver" width="501" height="501" x="-250.5" y="-250.4" transform="matrix(1 0 0 -1 256.5 252.334)"/><use xlink:href="#Position_x5F_3" width="501" height="501" x="-250.5" y="-250.5" transform="matrix(1 0 0 -1 256.5 252.334)"/></svg>
