<svg xmlns="http://www.w3.org/2000/svg" viewBox="0 0 500 500"><style>
        .st1,.st2{fill:none;stroke-miterlimit:10}.st1{stroke-width:10;stroke-linecap:round;stroke-linejoin:round;stroke:#c8c8c8}.st2{stroke:#231f20;stroke-opacity:0}.st5{fill:#bc783c}.st8{opacity:.25}.st9{stroke:#231f20;stroke-width:10;stroke-linejoin:round}.st14,.st9{fill:none;stroke-miterlimit:10}.st14{stroke-opacity:0;stroke:red;stroke-width:10}
    </style><symbol viewBox="-250.5 -250.5 501 501"><path d="M173.2-100.8L0-200.8l-173.2 100v200L0 199.2l173.2-100z" fill="none"/><path d="M141.8 99.2c5.5 0 10 4.5 10 10V132c0 5.5-4.5 10-10 10h-283.2c-5.5 0-10-4.5-10-10v-22.8c0-5.5 4.5-10 10-10h283.2z" class="st1"/><path d="M-135-92.7l135-78 135 78v200.4h-270z" fill="#7f6029"/><path d="M122.5 107.7V70.2h-245v38.6" fill="#a57d35"/><path d="M-122.5-130L0-200.8 122.5-130V70.2h-245z" class="st5"/><path d="M-122.5 39.6H-135v10.7h12.5zm257.5 0h-12.5v10.7H135z" style="fill:#231f20;opacity:0.3"/><path d="M124.4-129L0-200.8-124.4-129 0-204.9z" fill="#e5ad4a"/><path d="M-122.5-130l43.4-26.6-26.9 26.9v200h-16.5V-130zM106 70.2v-201.7l-29.5-26.7 46 28.2V70.2H106z" class="st5"/><g class="st8"><path d="M74.4 56.4h6.3c3.5 0 6.3 4.5 6.3 10v22.8c0 5.5-4.5 10-10 10H-76.6c-5.5 0-10-4.5-10-10V66.4c0-5.5 2.8-10 6.2-10h6.2" class="st9"/></g><g class="st8"><path d="M16.5 142h-32.6" class="st9"/></g><path d="M0 142v-22.8M0 142l-28.6 40.7L0 199.2l28.6-16.5z" class="st1"/><path d="M74.4 76.4h6.3c3.5 0 6.3 4.5 6.3 10v22.8c0 5.5-4.5 10-10 10H-76.6c-5.5 0-10-4.5-10-10V86.4c0-5.5 2.8-10 6.2-10h6.2" style="fill:none;stroke-linejoin:round;stroke-width:10;stroke:#c8c8c8"/></symbol><symbol viewBox="-250.5 -250.5 501 501"><path d="M67.5-87.6V37h-135V-87.6L0-126.5z" opacity="0.3"/><path d="M73.6-65.6v173.4H-73.6V-65.6L0-108.1z"/><path d="M-9.5-48l-17.7 94.2h17.7l6.9-39.3L0.5-15l3 21.8 7.1 39.4h17.1L10.1-48H-9.5z" fill="#fff"/></symbol><use transform="matrix(1 0 0 -1 256.5 252.195)" y="-250.5" x="-250.5" height="501" width="501" xlink:href="#League_x5F_Bronze_1_"/><use transform="matrix(1 0 0 -1 256.5 252.335)" y="-250.5" x="-250.5" height="501" width="501" xlink:href="#Position_x5F_4"/></svg>
