<svg xmlns="http://www.w3.org/2000/svg" viewBox="0 0 500 500"><style>.a{fill:none;stroke-linejoin:round;stroke-width:10;stroke:#C8C8C8;}.b{fill:none;}</style><symbol viewBox="-250.5 -250.4 501 501"><path d="M141.6 99.4c5.5 0 10 4.5 10 10v22.8c0 5.5-4.5 10-10 10H-141.6c-5.5 0-10-4.5-10-10v-22.8c0-5.5 4.5-10 10-10H141.6z" class="a"/><path d="M29.7 203.5L-0.9 172.9-31.5 203.5h-141.7V80.8h344.6V203.5z" class="b"/><path d="M-135-122.7L0-200.6l135 77.9v230.5h-270z" fill="#7C2B00"/><path d="M0 142.2l-28.6 40.7L0 199.4l28.6-16.5z" class="a"/><path d="M-122.5-131l43.4-26.6-26.9 26.9V69.3h-16.5v-200.3zM106 69.3V-132.4l-29.5-26.7 46 28.2v200.3H106z" style="fill:#7C2B00;opacity:0.5"/><path d="M-106 68.4v39.4h-16.5v-39.5m245.1 0v39.5H106v-39.8" style="fill:#7C2B00;opacity:0.3"/><path d="M124.4-129L0-200.8-124.4-129 0-204.9z" fill="#e5ad4a"/></symbol><symbol viewBox="-250.5 -250.5 501 501"><path d="M67.5-87.5V37h-135V-87.5L0-126.5z" opacity="0.3"/><path d="M73.6-65.6v173.5H-73.6V-65.6L0-108.1z"/><path d="M135 99.3l-135 0.1-135-0.1v-222.1L0-200.8l135 77.9z" class="b"/></symbol><use transform="matrix(1 0 0 -1 256.5 252.334)" xlink:href="#a" y="-250.4" x="-250.5" height="501" width="501"/><use transform="matrix(1 0 0 -1 256.5 252.334)" xlink:href="#b" y="-250.5" x="-250.5" height="501" width="501"/><path d="m246.9 300.3-17.7-94.2h17.7l6.9 39.3 3.2 21.9 3-21.7 7-39.4h17.1l-17.5 94.2z" fill="#fff"/></svg>
