<svg xmlns="http://www.w3.org/2000/svg" viewBox="0 0 500 500"><style>.a{fill:none;stroke-linejoin:round;stroke-width:10;stroke:#C8C8C8;}.b{fill:none;opacity:0;stroke:#231F20;}.c{fill:#BC783C;}.d{fill:#231F20;opacity:0.3;}.e{opacity:0.3;}.f{fill:none;stroke-linejoin:round;stroke-width:10;stroke:#231F20;}.g{fill:#FFF;}</style><symbol viewBox="-250.5 -250.4 501 501"><polygon points="173.2 -100.6 0 -200.6 -173.2 -100.6 -173.2 99.4 0 199.4 173.2 99.4 " style="fill:#BC783C;opacity:0"/><path d="M141.8 99.4c5.5 0 10 4.5 10 10l0 22.8c0 5.5-4.5 10-10 10H-141.4c-5.5 0-10-4.5-10-10l0-22.8c0-5.5 4.5-10 10-10H141.8z" class="a"/><polygon points="250 -249.9 -250 -249.9 -250 250.1 250 250.1 " class="b"/><polygon points="-135 -92.6 0 -170.5 135 -92.6 135 107.8 -135 107.8 " fill="#7F6029"/><polyline points="122.5 107.8 122.5 70.4 -122.5 70.4 -122.5 108.9 " fill="#A57D35"/><polygon points="-122.5 -129.9 0 -200.6 122.5 -129.9 122.5 70.4 -122.5 70.4 " class="c"/><polygon points="-122.5 39.7 -135 39.7 -135 50.5 -122.5 50.5 " class="d"/><polygon points="135 39.7 122.5 39.7 122.5 50.5 135 50.5 " class="d"/><polygon points="124.4 -128.8 0 -200.6 -124.4 -128.8 0 -204.7 " fill="#E5AD4A"/><path d="M-122.5-129.9l43.4-26.6L-106-129.6V70.4h-16.5V-129.9zM106 70.4v-201.7l-29.5-26.7 46 28.2V70.4H106z" class="c"/><g class="e"><path d="M74.4 56.6c0 0 2.8 0 6.3 0s6.3 4.5 6.3 10l0 22.8c0 5.5-4.5 10-10 10H-76.6c-5.5 0-10-4.5-10-10l0-22.8c0-5.5 2.8-10 6.2-10s6.2 0 6.2 0" class="f"/></g><g class="e"><line x1="16.5" y1="142.2" x2="-16.1" y2="142.2" class="f"/></g><line y1="142.2" y2="119.4" class="a"/><polygon points=" 0 142.2 -28.6 182.9 0 199.4 28.6 182.9 " class="a"/><path d="M74.4 76.6c0 0 2.8 0 6.3 0s6.3 4.5 6.3 10l0 22.8c0 5.5-4.5 10-10 10H-76.6c-5.5 0-10-4.5-10-10l0-22.8c0-5.5 2.8-10 6.2-10s6.2 0 6.2 0" class="a"/></symbol><symbol viewBox="-250.5 -250.5 501 501"><polygon points="250 -250 -250 -250 -250 250 250 250 " class="b"/><polygon points="-173.2 99.2 0 199.2 173.2 99.2 173.2 -100.8 0 -200.8 -173.2 -100.8 " style="fill:none;opacity:0;stroke-width:10;stroke:#F00"/><polygon points="67.5 -131.7 67.5 36.4 0 36.4 -67.5 36.4 -67.5 -131.7 0 -170.6 " class="e"/><polygon points="73.6 -109.7 73.6 107.8 0 107.8 -73.6 107.8 -73.6 -109.7 0 -152.2 "/><path d="M-32.2-46.3v93.9h17.7v-93.9H-32.2z" class="g"/><path d="M14.5-46.3v93.9h17.7v-93.9H14.5z" class="g"/><polygon points="-73.6 -89.7 0 -132.2 73.6 -89.7 73.6 -99.7 0 -142.2 -73.6 -99.7 " class="g"/><polygon points="-73.6 -69.7 0 -112.2 73.6 -69.7 73.6 -79.7 0 -122.2 -73.6 -79.7 " class="g"/></symbol><use xlink:href="#League_x5F_Bronze_1_" width="501" height="501" x="-250.5" y="-250.4" transform="matrix(1 0 0 -1 256.5 252.333)"/><use xlink:href="#Position_x5F_2" width="501" height="501" x="-250.5" y="-250.5" transform="matrix(1 0 0 -1 256.5 251.333)"/></svg>
