<svg xmlns="http://www.w3.org/2000/svg" viewBox="0 0 500 500"><style>.a{fill:none;stroke-linejoin:round;stroke-width:10;stroke:#C8C8C8;}.b{fill:#CC932F;}.c{fill:#EDAF35;}.d{fill:#231F20;opacity:0.3;}.e{fill:#FFF;}.f{opacity:0.3;}.g{fill:none;stroke-linejoin:round;stroke-width:10;stroke:#231F20;}.h{fill:none;stroke-linejoin:round;stroke-width:10;stroke:#FFF;}</style><symbol viewBox="-250.5 -250.4 501 501"><path d="M141.8 99.6c5.5 0 10 4.5 10 10v22.8c0 5.5-4.5 10-10 10H-141.4c-5.5 0-10-4.5-10-10v-22.8c0-5.5 4.5-10 10-10H141.8z" class="a"/><polygon points="-135 -200.6 0 -170.6 135 -200.6 135 107.8 -135 107.8 " class="b"/><polyline points="122.5 107.8 122.5 70.4 -122.5 70.4 -122.5 108.9 " class="b"/><polygon points="135 -200.6 135 -185.4 0 -155.4 -135 -185.4 -135 -200.6 0 -170.6 " class="c"/><polygon points="-122.5 -129.9 0 -200.6 122.5 -129.9 122.5 70.4 -122.5 70.4 " class="c"/><polygon points="-122.5 39.7 -135 39.7 -135 50.5 -122.5 50.5 " class="d"/><polygon points="135 39.7 122.5 39.7 122.5 50.5 135 50.5 " class="d"/><path d="M-122.5-149.8l60.1-34.7 24.9 5.5 -85 49.1V-149.8zM37.5-179l24.9-5.5 60.1 34.7v19.9L37.5-179z" class="d"/><polygon points="124.4 -128.8 0 -200.6 -124.4 -128.8 0 -204.7 " fill="#FFC364"/><polygon points="124.4 -129.9 124.4 -95.9 0 -24.1 -124.4 -95.9 -124.4 -129.9 0 -58.1 " class="b"/><polygon points="-124.4 -129.9 0 -58.1 124.4 -129.9 0 -66.3 " class="d"/><polygon points="-124.4 -129.9 0 -58.1 124.4 -129.9 0 -54 " class="e"/><path d="M-106-119.3v34l-8.5-4.9v-34.3M115-124.2v33.7l-9 5.2v-34" class="c"/><g class="f"><path d="M74.4 56.8c0 0 2.8 0 6.3 0s6.3 4.5 6.3 10l0 22.8c0 5.5-4.5 10-10 10H-76.6c-5.5 0-10-4.5-10-10l0-22.8c0-5.5 2.8-10 6.2-10s6.2 0 6.2 0" class="g"/></g><g class="f"><line x1="75.6" y1="142.4" x2="43" y2="142.4" class="g"/></g><line x1="59.4" y1="142.4" x2="59.4" y2="119.6" class="a"/><polygon points=" 59.4 142.4 39.7 170.4 44.9 173.4 70.8 158.5 " class="a"/><g class="f"><line x1="16.1" y1="142.4" x2="-16.4" y2="142.4" class="g"/></g><line y1="142.4" y2="119.6" class="h"/><polygon points=" 0 142.4 -28.3 182.6 0 199 28.3 182.6 " class="h"/><g class="f"><line x1="-43.3" y1="142.4" x2="-75.9" y2="142.4" class="g"/></g><line x1="-59.4" y1="142.4" x2="-59.4" y2="119.6" class="a"/><polygon points=" -59.4 142.4 -70.8 158.5 -44.9 173.4 -39.7 170.4 " class="a"/><path d="M74.4 76.8c0 0 2.8 0 6.3 0s6.3 4.5 6.3 10l0 22.8c0 5.5-4.5 10-10 10H-76.6c-5.5 0-10-4.5-10-10l0-22.8c0-5.5 2.8-10 6.2-10s6.2 0 6.2 0" class="a"/><path d="M-106 68.4v39.4h-16.5v-39.5M122.5 68.3v39.5H106V68.1" style="fill:#EDAF35;opacity:0.3"/></symbol><symbol viewBox="-250.5 -250.5 501 501"><polygon points="67.5 -161.8 67.5 36.4 0 36.4 -67.5 36.4 -67.5 -161.8 0 -200.8 " class="f"/><polygon points="73.6 -139.9 73.6 107.9 0 107.9 -73.6 107.9 -73.6 -139.9 0 -182.4 "/><polygon points="-0.9 64.7 12.8 22.5 57.2 22.5 21.3 -3.7 35 -45.9 -0.9 -19.8 -36.9 -45.9 -23.1 -3.7 -59.1 22.5 -14.6 22.5 " class="e"/><polygon points="-73.6 -102.3 0 -144.8 73.6 -102.3 73.6 -112.3 0 -154.8 -73.6 -112.3 " class="e"/><polygon points="-73.6 -82.3 0 -124.8 73.6 -82.3 73.6 -92.3 0 -134.8 -73.6 -92.3 " class="e"/><polygon points="-73.6 -62.3 0 -104.8 73.6 -62.3 73.6 -72.3 0 -114.8 -73.6 -72.3 " class="e"/><polygon points="39 -92.3 0 -69.8 -39 -92.3 -39 -82.3 0 -59.8 39 -82.3 " class="e"/></symbol><use xlink:href="#League_x5F_Gold" width="501" height="501" x="-250.5" y="-250.4" transform="matrix(1 0 0 -1 256.5 252.334)"/><use xlink:href="#Position_x5F_1_3_" width="501" height="501" x="-250.5" y="-250.5" transform="matrix(1 0 0 -1 256.5 251.334)"/></svg>
