<svg xmlns="http://www.w3.org/2000/svg" viewBox="0 0 500 500"><style>.a{fill:#fff;}</style><defs><linearGradient gradientTransform="translate(1)" gradientUnits="userSpaceOnUse" y2="393.9" x2="405.7" y1="213" x1="92.2"><stop stop-color="#e2108a" offset="0"/><stop stop-color="#e2107f" offset=".25"/><stop stop-color="#e11062" offset=".69"/><stop stop-color="#e1104a" offset="1"/></linearGradient></defs><path d="M303.6 464.4a4.5 4.5 0 0 1-2.8-1l-107.1-85.7a4.5 4.5 0 0 1-1.7-3.5V195.7a4.5 4.5 0 0 1 1.3-3.2 4.4 4.4 0 0 1 3.2-1.3c19.4 51 0.3 54.4a4.6 4.6 0 0 1 0.7-0.1h51.9a4.5 4.5 0 0 1 4.5 4.5v264.3a4.5 4.5 0 0 1-2.5 4.1 4.4 4.4 0 0 1-1.9zM200.9 372l98.1 78.5V200.2h-47.4c-3.5-14.1-50.7zm48.7-180.4zm0 0zm0 0z" fill="#ed9cd4"/><path d="M196.5 464.4a4.4 4.4 0 0 1-2-0.4 4.5 4.5 0 0 1-2.5-4.1V195.7a4.5 4.5 0 0 1 4.5-4.5h51.9a4.6 4.6 0 0 1 0.7c3.4 35 0.1 54.4-0.1a4.5 4.5 0 0 1 4.5 4.5V374.2a4.5 4.5 0 0 1-1.7 3.5l-107 85.7a4.5 4.5 0 0 1-2.8zm4.5-264.3v250.4l98.1-78.6V200.2c-36.6-47.2-50.7-0.1zm49.5-8.5zm0 0zm0 0zm0 0z" fill="#ed9cc9"/><path d="M370.2 181.7a4.5 4.5 0 0 1-3.2-7.7l22.6-22.5-19.5-18.5h-240.3l-19.5 18.6 22.6 22.4a4.5 4.5 0 0 1-6.3 6.4l-25.8-25.7a4.5 4.5 0 0 1 0.1-6.4l24.1-23a4.5 4.5 0 0 1 3.1-1.2h243.9a4.5 4.5 0 0 1 3.1 1.2l24.1 23a4.5 4.5 0 0 1 0.1 6.5l-25.8 25.7a4.5 4.5 0 0 1-3.2 1.3z" fill="#e0c5d8"/><path d="M375 158H125v291l124.6-63.6L375 448.9z" fill="url(#a)"/><path d="M125 158h250v30H125z" fill="#c86aab"/><path d="M351.9 191l-14.8-15.2q0-8.9-17.8H166.4v14.2L148.1 191a4.5 4.5 0 0 0 0 6.3l18.4 19v202.1l7.8 6.4 77.2-39.4 77.9 39.5 7.8-6.5V212.6l14.9-15.4a4.5 4.5 0 0 0 0-6.3zm-194.4 3.2l8.9-9.1v18.3zm179.5 5.5v-11l5.4 5.5z" opacity="0.4"/><path d="M322.5 404.6l-72 57.5-73-57.5v-216h145z" fill="#f02166"/><path d="M190.5 174.4v226.2l60 47.3 59-47.1V174.4z" fill="#b31d51"/><path d="M315.8 198.7a4.5 4.5 0 0 1-1.4-8.8l7.6-2.5 18.4-19-17.9-18.3-72.6-72.6-0.2-17.9 18.3 18.4 19 7.6 2.5a4.5 4.5 0 1 1-2.8 8.6l-8.7-2.8a4.5 4.5 0 0 1-1.8-1.1l-22.2-23a4.5 4.5 0 0 1 0-6.3l22.3-22.7a4.5 4.5 0 0 1 3.2-1.4l70 0.2v-23.4l-38.5-0.2a4.5 4.5 0 0 1-4.2-3l-17.3-50.3a4.5 4.5 0 0 1 6.3-5.5l28.4 14.8 26.1-36.3a4.5 4.5 0 0 1 7.3 0l26.1 36.3 28.4-14.8a4.5 4.5 0 0 1 6.3 5.5l-17.3 50.2a4.5 4.5 0 0 1-4.2 3l-38.5v23.5l70-0.2a4.5 4.5 0 0 1 3.2 1.4l22.3 22.7a4.5 4.5 0 0 1 0 6.3l-22.2 23a4.4 4.4 0 0 1-1.8 1.2l-8.7 2.8a4.5 4.5 0 0 1-1.4zm-105.5-90l39.7 39.7-0.2 12.6-36.5-21.8 11.4a4.5 4.5 0 0 1-5.7-1.4l-24.7-34.4-24.7 34.4a4.5 4.5 0 0 1-5.7 1.4l-21.8-11.4z" class="a"/><path d="M322.6 374l-72 57.5q-36.5-28.7-73-57.5V158h145z"/><path d="M177.4 349.5l73 58v-9l-73-58zm0-18l73 58v-9l-73-58zm101.6 8.3l-28.5 22.7v9l72-57.2v-9l-36.9 29.3-0.9-33.7-27.1v-0.8l-0.5-0.5-0.4v0.8l-33.7 27.1-0.9-0.7-37.9-30.1v9l73 58v-9l-28.5-22.7 28.6-23zm-28.5 58.7v9l72-57.2v-9zm0-9l72-57.2v-9l-72 57.2zm-0.5-195.3l12.7 39h41l-33.2 24.1 12.7 39-33.2-24.1-33.2 24.1 12.7-39-33.2-24.1h41z" class="a"/></svg>
