<svg xmlns="http://www.w3.org/2000/svg" viewBox="0 0 500 500"><style>.a{fill:none;stroke-linejoin:round;stroke-width:10;stroke:#C8C8C8;}.b{fill:none;opacity:0;stroke-width:10;stroke:#F00;}.c{fill:#FFF;}</style><symbol viewBox="-250.5 -250.4 501 501"><path d="M124.4-129L0-200.8-124.4-129 0-204.9z" fill="#e5ad4a"/><path d="M141.6 99.4c5.5 0 10 4.5 10 10l0 22.8c0 5.5-4.5 10-10 10h-283.2c-5.5 0-10-4.5-10-10l0-22.8c0-5.5 4.5-10 10-10H141.6z" class="a"/><polygon points="29.7 203.5 -0.9 172.9 -31.5 203.5 -173.2 203.5 -173.2 80.8 171.4 80.8 171.4 203.5 " fill="none"/><polygon points="-135 -122.7 0 -200.6 135 -122.7 135 107.8 -135 107.8 " fill="#7C2B00"/><polygon points=" 0 142.2 -28.6 182.9 0 199.4 28.6 182.9 " class="a"/><path d="M-122.5-131l43.4-26.6L-106-130.6V69.3h-16.5V-131zM106 69.3V-132.4l-29.5-26.7 46 28.2V69.3H106z" style="fill:#7C2B00;opacity:0.5"/><path d="M-106 68.4v39.4h-16.5v-39.5M122.5 68.3v39.5H106V68.1" style="fill:#7C2B00;opacity:0.3"/></symbol><symbol viewBox="-250.5 -250.5 501 501"><polygon points="67.5 -87.5 67.5 37 0 37 -67.5 37 -67.5 -87.5 0 -126.5 " opacity="0.3"/><polygon points="-173.2 99.2 0 199.2 173.2 99.2 173.2 -100.8 0 -200.8 -173.2 -100.8 " class="b"/><polygon points="-142 -82.8 0 -0.8 142 -82.8 142 -82.8 0 -164.8 -142 -82.8 " class="b"/><polygon points="250 -250 -250 -250 -250 250 250 250 " style="fill:none;opacity:0;stroke:#231F20"/><polygon points="73.6 -65.6 73.6 107.8 0 107.8 -73.6 107.8 -73.6 -65.6 0 -108.1 "/><path d="M-45-47.7v93.9h17.7v-93.9H-45z" class="c"/><path d="M15-48l-17.7 94.2h17.7l6.9-39.3 3.2-21.9 3 21.8 7.1 39.5h17.1l-17.5-94.2H15z" class="c"/></symbol><use xlink:href="#League_x5F_Copper_1_" width="501" height="501" x="-250.5" y="-250.4" transform="matrix(1 0 0 -1 256.5 252.334)"/><use xlink:href="#Position_x5F_4" width="501" height="501" x="-250.5" y="-250.5" transform="matrix(1 0 0 -1 256.5 252.334)"/></svg>
