<svg xmlns="http://www.w3.org/2000/svg" viewBox="0 0 500 500"><style>.a{fill:none;opacity:0;stroke:#231F20;}.b{fill:none;stroke-linejoin:round;stroke-width:10;stroke:#C8C8C8;}.c{fill:#FFF;}.d{fill:none;stroke-width:3;stroke:#231F20;}</style><symbol viewBox="-250.5 -250.4 501 501"><path d="M0-200.6l173.2 100v200L0 199.4l-173.2-100v-200L0-200.6z" style="fill:#7C2B00;opacity:0"/><polygon points="250 -249.9 -250 -249.9 -250 250.1 250 250.1 " class="a"/><path d="M141.6 99.4c5.5 0 10 4.5 10 10l0 22.8c0 5.5-4.5 10-10 10h-283.2c-5.5 0-10-4.5-10-10l0-22.8c0-5.5 4.5-10 10-10H141.6z" class="b"/><polygon points="29.7 203.5 -0.9 172.9 -31.5 203.5 -173.2 203.5 -173.2 80.8 171.4 80.8 171.4 203.5 " fill="none"/><polygon points="-135 -122.7 0 -200.6 135 -122.7 135 107.8 -135 107.8 " fill="#7C2B00"/><polygon points=" 0 142.2 -28.6 182.9 0 199.4 28.6 182.9 " class="b"/><path d="M-122.5-131l43.4-26.6L-106-130.6V69.3h-16.5V-131zM106 69.3V-132.4l-29.5-26.7 46 28.2V69.3H106z" style="fill:#7C2B00;opacity:0.5"/><path d="M124.4-129L0-200.8-124.4-129 0-204.9z" fill="#e5ad4a"/><path d="M-106 68.4v39.4h-16.5v-39.5M122.5 68.3v39.5H106V68.1" style="fill:#7C2B00;opacity:0.3"/></symbol><symbol viewBox="-250.5 -250.5 501 501"><polygon points="250 -250 -250 -250 -250 250 250 250 " class="a"/><polygon points="-173.2 99.2 0 199.2 173.2 99.2 173.2 -100.8 0 -200.8 -173.2 -100.8 " style="fill:none;opacity:0;stroke-width:10;stroke:#F00"/><polygon points="67.5 -131.7 67.5 36.4 0 36.4 -67.5 36.4 -67.5 -131.7 0 -170.6 " opacity="0.3"/><polygon points="73.6 -109.7 73.6 107.8 0 107.8 -73.6 107.8 -73.6 -109.7 0 -152.2 "/><path d="M-32.2-46.3v93.9h17.7v-93.9H-32.2z" class="c"/><path d="M14.5-46.3v93.9h17.7v-93.9H14.5z" class="c"/><polygon points="-73.6 -89.7 0 -132.2 73.6 -89.7 73.6 -99.7 0 -142.2 -73.6 -99.7 " class="c"/><polygon points="-73.6 -69.7 0 -112.2 73.6 -69.7 73.6 -79.7 0 -122.2 -73.6 -79.7 " class="c"/></symbol><symbol viewBox="-251.5 -251.4 503 503"><polygon points="250 -249.9 -250 -249.9 -250 250.1 250 250.1 " class="d"/><line x1="-250" y1="250.1" x2="250" y2="-249.9" class="d"/><line x1="250" y1="250.1" x2="-250" y2="-249.9" class="d"/><polygon points="-173.2 99.4 0 199.4 173.2 99.4 173.2 -100.6 0 -200.6 -173.2 -100.6 " style="fill:none;stroke-width:10;stroke:#F00"/></symbol><use xlink:href="#League_x5F_Copper_1_" width="501" height="501" x="-250.5" y="-250.4" transform="matrix(1 0 0 -1 256.5 252.3359)"/><use xlink:href="#Position_x5F_2" width="501" height="501" x="-250.5" y="-250.5" transform="matrix(1 0 0 -1 256.5 252.3359)"/></svg>
