<?xml version="1.0" encoding="UTF-8"?>
<svg version="1.1" xmlns="http://www.w3.org/2000/svg" xmlns:xlink="http://www.w3.org/1999/xlink" viewBox="0 0 500 500">
<symbol id="League_x5F_Silver" viewBox="-250.5 -250.36 501 501">
	<g>
		<path fill="none" stroke="#C8C8C8" stroke-width="10" stroke-linecap="round" stroke-linejoin="round" stroke-miterlimit="10" d="    M141.83,99.29c5.5,0,10,4.5,10,10l0,22.81c0,5.5-4.5,10-10,10H-141.4c-5.5,0-10-4.5-10-10l0-22.81c0-5.5,4.5-10,10-10H141.83z"/>
	</g>
	<polygon fill="#666666" points="-135,-92.7 0,-170.64 135,-92.7 135,107.84 -135,107.84  "/>
	<polyline fill="#8C8C8C" points="122.53,107.84 122.53,70.38 -122.53,70.38 -122.53,108.9  "/>
	<polygon fill="#A5A5A5" points="-122.53,-129.9 0,-200.64 122.53,-129.9 122.53,70.38 -122.53,70.38  "/>
	<polygon opacity="0.25" fill="#231F20" points="-122.53,39.7 -135,39.7 -135,50.45 -122.53,50.45  "/>
	<polygon opacity="0.25" fill="#231F20" points="135,39.7 122.53,39.7 122.53,50.45 135,50.45  "/>
	<polygon fill="#CCCCCC" points="124.4,-128.82 0,-200.64 -124.41,-128.82 0,-204.74  "/>
	<path fill="#A5A5A5" d="M-122.53-129.9l43.44-26.58L-106-129.59V70.38h-16.53V-129.9z M106,70.38v-201.72l-29.52-26.73l46.04,28.16   V70.38H106z"/>
	<polygon fill="#A5A5A5" points="-30.71,70.38 0,88.11 30.71,70.38 30.71,-182.91 0,-200.64 -30.71,-182.91  "/>
	<path opacity="0.25" fill="#A5A5A5" d="M-106,68.4v39.44h-16.53v-39.5 M122.53,68.34v39.5H106V68.05"/>
	<g>
		<g opacity="0.25">
			<path fill="none" stroke="#231F20" stroke-width="10" stroke-linejoin="round" stroke-miterlimit="10" d="M74.36,56.48     c0,0,2.84,0,6.32,0s6.32,4.5,6.32,10l0,22.81c0,5.5-4.5,10-10,10H-76.57c-5.5,0-10-4.5-10-10l0-22.81c0-5.5,2.79-10,6.19-10     s6.19,0,6.19,0"/>
		</g>
		<g opacity="0.25">

				<line fill="none" stroke="#231F20" stroke-width="10" stroke-linejoin="round" stroke-miterlimit="10" x1="46.83" y1="142.1" x2="14.26" y2="142.1"/>
		</g>
		<g opacity="0.25">
            <line fill="none" stroke="#231F20" stroke-width="10" stroke-linejoin="round" stroke-miterlimit="10" x1="-13.83" y1="142.1" x2="-46.4" y2="142.1"/>
		</g>

			<line fill="none" stroke="#C8C8C8" stroke-width="10" stroke-linecap="round" stroke-linejoin="round" stroke-miterlimit="10" x1="-30.71" y1="142.1" x2="-30.71" y2="119.29"/>

			<line fill="none" stroke="#C8C8C8" stroke-width="10" stroke-linecap="round" stroke-linejoin="round" stroke-miterlimit="10" x1="30.71" y1="142.1" x2="30.71" y2="119.29"/>

			<polygon fill="none" stroke="#C8C8C8" stroke-width="10" stroke-linecap="round" stroke-linejoin="round" stroke-miterlimit="10" points="    -30.71,142.1 -50.43,170.15 -30.71,181.54 -10.99,170.15   "/>

			<polygon fill="none" stroke="#C8C8C8" stroke-width="10" stroke-linecap="round" stroke-linejoin="round" stroke-miterlimit="10" points="    30.71,142.1 10.99,170.15 30.71,181.54 50.43,170.15   "/>
		<g>
			<path fill="none" stroke="#C8C8C8" stroke-width="10" stroke-linejoin="round" stroke-miterlimit="10" d="M74.36,76.48     c0,0,2.84,0,6.32,0s6.32,4.5,6.32,10l0,22.81c0,5.5-4.5,10-10,10H-76.57c-5.5,0-10-4.5-10-10l0-22.81c0-5.5,2.79-10,6.19-10     s6.19,0,6.19,0"/>
		</g>
	</g>
</symbol>
<symbol id="Position_x5F_2" viewBox="-250.5 -250.5 501 501">
	<polygon opacity="0.25" points="67.5,-131.67 67.5,36.36 0,36.36 -67.5,36.36 -67.5,-131.67 0,-170.64  "/>
	<g>
		<polygon points="73.62,-109.75 73.62,107.84 0,107.84 -73.62,107.84 -73.62,-109.75 0,-152.25   "/>
		<g>
			<path fill="#FFFFFF" d="M-32.2-46.28v93.9h17.7v-93.9H-32.2z"/>
			<path fill="#FFFFFF" d="M14.5-46.28v93.9h17.7v-93.9H14.5z"/>
		</g>
	</g>
	<polygon fill="#FFFFFF" points="-73.62,-89.75 0,-132.25 73.62,-89.75 73.62,-99.75 0,-142.25 -73.62,-99.75  "/>
	<polygon fill="#FFFFFF" points="-73.62,-69.75 0,-112.25 73.62,-69.75 73.62,-79.75 0,-122.25 -73.62,-79.75  "/>
</symbol>
<g id="Compound">
	<g id="Rank_x5F_Silver_x5F_2">

			<use xlink:href="#League_x5F_Silver" width="501" height="501" id="XMLID_66_" x="-250.5" y="-250.36" transform="matrix(1 0 0 -1 256.5 252.333)" overflow="visible"/>

			<use xlink:href="#Position_x5F_2" width="501" height="501" id="XMLID_57_" x="-250.5" y="-250.5" transform="matrix(1 0 0 -1 256.5 251.333)" overflow="visible"/>
	</g>
</g>
</svg>
