<svg xmlns="http://www.w3.org/2000/svg" style="display: none;">
<symbol id="twitter" viewBox="0 0 512 512">
    <path fill="currentColor" d="M459.37 151.716c.325 4.548.325 9.097.325 13.645 0 138.72-105.583 298.558-298.558 298.558-59.452 0-114.68-17.219-161.137-47.106 8.447.974 16.568 1.299 25.34 1.299 49.055 0 94.213-16.568 130.274-44.832-46.132-.975-84.792-31.188-98.112-72.772 6.498.974 12.995 1.624 19.818 1.624 9.421 0 18.843-1.3 27.614-3.573-48.081-9.747-84.143-51.98-84.143-102.985v-1.299c13.969 7.797 30.214 12.67 47.431 13.319-28.264-18.843-46.781-51.005-46.781-87.391 0-19.492 5.197-37.36 14.294-52.954 51.655 63.675 129.3 105.258 216.365 109.807-1.624-7.797-2.599-15.918-2.599-24.04 0-57.828 46.782-104.934 104.934-104.934 30.213 0 57.502 12.67 76.67 33.137 23.715-4.548 46.456-13.32 66.599-25.34-7.798 24.366-24.366 44.833-46.132 57.827 21.117-2.273 41.584-8.122 60.426-16.243-14.292 20.791-32.161 39.308-52.628 54.253z"></path>
</symbol>
<symbol id="discord" viewBox="0 0 448 512">
    <path fill="currentColor" d="M297.216 243.2c0 15.616-11.52 28.416-26.112 28.416-14.336 0-26.112-12.8-26.112-28.416s11.52-28.416 26.112-28.416c14.592 0 26.112 12.8 26.112 28.416zm-119.552-28.416c-14.592 0-26.112 12.8-26.112 28.416s11.776 28.416 26.112 28.416c14.592 0 26.112-12.8 26.112-28.416.256-15.616-11.52-28.416-26.112-28.416zM448 52.736V512c-64.494-56.994-43.868-38.128-118.784-107.776l13.568 47.36H52.48C23.552 451.584 0 428.032 0 398.848V52.736C0 23.552 23.552 0 52.48 0h343.04C424.448 0 448 23.552 448 52.736zm-72.96 242.688c0-82.432-36.864-149.248-36.864-149.248-36.864-27.648-71.936-26.88-71.936-26.88l-3.584 4.096c43.52 13.312 63.744 32.512 63.744 32.512-60.811-33.329-132.244-33.335-191.232-7.424-9.472 4.352-15.104 7.424-15.104 7.424s21.248-20.224 67.328-33.536l-2.56-3.072s-35.072-.768-71.936 26.88c0 0-36.864 66.816-36.864 149.248 0 0 21.504 37.12 78.08 38.912 0 0 9.472-11.52 17.152-21.248-32.512-9.728-44.8-30.208-44.8-30.208 3.766 2.636 9.976 6.053 10.496 6.4 43.21 24.198 104.588 32.126 159.744 8.96 8.96-3.328 18.944-8.192 29.44-15.104 0 0-12.8 20.992-46.336 30.464 7.68 9.728 16.896 20.736 16.896 20.736 56.576-1.792 78.336-38.912 78.336-38.912z"></path>
</symbol>
<symbol id="r6lookup" viewBox="0 0 7214.61 1773.23">
    <path fill="currentColor" d="M532.44,1123H490v298.47H249.89V482.25H625.3c193.67,0,343.57,88.88,348.88,309.08,0,173.78-70.31,271.95-184.39,307.76l256,322.35H750Zm96.84-204.29c149.9,0,149.9-214.9,0-214.9H490v214.9Z"/><path fill="currentColor" d="M1567.14,738.27c-29.18-46.43-80.91-66.32-130-66.32-63.67,0-123.37,34.49-123.37,94.18V863c180.41-128.68,463-13.27,463,220.2v55.72c0,193.67-167.15,295.82-342.25,295.82s-347.55-100.82-347.55-295.82V764.8c0-188.37,176.43-295.82,350.2-295.82,123.37,0,238.78,55.72,295.82,173.78Zm-17.24,338.27c0-99.49-236.13-98.16-236.13,0v70.31c0,106.12,236.13,107.45,236.13,0Z"/><path fill="#fa0" d="M1894.29,482.26h238.78v704.39h382v234.8H1894.29Z"/><path fill="#fa0" d="M2578.78,791.34c-.81-431.23,778.76-428.85,778.68,0v321c.51,430.27-778.72,429.34-778.68,0Zm237.45,321c.24,136.55,303.58,136,303.78,0v-321c.14-141.36-303.23-141.81-303.78,0Z"/><path fill="#fa0" d="M3460.93,791.34c-.81-431.23,778.76-428.85,778.68,0v321c.51,430.27-778.72,429.34-778.68,0Zm237.45,321c.24,136.55,303.58,136,303.78,0v-321c.14-141.35-303.23-141.81-303.78,0Z"/><path fill="#fa0" d="M4859.1,482.26h295.82L4783.49,935.94l370.1,485.51H4852.47l-240.11-335.61-8,10.61v325H4365.62V482.26H4604.4V829.81Z"/><path fill="#fa0" d="M6264.22,482.26h375.41c487.66,8.5,475.37,749.16-138,664.6v274.59H6264.22Zm375.41,453.68c143.27,1.32,143.27-233.48,0-232.15h-138V935.94Z"/><path fill="#fa0" d="M5536.57,1099.1c0,151.23,268,151.23,269.29,0V474.3H6046v624.8c-1.33,440.41-750.82,440.41-749.5,0V474.3h240.11Z"/><polygon fill="#fa0" points="6146.74 474.3 5705.08 474.3 5925.9 137.04 6146.74 474.3"/>
</symbol>
</svg>
