<svg id="Layer_1" data-name="Layer 1" xmlns="http://www.w3.org/2000/svg" viewBox="0 0 7214.61 1773.23"><defs><style>.cls-1{fill:#fffbf8;}.cls-2{fill:#fa0;}</style></defs><title>SVG</title><path class="cls-1" d="M532.44,1123H490v298.47H249.89V482.25H625.3c193.67,0,343.57,88.88,348.88,309.08,0,173.78-70.31,271.95-184.39,307.76l256,322.35H750Zm96.84-204.29c149.9,0,149.9-214.9,0-214.9H490v214.9Z"/><path class="cls-1" d="M1567.14,738.27c-29.18-46.43-80.91-66.32-130-66.32-63.67,0-123.37,34.49-123.37,94.18V863c180.41-128.68,463-13.27,463,220.2v55.72c0,193.67-167.15,295.82-342.25,295.82s-347.55-100.82-347.55-295.82V764.8c0-188.37,176.43-295.82,350.2-295.82,123.37,0,238.78,55.72,295.82,173.78Zm-17.24,338.27c0-99.49-236.13-98.16-236.13,0v70.31c0,106.12,236.13,107.45,236.13,0Z"/><path class="cls-2" d="M1894.29,482.26h238.78v704.39h382v234.8H1894.29Z"/><path class="cls-2" d="M2578.78,791.34c-.81-431.23,778.76-428.85,778.68,0v321c.51,430.27-778.72,429.34-778.68,0Zm237.45,321c.24,136.55,303.58,136,303.78,0v-321c.14-141.36-303.23-141.81-303.78,0Z"/><path class="cls-2" d="M3460.93,791.34c-.81-431.23,778.76-428.85,778.68,0v321c.51,430.27-778.72,429.34-778.68,0Zm237.45,321c.24,136.55,303.58,136,303.78,0v-321c.14-141.35-303.23-141.81-303.78,0Z"/><path class="cls-2" d="M4859.1,482.26h295.82L4783.49,935.94l370.1,485.51H4852.47l-240.11-335.61-8,10.61v325H4365.62V482.26H4604.4V829.81Z"/><path class="cls-2" d="M6264.22,482.26h375.41c487.66,8.5,475.37,749.16-138,664.6v274.59H6264.22Zm375.41,453.68c143.27,1.32,143.27-233.48,0-232.15h-138V935.94Z"/><path class="cls-2" d="M5536.57,1099.1c0,151.23,268,151.23,269.29,0V474.3H6046v624.8c-1.33,440.41-750.82,440.41-749.5,0V474.3h240.11Z"/><polygon class="cls-2" points="6146.74 474.3 5705.08 474.3 5925.9 137.04 6146.74 474.3"/></svg>