<svg id="Layer_1" data-name="Layer 1" xmlns="http://www.w3.org/2000/svg" viewBox="0 0 7235.33 2113.71"><defs><style>.cls-1{fill:#fffbf8;}.cls-2{fill:#fa0;}</style></defs><title>SVG</title><path class="cls-1" d="M470.24,578.84H772.39v891.34h483.44V1767.3H470.24Z"/><path class="cls-1" d="M1336.39,970c-1-545.69,985.44-542.67,985.34,0v406.22c.66,544.47-985.39,543.3-985.34,0Zm300.47,406.22c.31,172.8,384.16,172.06,384.4,0V970c.18-178.88-383.69-179.45-384.4,0Z"/><path class="cls-1" d="M2452.66,970c-1-545.69,985.45-542.67,985.35,0v406.22c.65,544.47-985.4,543.3-985.35,0Zm300.48,406.22c.3,172.8,384.15,172.06,384.4,0V970c.17-178.88-383.7-179.45-384.4,0Z"/><path class="cls-1" d="M4221.91,578.84h374.33l-470,574.09,468.33,614.37h-381l-303.83-424.69L3899.62,1356V1767.3H3597.47V578.84h302.15v439.8Z"/><path class="cls-2" d="M5852.45,578.84H6327.5c617.08,10.77,601.53,948-174.58,841V1767.3H5852.45Zm475.05,574.09c181.29,1.68,181.29-295.44,0-293.76H6152.92v293.76Z"/><path class="cls-2" d="M4995.44,1359.4c0,191.36,339.08,191.36,340.76,0V568.77H5640V1359.4c-1.68,557.29-950.09,557.29-948.41,0V568.77h303.82Z"/><polygon class="cls-2" points="5767.56 568.77 5208.68 568.77 5488.1 142.01 5767.56 568.77"/></svg>