<?xml version="1.0" encoding="UTF-8"?>
<svg xmlns="http://www.w3.org/2000/svg" xmlns:xlink="http://www.w3.org/1999/xlink" viewBox="0 0 500 500">
<symbol id="League_x5F_Copper_1_" viewBox="-250.5 -250.36 501 501">
    <path id="path18" d="M124.4-129L0-200.8-124.4-129 0-204.9z" fill="#e5ad4a" />
	<g>
		<path fill="none" stroke="#C8C8C8" stroke-width="10" stroke-linecap="round" stroke-linejoin="round" stroke-miterlimit="10" d="    M141.62,99.36c5.5,0,10,4.5,10,10l0,22.81c0,5.5-4.5,10-10,10h-283.23c-5.5,0-10-4.5-10-10l0-22.81c0-5.5,4.5-10,10-10H141.62z"/>
	</g>
	<polygon fill="none" points="29.66,203.5 -0.92,172.92 -31.5,203.5 -173.21,203.5 -173.21,80.84 171.37,80.84 171.37,203.5  "/>
	<polygon fill="#7C2B00" points="-135,-122.7 0,-200.64 135,-122.7 135,107.84 -135,107.84  "/>

		<polygon fill="none" stroke="#C8C8C8" stroke-width="10" stroke-linecap="round" stroke-linejoin="round" stroke-miterlimit="10" points="   0,142.17 -28.59,182.85 0,199.36 28.59,182.85  "/>
	<path opacity="0.5" fill="#7C2B00" d="M-122.53-130.96l43.44-26.58L-106-130.65V69.32h-16.53V-130.96z M106,69.32V-132.4   l-29.52-26.73l46.04,28.16V69.32H106z"/>
	<path opacity="0.25" fill="#7C2B00" d="M-106,68.4v39.44h-16.53v-39.5 M122.53,68.34v39.5H106V68.05"/>
</symbol>
<symbol id="Position_x5F_4" viewBox="-250.5 -250.5 501 501">
	<polygon opacity="0.25" points="67.5,-87.55 67.5,37.03 0,37.03 -67.5,37.03 -67.5,-87.55 0,-126.53  "/>
	<polygon opacity="0" fill="none" stroke="#FF0000" stroke-width="10" stroke-miterlimit="10" points="-173.21,99.22 0,199.22    173.21,99.22 173.21,-100.78 0,-200.78 -173.21,-100.78  "/>
	<polygon opacity="0" fill="none" stroke="#FF0000" stroke-width="10" stroke-miterlimit="10" points="-142.03,-82.78 0,-0.78    142.03,-82.78 142.03,-82.78 0,-164.78 -142.03,-82.78  "/>
	<polygon opacity="0" fill="none" stroke="#231F20" stroke-miterlimit="10" points="250,-250 -250,-250 -250,250 250,250  "/>
	<g>
		<polygon points="73.61,-65.63 73.61,107.84 0,107.84 -73.62,107.84 -73.62,-65.63 0,-108.13   "/>
		<g>
			<path fill="#FFFFFF" d="M-45.02-47.67v93.9h17.7v-93.9H-45.02z"/>
			<path fill="#FFFFFF" d="M15.03-47.97l-17.7,94.2h17.7l6.9-39.3l3.15-21.9l3,21.75l7.05,39.45h17.1l-17.55-94.2H15.03z"/>
		</g>
	</g>
</symbol>
<g id="Compound">
	<g id="Rank_x5F_Copper_x5F_4_5_">
        <use xlink:href="#League_x5F_Copper_1_" width="501" height="501" x="-250.5" y="-250.36" transform="matrix(1 0 0 -1 256.5 252.334)" overflow="visible"/>
        <use xlink:href="#Position_x5F_4" width="501" height="501" id="XMLID_49_" x="-250.5" y="-250.5" transform="matrix(1 0 0 -1 256.5 252.334)" overflow="visible"/>
		<g id="League_x5F_Copper">
		</g>
	</g>
</g>
</svg>
